<svg width="1523" height="1530" viewBox="0 0 1523 1530" fill="none" xmlns="http://www.w3.org/2000/svg">
<g opacity="0.18" filter="url(#filter0_f_76_843)">
<circle cx="879.5" cy="650.5" r="479.5" fill="url(#paint0_radial_76_843)"/>
</g>
<g filter="url(#filter1_f_76_843)">
<path d="M489.429 786.498H598.499V845.307H489.429V786.498Z" fill="url(#paint1_linear_76_843)"/>
<path d="M647.161 727.688H756.231V845.307H647.161V727.688Z" fill="url(#paint2_linear_76_843)"/>
<path d="M804.894 610.069H913.964V845.307H804.894V610.069Z" fill="url(#paint3_linear_76_843)"/>
<path d="M962.626 492.45H1071.7V845.307H962.626V492.45Z" fill="url(#paint4_linear_76_843)"/>
<path d="M1120.36 374.831H1229.43V845.307H1120.36V374.831Z" fill="url(#paint5_linear_76_843)"/>
</g>
<g opacity="0.3">
<line x1="358" y1="323.766" x2="1358" y2="323.766" stroke="url(#paint6_linear_76_843)"/>
<line x1="358" y1="848.844" x2="1358" y2="848.844" stroke="url(#paint7_linear_76_843)"/>
<line x1="358" y1="718.411" x2="1358" y2="718.411" stroke="url(#paint8_linear_76_843)"/>
<line x1="358" y1="455.872" x2="1358" y2="455.872" stroke="url(#paint9_linear_76_843)"/>
<line x1="484.339" y1="244" x2="484.339" y2="1016.57" stroke="url(#paint10_linear_76_843)"/>
<line x1="670.581" y1="244" x2="670.581" y2="1016.57" stroke="url(#paint11_linear_76_843)"/>
<line x1="856.822" y1="244" x2="856.822" y2="1016.57" stroke="url(#paint12_linear_76_843)"/>
<line x1="1044.74" y1="244" x2="1044.74" y2="1016.57" stroke="url(#paint13_linear_76_843)"/>
<line x1="1232.66" y1="244" x2="1232.66" y2="1016.57" stroke="url(#paint14_linear_76_843)"/>
</g>
<ellipse cx="485.143" cy="850.069" rx="2.38095" ry="1.90476" fill="#D9D9D9" fill-opacity="0.5"/>
<ellipse cx="672.762" cy="850.069" rx="2.38095" ry="1.90476" fill="#D9D9D9" fill-opacity="0.5"/>
<ellipse cx="859.905" cy="850.069" rx="1.90476" ry="1.90476" fill="#D9D9D9" fill-opacity="0.5"/>
<ellipse cx="1047.05" cy="850.069" rx="2.38095" ry="1.90476" fill="#D9D9D9" fill-opacity="0.5"/>
<ellipse cx="1234.19" cy="850.069" rx="1.90476" ry="1.90476" fill="#D9D9D9" fill-opacity="0.5"/>
<circle cx="485.143" cy="322.926" r="2.38095" fill="#D9D9D9" fill-opacity="0.5"/>
<circle cx="672.762" cy="322.926" r="2.38095" fill="#D9D9D9" fill-opacity="0.5"/>
<ellipse cx="859.905" cy="322.926" rx="1.90476" ry="2.38095" fill="#D9D9D9" fill-opacity="0.5"/>
<circle cx="1047.05" cy="322.926" r="2.38095" fill="#D9D9D9" fill-opacity="0.5"/>
<ellipse cx="1234.19" cy="322.926" rx="1.90476" ry="2.38095" fill="#D9D9D9" fill-opacity="0.5"/>
<path d="M489.358 786.323H598.419V845.048H489.358V786.323Z" fill="url(#paint15_linear_76_843)"/>
<path d="M647.077 727.598H756.137V845.048H647.077V727.598Z" fill="url(#paint16_linear_76_843)"/>
<path d="M804.795 610.149H913.855V845.048H804.795V610.149Z" fill="url(#paint17_linear_76_843)"/>
<path d="M962.513 492.699H1071.57V845.048H962.513V492.699Z" fill="url(#paint18_linear_76_843)"/>
<path d="M1120.23 375.25H1229.29V845.048H1120.23V375.25Z" fill="url(#paint19_linear_76_843)"/>
<path d="M1180.67 310.506C1179.66 309.562 1178.08 309.613 1177.13 310.62L1161.74 327.035C1160.8 328.043 1160.85 329.625 1161.86 330.569C1162.86 331.513 1164.45 331.462 1165.39 330.455L1179.07 315.864L1193.66 329.542C1194.67 330.487 1196.25 330.436 1197.19 329.428C1198.14 328.421 1198.09 326.839 1197.08 325.895L1180.67 310.506ZM492.237 819.025C749.044 818.116 924.729 793.113 1034.54 717.302C1144.68 641.261 1187.99 514.577 1181.45 312.25L1176.46 312.411C1182.97 514.08 1139.76 638.584 1031.7 713.187C923.304 788.021 749.104 813.116 492.219 814.025L492.237 819.025Z" fill="url(#paint20_linear_76_843)"/>
<defs>
<filter id="filter0_f_76_843" x="0" y="-229" width="1759" height="1759" filterUnits="userSpaceOnUse" color-interpolation-filters="sRGB">
<feFlood flood-opacity="0" result="BackgroundImageFix"/>
<feBlend mode="normal" in="SourceGraphic" in2="BackgroundImageFix" result="shape"/>
<feGaussianBlur stdDeviation="200" result="effect1_foregroundBlur_76_843"/>
</filter>
<filter id="filter1_f_76_843" x="471.429" y="356.831" width="776" height="506.476" filterUnits="userSpaceOnUse" color-interpolation-filters="sRGB">
<feFlood flood-opacity="0" result="BackgroundImageFix"/>
<feBlend mode="normal" in="SourceGraphic" in2="BackgroundImageFix" result="shape"/>
<feGaussianBlur stdDeviation="9" result="effect1_foregroundBlur_76_843"/>
</filter>
<radialGradient id="paint0_radial_76_843" cx="0" cy="0" r="1" gradientUnits="userSpaceOnUse" gradientTransform="translate(879.5 593.552) rotate(90) scale(494.876)">
<stop stop-color="#FF5800"/>
<stop offset="1" stop-color="#FF5800" stop-opacity="0"/>
</radialGradient>
<linearGradient id="paint1_linear_76_843" x1="1228.94" y1="374.831" x2="488.369" y2="844.402" gradientUnits="userSpaceOnUse">
<stop stop-color="#FF5800"/>
<stop offset="0.0001" stop-color="#FF5800"/>
<stop offset="1" stop-color="#FF5800" stop-opacity="0.28"/>
</linearGradient>
<linearGradient id="paint2_linear_76_843" x1="1228.94" y1="374.831" x2="488.369" y2="844.402" gradientUnits="userSpaceOnUse">
<stop stop-color="#FF5800"/>
<stop offset="0.0001" stop-color="#FF5800"/>
<stop offset="1" stop-color="#FF5800" stop-opacity="0.28"/>
</linearGradient>
<linearGradient id="paint3_linear_76_843" x1="1228.94" y1="374.831" x2="488.369" y2="844.402" gradientUnits="userSpaceOnUse">
<stop stop-color="#FF5800"/>
<stop offset="0.0001" stop-color="#FF5800"/>
<stop offset="1" stop-color="#FF5800" stop-opacity="0.28"/>
</linearGradient>
<linearGradient id="paint4_linear_76_843" x1="1228.94" y1="374.831" x2="488.369" y2="844.402" gradientUnits="userSpaceOnUse">
<stop stop-color="#FF5800"/>
<stop offset="0.0001" stop-color="#FF5800"/>
<stop offset="1" stop-color="#FF5800" stop-opacity="0.28"/>
</linearGradient>
<linearGradient id="paint5_linear_76_843" x1="1228.94" y1="374.831" x2="488.369" y2="844.402" gradientUnits="userSpaceOnUse">
<stop stop-color="#FF5800"/>
<stop offset="0.0001" stop-color="#FF5800"/>
<stop offset="1" stop-color="#FF5800" stop-opacity="0.28"/>
</linearGradient>
<linearGradient id="paint6_linear_76_843" x1="358" y1="324.266" x2="1358" y2="324.266" gradientUnits="userSpaceOnUse">
<stop stop-color="white" stop-opacity="0"/>
<stop offset="0.546875" stop-color="white"/>
<stop offset="1" stop-color="white" stop-opacity="0"/>
</linearGradient>
<linearGradient id="paint7_linear_76_843" x1="358" y1="849.344" x2="1358" y2="849.344" gradientUnits="userSpaceOnUse">
<stop stop-color="white" stop-opacity="0"/>
<stop offset="0.546875" stop-color="white"/>
<stop offset="1" stop-color="white" stop-opacity="0"/>
</linearGradient>
<linearGradient id="paint8_linear_76_843" x1="358" y1="718.911" x2="1358" y2="718.911" gradientUnits="userSpaceOnUse">
<stop stop-color="white" stop-opacity="0"/>
<stop offset="0.546875" stop-color="white"/>
<stop offset="1" stop-color="white" stop-opacity="0"/>
</linearGradient>
<linearGradient id="paint9_linear_76_843" x1="358" y1="456.372" x2="1358" y2="456.372" gradientUnits="userSpaceOnUse">
<stop stop-color="white" stop-opacity="0"/>
<stop offset="0.546875" stop-color="white"/>
<stop offset="1" stop-color="white" stop-opacity="0"/>
</linearGradient>
<linearGradient id="paint10_linear_76_843" x1="483.839" y1="244" x2="483.839" y2="1016.57" gradientUnits="userSpaceOnUse">
<stop stop-color="white" stop-opacity="0"/>
<stop offset="0.546875" stop-color="white"/>
<stop offset="1" stop-color="white" stop-opacity="0"/>
</linearGradient>
<linearGradient id="paint11_linear_76_843" x1="670.081" y1="244" x2="670.081" y2="1016.57" gradientUnits="userSpaceOnUse">
<stop stop-color="white" stop-opacity="0"/>
<stop offset="0.546875" stop-color="white"/>
<stop offset="1" stop-color="white" stop-opacity="0"/>
</linearGradient>
<linearGradient id="paint12_linear_76_843" x1="856.322" y1="244" x2="856.322" y2="1016.57" gradientUnits="userSpaceOnUse">
<stop stop-color="white" stop-opacity="0"/>
<stop offset="0.546875" stop-color="white"/>
<stop offset="1" stop-color="white" stop-opacity="0"/>
</linearGradient>
<linearGradient id="paint13_linear_76_843" x1="1044.24" y1="244" x2="1044.24" y2="1016.57" gradientUnits="userSpaceOnUse">
<stop stop-color="white" stop-opacity="0"/>
<stop offset="0.546875" stop-color="white"/>
<stop offset="1" stop-color="white" stop-opacity="0"/>
</linearGradient>
<linearGradient id="paint14_linear_76_843" x1="1232.16" y1="244" x2="1232.16" y2="1016.57" gradientUnits="userSpaceOnUse">
<stop stop-color="white" stop-opacity="0"/>
<stop offset="0.546875" stop-color="white"/>
<stop offset="1" stop-color="white" stop-opacity="0"/>
</linearGradient>
<linearGradient id="paint15_linear_76_843" x1="1228.81" y1="375.25" x2="488.873" y2="845.048" gradientUnits="userSpaceOnUse">
<stop stop-color="#FF5800"/>
<stop offset="0.0001" stop-color="#FF5800"/>
<stop offset="1" stop-color="#4A1A00"/>
</linearGradient>
<linearGradient id="paint16_linear_76_843" x1="1228.81" y1="375.25" x2="488.873" y2="845.048" gradientUnits="userSpaceOnUse">
<stop stop-color="#FF5800"/>
<stop offset="0.0001" stop-color="#FF5800"/>
<stop offset="1" stop-color="#4A1A00"/>
</linearGradient>
<linearGradient id="paint17_linear_76_843" x1="1228.81" y1="375.25" x2="488.873" y2="845.048" gradientUnits="userSpaceOnUse">
<stop stop-color="#FF5800"/>
<stop offset="0.0001" stop-color="#FF5800"/>
<stop offset="1" stop-color="#4A1A00"/>
</linearGradient>
<linearGradient id="paint18_linear_76_843" x1="1228.81" y1="375.25" x2="488.873" y2="845.048" gradientUnits="userSpaceOnUse">
<stop stop-color="#FF5800"/>
<stop offset="0.0001" stop-color="#FF5800"/>
<stop offset="1" stop-color="#4A1A00"/>
</linearGradient>
<linearGradient id="paint19_linear_76_843" x1="1228.81" y1="375.25" x2="488.873" y2="845.048" gradientUnits="userSpaceOnUse">
<stop stop-color="#FF5800"/>
<stop offset="0.0001" stop-color="#FF5800"/>
<stop offset="1" stop-color="#4A1A00"/>
</linearGradient>
<linearGradient id="paint20_linear_76_843" x1="525.785" y1="913.84" x2="1000.61" y2="1050.16" gradientUnits="userSpaceOnUse">
<stop offset="0.0079582" stop-color="white" stop-opacity="0.01"/>
<stop offset="0.0858824" stop-color="white" stop-opacity="0"/>
<stop offset="0.506192" stop-color="white" stop-opacity="0.09"/>
<stop offset="1" stop-color="white"/>
</linearGradient>
</defs>
</svg>
