<svg width="61" height="61" fill="none" xmlns="http://www.w3.org/2000/svg"><g clip-path="url(#a)"><g clip-path="url(#b)"><g clip-path="url(#c)" stroke="#F7931E" stroke-width="3.832" stroke-linecap="round" stroke-linejoin="round"><path opacity=".4" d="M39.397 30.394a9.137 9.137 0 0 1-9.147 9.147 9.137 9.137 0 0 1-9.146-9.147 9.137 9.137 0 0 1 9.146-9.146 9.137 9.137 0 0 1 9.147 9.146Z"/><path d="M30.25 51.524c9.019 0 17.425-5.314 23.275-14.512 2.3-3.602 2.3-9.658 0-13.26C47.675 14.554 39.27 9.24 30.25 9.24c-9.019 0-17.425 5.314-23.275 14.512-2.3 3.602-2.3 9.658 0 13.26 5.85 9.198 14.256 14.512 23.275 14.512Z"/></g></g></g><defs><clipPath id="a"><path fill="#fff" transform="translate(3.25 7.28)" d="M0 0h54v47H0z"/></clipPath><clipPath id="b"><path fill="#fff" transform="translate(3.25 7.28)" d="M0 0h54v47H0z"/></clipPath><clipPath id="c"><path fill="#fff" transform="translate(3.25 7.28)" d="M0 0h54v47H0z"/></clipPath></defs></svg>