<svg width="65" height="66" fill="none" xmlns="http://www.w3.org/2000/svg"><g clip-path="url(#a)"><g clip-path="url(#b)"><g clip-path="url(#c)" stroke="#F7931E" stroke-width="4.429" stroke-linecap="round" stroke-linejoin="round"><g opacity=".4"><path d="M20.967 31.038c0 2.274 1.771 4.134 3.927 4.134h4.43c1.89 0 3.425-1.624 3.425-3.603 0-2.155-.945-2.923-2.333-3.425l-7.087-2.48c-1.417-.502-2.362-1.27-2.362-3.426 0-1.978 1.535-3.602 3.425-3.602h4.43c2.185.03 3.956 1.86 3.956 4.134M26.872 35.318v2.186M26.872 16.303v2.303"/></g><path d="M26.843 50.467c13.03 0 23.594-10.563 23.594-23.594 0-13.03-10.563-23.593-23.594-23.593-13.03 0-23.593 10.563-23.593 23.593s10.563 23.594 23.593 23.594Z"/><path opacity=".4" d="M35.674 56.077c2.657 3.75 6.998 6.202 11.959 6.202 8.061 0 14.617-6.556 14.617-14.617 0-4.902-2.422-9.243-6.113-11.9"/></g></g></g><defs><clipPath id="a"><path fill="#fff" transform="translate(.75 .28)" d="M0 0h64v65H0z"/></clipPath><clipPath id="b"><path fill="#fff" transform="translate(.75 .28)" d="M0 0h64v65H0z"/></clipPath><clipPath id="c"><path fill="#fff" transform="translate(.75 .28)" d="M0 0h64v65H0z"/></clipPath></defs></svg>