<svg width="2505" height="2037" fill="none" xmlns="http://www.w3.org/2000/svg"><g clip-path="url(#a)"><g opacity=".18" filter="url(#b)"><circle cx="1225.44" cy="1156.5" r="785.793" fill="url(#c)"/></g><g opacity=".3"><path stroke="url(#d)" d="M-259 654.731h3024"/><path stroke="url(#e)" d="M-259 1518.73h3024"/><path stroke="url(#f)" d="M-259 1302.73h3024"/><path stroke="url(#g)" d="M-259 870.731h3024"/><path stroke="url(#h)" d="M332.893 300.693V2012.31"/><path stroke="url(#i)" d="M639.762 300.693V2012.31"/><path stroke="url(#j)" d="M946.631 300.693V2012.31"/><path stroke="url(#k)" d="M1560.37 300.693V2012.31"/><path stroke="url(#l)" d="M1867.24 300.693V2012.31"/><path stroke="url(#m)" d="M2174.11 300.693V2012.31"/></g><circle cx="333.138" cy="1518.49" r="3.724" fill="#D9D9D9" fill-opacity=".5"/><circle cx="640.007" cy="1518.49" r="3.724" fill="#D9D9D9" fill-opacity=".5"/><circle cx="946.876" cy="1518.49" r="3.724" fill="#D9D9D9" fill-opacity=".5"/><circle cx="1253.74" cy="1518.49" r="3.724" fill="#D9D9D9" fill-opacity=".5"/><circle cx="1560.61" cy="1518.49" r="3.724" fill="#D9D9D9" fill-opacity=".5"/><circle cx="1867.48" cy="1518.49" r="3.724" fill="#D9D9D9" fill-opacity=".5"/><circle cx="2174.35" cy="1518.49" r="3.724" fill="#D9D9D9" fill-opacity=".5"/><circle cx="333.138" cy="1302.49" r="3.724" fill="#D9D9D9" fill-opacity=".5"/><circle cx="2174.35" cy="1302.49" r="3.724" fill="#D9D9D9" fill-opacity=".5"/><circle cx="333.138" cy="1086.49" r="3.724" fill="#D9D9D9" fill-opacity=".5"/><circle cx="2174.35" cy="1086.49" r="3.724" fill="#D9D9D9" fill-opacity=".5"/><circle cx="333.138" cy="870.486" r="3.724" fill="#D9D9D9" fill-opacity=".5"/><circle cx="2174.35" cy="870.486" r="3.724" fill="#D9D9D9" fill-opacity=".5"/><circle cx="333.138" cy="654.486" r="3.724" fill="#D9D9D9" fill-opacity=".5"/><circle cx="640.007" cy="654.486" r="3.724" fill="#D9D9D9" fill-opacity=".5"/><circle cx="946.876" cy="654.486" r="3.724" fill="#D9D9D9" fill-opacity=".5"/><circle cx="1253.74" cy="654.486" r="3.724" fill="#D9D9D9" fill-opacity=".5"/><circle cx="1560.61" cy="654.486" r="3.724" fill="#D9D9D9" fill-opacity=".5"/><circle cx="1867.48" cy="654.486" r="3.724" fill="#D9D9D9" fill-opacity=".5"/><circle cx="2174.35" cy="654.486" r="3.724" fill="#D9D9D9" fill-opacity=".5"/><g filter="url(#n)"><rect x="378.573" y="1108.09" width="847.614" height="372.414" rx="24" fill="url(#o)" fill-opacity=".5"/><rect x="379.073" y="1108.59" width="846.614" height="371.414" rx="23.5" stroke="url(#p)"/><g clip-path="url(#q)"><path d="M512.498 1314.23c0 7.18 1.577 12.7 3.639 16.04 2.703 4.37 6.734 6.22 10.844 6.22 5.301 0 10.151-1.31 19.496-14.24 7.487-10.36 16.309-24.9 22.245-34.02l10.052-15.44c6.983-10.73 15.066-22.65 24.333-30.74 7.565-6.59 15.726-10.26 23.94-10.26 13.789 0 26.924 7.99 36.976 22.98 11.001 16.41 16.342 37.09 16.342 58.42 0 12.69-2.5 22.01-6.754 29.37-4.11 7.12-12.121 14.23-25.596 14.23v-20.3c11.538 0 14.418-10.6 14.418-22.73 0-17.29-4.032-36.48-12.913-50.19-6.302-9.73-14.47-15.67-23.455-15.67-9.719 0-17.539 7.33-26.329 20.4-4.672 6.94-9.47 15.4-14.856 24.95l-5.929 10.51c-11.911 21.12-14.928 25.93-20.883 33.86-10.439 13.9-19.353 19.17-31.087 19.17-13.92 0-22.722-6.02-28.174-15.11-4.45-7.4-6.636-17.11-6.636-28.18l20.327.73Z" fill="#FF5800"/><path d="M508.198 1256.2c9.32-14.36 22.769-24.41 38.194-24.41 8.933 0 17.814 2.65 27.088 10.22 10.144 8.28 20.955 21.91 34.443 44.38l4.837 8.06c11.675 19.45 18.318 29.46 22.205 34.18 5 6.06 8.502 7.86 13.05 7.86 11.538 0 14.418-10.6 14.418-22.73l17.931-.57c0 12.69-2.5 22.01-6.753 29.37-4.11 7.12-12.121 14.23-25.596 14.23-8.377 0-15.798-1.82-24.005-9.56-6.309-5.94-13.685-16.5-19.359-25.99l-16.878-28.19c-8.469-14.15-16.237-24.7-20.733-29.48-4.837-5.13-11.054-11.34-20.975-11.34-8.03 0-14.85 5.64-20.557 14.26l-17.31-10.29Z" fill="url(#r)"/><path d="M546.065 1252.23c-8.03 0-14.85 5.64-20.556 14.26-8.07 12.17-13.011 30.32-13.011 47.74 0 7.18 1.577 12.7 3.639 16.04l-17.33 11.41c-4.45-7.4-6.636-17.11-6.636-28.18 0-20.12 5.523-41.1 16.027-57.3 9.32-14.36 22.769-24.41 38.194-24.41l-.327 20.44Z" fill="url(#s)"/><path d="M719.881 1235.75h23.514l39.981 72.33 39.987-72.33h23.003v118.84h-19.181v-91.08l-35.066 63.07h-17.997l-35.059-63.07v91.08h-19.182v-118.84Zm186.59 44.31c-13.756 0-22.042 10.35-24.025 23.17h46.689c-.962-13.2-8.58-23.17-22.664-23.17Zm-43.043 30.48c0-26.98 17.435-46.61 43.377-46.61 25.517 0 40.753 19.38 40.753 48.05v5.26h-65.112c2.311 13.95 11.564 23.35 26.486 23.35 11.904 0 19.345-3.63 26.4-10.28l10.19 12.48c-9.601 8.83-21.813 13.92-37.271 13.92-28.082 0-44.823-20.47-44.823-46.17Zm107.389-28.78H953.16v-15.71h17.657v-25.97h18.508v25.97h26.825v15.71h-26.825v39.81c0 13.59 4.345 18.42 15.025 18.42 4.88 0 7.67-.42 11.8-1.1v15.53c-5.14 1.46-10.05 2.12-15.37 2.12-19.976 0-29.963-10.91-29.963-32.76v-42.02Zm123.263 15.28c-3.71-9.39-12.01-16.3-24.19-16.3-15.84 0-25.98 11.24-25.98 29.54 0 17.85 9.33 29.63 25.22 29.63 12.49 0 21.4-7.27 24.95-16.3v-26.57Zm18.51 57.55h-18.17v-12.39c-5.08 7.3-14.32 14.51-29.28 14.51-24.07 0-40.16-20.15-40.16-46.43 0-26.53 16.47-46.35 41.18-46.35 12.21 0 21.79 4.88 28.26 13.5v-11.38h18.17v88.54Z" fill="#fff"/></g></g><g filter="url(#t)"><rect x="1261.94" y="1108.09" width="847.614" height="372.414" rx="24" fill="url(#u)" fill-opacity=".5"/><rect x="1262.44" y="1108.59" width="846.614" height="371.414" rx="23.5" stroke="url(#v)"/><g clip-path="url(#w)"><path d="M1557.76 1257.87c7.79 5.57 17.34 8.85 27.66 8.85v-19.84c-1.96 0-3.9-.2-5.81-.6v15.61c-10.32 0-19.86-3.28-27.66-8.85v40.49c0 20.25-16.43 36.66-36.69 36.66a36.5 36.5 0 0 1-20.42-6.2c6.66 6.81 15.95 11.03 26.23 11.03 20.26 0 36.69-16.41 36.69-36.67v-40.48Zm7.16-20.01c-3.98-4.35-6.6-9.97-7.16-16.19v-2.55h-5.51c1.39 7.9 6.11 14.65 12.67 18.74Zm-57.27 70.59a16.758 16.758 0 0 1-3.42-10.15c0-9.27 7.51-16.78 16.78-16.78 1.73 0 3.45.27 5.09.79v-20.28c-1.92-.26-3.86-.38-5.8-.33v15.78c-1.65-.52-3.37-.79-5.1-.78-9.26 0-16.78 7.5-16.78 16.77 0 6.55 3.76 12.22 9.23 14.98Z" fill="#D04800"/><path d="M1551.95 1253.04c7.8 5.57 17.34 8.85 27.66 8.85v-15.61a27.813 27.813 0 0 1-14.69-8.42c-6.56-4.09-11.28-10.84-12.67-18.74h-14.46v79.23c-.03 9.24-7.53 16.72-16.78 16.72-5.45 0-10.29-2.6-13.36-6.62-5.47-2.76-9.23-8.43-9.23-14.98 0-9.26 7.52-16.77 16.78-16.77 1.78 0 3.49.27 5.1.78v-15.78c-19.91.41-35.92 16.66-35.92 36.65 0 9.98 3.99 19.03 10.46 25.64a36.5 36.5 0 0 0 20.42 6.2c20.26 0 36.69-16.41 36.69-36.66v-40.49Z" fill="#FF5800"/><path d="M1579.61 1246.28v-4.23c-5.19.01-10.28-1.44-14.69-4.19a27.77 27.77 0 0 0 14.69 8.42Zm-27.36-27.16a28.4 28.4 0 0 1-.3-2.28v-2.55h-19.97v79.24c-.03 9.23-7.53 16.71-16.78 16.71-2.71 0-5.28-.64-7.55-1.79 3.07 4.02 7.91 6.62 13.36 6.62 9.25 0 16.75-7.48 16.78-16.72v-79.23h14.46Zm-31.95 42.58v-4.5c-1.67-.23-3.35-.34-5.04-.34-20.26 0-36.68 16.42-36.68 36.67 0 12.69 6.45 23.88 16.26 30.46-6.47-6.61-10.46-15.66-10.46-25.64 0-19.99 16.01-36.24 35.92-36.65Z" fill="#FF7D38"/><path d="M1810.93 1313.59c14.49 0 26.25-11.66 26.25-26.03 0-14.38-11.76-26.04-26.25-26.04h-3.96c14.5 0 26.25 11.66 26.25 26.04 0 14.37-11.75 26.03-26.25 26.03h3.96Z" fill="#D04800"/><path d="M1806.61 1261.52h-3.95c-14.5 0-26.25 11.66-26.25 26.04 0 14.37 11.75 26.03 26.25 26.03h3.95c-14.5 0-26.25-11.66-26.25-26.03 0-14.38 11.75-26.04 26.25-26.04Z" fill="#FF7D38"/><path d="M1607.05 1249.75v13.2h15.46v50.29h15.46v-49.94h12.59l4.31-13.55h-47.82Zm126.57 0v13.2h15.46v50.29h15.46v-49.94h12.59l4.31-13.55h-47.82Zm-75.87 7.49c0-4.14 3.38-7.49 7.55-7.49s7.55 3.35 7.55 7.49c0 4.13-3.38 7.49-7.55 7.49s-7.55-3.36-7.55-7.49Zm0 12.84h15.1v43.16h-15.1v-43.16Zm21.57-20.33v63.49h15.1v-16.41l4.68-4.28 14.74 21.04h16.18l-21.22-30.67 19.06-18.55h-18.34l-15.1 14.98v-29.6h-15.1Zm162.89 0v63.49h15.1v-16.41l4.68-4.28 14.74 21.04h16.18l-21.21-30.67 19.05-18.55h-18.33l-15.11 14.98v-29.6h-15.1ZM1806.97 1313.59c14.5 0 26.25-11.66 26.25-26.03 0-14.38-11.75-26.04-26.25-26.04h-.36c-14.49 0-26.25 11.66-26.25 26.04 0 14.37 11.76 26.03 26.25 26.03h.36Zm-12.94-26.03c0-7 5.71-12.66 12.76-12.66s12.77 5.66 12.77 12.66c0 6.99-5.72 12.66-12.77 12.66s-12.76-5.67-12.76-12.66Z" fill="#FF5800"/></g><path d="m1645.47 1373.78-4.38-11.27h-14.43l-4.34 11.27h-4.64l14.23-36.56h4.13l14.18 36.56h-4.75Zm-9.84-26.36c-.1-.27-.27-.77-.51-1.48s-.48-1.45-.71-2.19c-.21-.78-.38-1.38-.51-1.79-.17.68-.36 1.38-.56 2.09-.17.68-.36 1.31-.56 1.89-.17.58-.33 1.07-.46 1.48l-4.13 11.01h11.52l-4.08-11.01ZM1664.27 1374.29c-3.4 0-6.12-1.17-8.16-3.52-2.04-2.38-3.06-5.91-3.06-10.6 0-4.69 1.02-8.23 3.06-10.61 2.08-2.41 4.81-3.62 8.21-3.62 1.43 0 2.67.19 3.73.56 1.05.34 1.97.82 2.75 1.43s1.45 1.29 1.99 2.04h.31c-.04-.44-.11-1.09-.21-1.94-.07-.88-.1-1.58-.1-2.09v-10.91h4.49v38.75h-3.62l-.67-3.67h-.2c-.54.78-1.21 1.5-1.99 2.14-.78.62-1.72 1.11-2.8 1.48-1.06.38-2.3.56-3.73.56Zm.72-3.72c2.89 0 4.91-.78 6.07-2.35 1.19-1.59 1.78-3.99 1.78-7.19v-.81c0-3.4-.56-6-1.68-7.8-1.12-1.84-3.2-2.76-6.22-2.76-2.42 0-4.24.97-5.46 2.91-1.19 1.9-1.79 4.47-1.79 7.7 0 3.26.6 5.8 1.79 7.6 1.22 1.8 3.06 2.7 5.51 2.7ZM1703.76 1366.24c0 1.76-.45 3.24-1.33 4.43-.88 1.19-2.14 2.09-3.77 2.7-1.64.62-3.57.92-5.82.92-1.9 0-3.55-.15-4.94-.46-1.36-.3-2.57-.73-3.62-1.27v-4.08c1.08.54 2.39 1.05 3.92 1.53 1.57.44 3.15.66 4.74.66 2.28 0 3.93-.35 4.95-1.07 1.02-.75 1.53-1.73 1.53-2.96 0-.68-.19-1.29-.56-1.83-.37-.55-1.05-1.09-2.04-1.63-.95-.55-2.33-1.16-4.13-1.84-1.77-.68-3.28-1.36-4.54-2.04-1.26-.68-2.23-1.5-2.91-2.45-.68-.95-1.02-2.17-1.02-3.67 0-2.31.94-4.1 2.81-5.35 1.9-1.26 4.38-1.89 7.44-1.89 1.67 0 3.22.17 4.64.51 1.47.31 2.83.75 4.08 1.33l-1.53 3.57c-.74-.34-1.54-.63-2.39-.87-.82-.27-1.65-.48-2.5-.61-.85-.17-1.72-.26-2.6-.26-1.84 0-3.25.31-4.23.92-.96.58-1.43 1.38-1.43 2.4 0 .74.22 1.39.66 1.93.44.51 1.17 1.02 2.19 1.53 1.06.48 2.45 1.06 4.19 1.74 1.73.64 3.21 1.31 4.43 1.99 1.23.68 2.16 1.51 2.81 2.5.64.95.97 2.15.97 3.62Z" fill="#fff"/></g><g filter="url(#x)"><rect x="378.573" y="699.921" width="806.672" height="372.414" rx="24" fill="url(#y)" shape-rendering="crispEdges"/><rect x="379.073" y="700.421" width="805.672" height="371.414" rx="23.5" stroke="#fff" shape-rendering="crispEdges"/><g clip-path="url(#z)" fill="#fff"><path d="M706.672 823.786c-1.225.083-1.994.229-2.098.395-.104.166-.353.228-.664.145-.291-.062-.769 0-1.122.187-.81.416-1.433.416-1.786 0-.229-.291-.624-.332-2.389-.249-1.953.083-2.264.166-3.905.955-2.285 1.101-3.469 1.288-4.279.707-.436-.333-.831-.416-1.641-.374-.582.02-1.122.124-1.205.187-.062.083-.291.145-.478.145-.207 0-.477.145-.623.312-.187.228-.353.249-.664.083-.333-.187-.499-.146-.852.187-.332.353-.478.374-.789.187-.312-.187-.499-.187-.81.02-.354.208-.437.208-.541-.062-.145-.353-.913-.436-.913-.083 0 .187-.416.208-1.454.104-1.371-.125-1.455-.104-1.455.291 0 .228-.083.415-.186.415-.084 0-.52.229-.935.519l-.748.499v-.478c0-.665-.208-.789-.727-.457-.54.353-2.368.395-2.763.083-.207-.166-.353-.145-.623.125-.332.332-.332.374.063.685.394.312.394.312-.104.187-1.35-.353-1.89-.374-2.576-.041-.395.187-.935.332-1.225.332-1.288 0-6.066 1.309-7.021 1.932-.27.187-1.413.581-2.534.893-1.143.312-2.348.769-2.701.997a6.769 6.769 0 0 1-1.516.706c-.457.125-1.018.436-1.226.665-.207.228-.519.415-.706.415-.187 0-.893.27-1.578.624-.686.332-1.392.623-1.579.623-.166 0-.997.519-1.828 1.142-.831.623-1.641 1.143-1.786 1.143-.146 0-.312.145-.395.311-.062.166-.291.312-.499.312-.228 0-.747.27-1.183.623-.437.332-.873.623-.977.623-.394 0-1.765 1.226-2.368 2.119a11.136 11.136 0 0 1-1.142 1.412c-.499.499-1.018 2.057-1.018 3.095 0 .997.706 2.659 1.433 3.344.436.395 1.039 1.101 1.371 1.558.976 1.35 2.638 3.012 3.469 3.448.436.208.935.623 1.122.894.394.623 2.035 1.038 3.386.83.519-.083 1.64-.457 2.492-.851 2.867-1.309 5.608-2.327 7.042-2.638.789-.166 2.305-.748 3.385-1.288 1.496-.748 2.285-1.018 3.386-1.122 1.039-.124 1.849-.374 2.908-.934 2.306-1.205 6.211-2.41 7.54-2.348l1.101.063-.706.893c-.395.478-.769 1.101-.831 1.392-.083.29-.27.685-.457.893-.353.394-.935 1.225-2.16 3.053a43.044 43.044 0 0 1-1.454 2.098c-.353.499-.665 1.226-.748 1.766-.104.768-.228.955-.789 1.225-.499.249-.873.769-1.703 2.368-.582 1.143-1.309 2.264-1.641 2.514-.333.29-.582.685-.582 1.038-.021.332-.312.852-.686 1.226-.353.353-.893 1.287-1.183 2.098-.312.789-.79 1.827-1.081 2.284-.27.457-.664 1.164-.872 1.558-.208.395-.769 1.309-1.246 1.994-.499.707-1.039 1.683-1.205 2.181-.312.914-1.599 3.656-3.324 7.042-.477.976-1.142 2.409-1.433 3.178-.311.789-.748 1.724-.976 2.077-.208.374-.395.852-.395 1.06 0 .228-.457 1.391-1.018 2.596-.56 1.205-1.121 2.596-1.267 3.095-.124.498-.373.955-.54 1.018-.332.124-.394.81-.083.997.353.207.229.519-.187.519-.54 0-2.783 4.113-2.7 4.944.042.353-.436 1.578-1.246 3.261-1.267 2.638-1.724 3.884-2.368 6.439-.166.685-.686 2.326-1.163 3.656-.478 1.329-1.184 3.676-1.579 5.193a420.69 420.69 0 0 0-1.122 4.237c-.207.789-.54 2.534-.727 3.843-.311 2.181-.311 2.721-.021 6.418.167 2.202.395 4.134.52 4.279.104.125.311.727.436 1.33.125.602.415 1.287.623 1.495.249.249.395.686.395 1.143 0 .623.041.706.291.519.228-.187.311-.166.415.104.104.27.312.311 1.059.207.935-.145.935-.145.935.457 0 .831.436 1.143 1.537 1.06.81-.083.893-.042.727.27-.249.457-.249.498.146.872.166.187.54.333.83.333.27 0 .499.083.499.207 0 .104.208.208.478.208s.561.083.685.208c.125.124.395.083.79-.104.727-.395.685-.395.81.104.166.602.56.498.83-.208.146-.374.395-.623.603-.623.665 0 1.038-.935 1.205-3.157.103-1.247.332-2.431.519-2.825.187-.353.436-1.288.54-2.077.104-.769.395-1.849.623-2.41.291-.685.353-1.08.208-1.226-.146-.145-.021-.436.415-.934.52-.582.623-.873.561-1.517-.062-.602-.021-.727.187-.56.208.166.27.02.27-.727 0-.603.104-.977.291-1.039.353-.145 1.786-2.95 1.786-3.51 0-.208.374-1.122.831-2.036.457-.914.831-1.849.831-2.077 0-.249.145-.416.374-.416.332 0 1.121-1.62 1.599-3.282.063-.249.229-.456.333-.456.103 0 .187-.229.187-.52 0-.374.186-.644.623-.893.374-.208.706-.644.851-1.08.457-1.392 2.098-4.466 2.721-5.089.354-.353.831-1.184 1.101-1.87.25-.685 6.585-14.228 14.063-30.118 7.498-15.891 13.667-29.081 13.75-29.33.084-.228.27-.54.416-.665.187-.166.228-.685.166-1.89-.062-1.059-.021-1.661.125-1.661.104 0 .27.249.332.54.208.83.332.498.436-1.226.063-1.246.021-1.599-.228-1.682-.187-.084-.291-.312-.25-.582.084-.706 1.745-1.454 3.241-1.496.644-.02 1.558-.207 2.015-.415.851-.374 13.522-3.78 14.914-3.988.415-.083.768-.063.768.041 0 .104-.581.977-1.288 1.953-1.848 2.576-2.887 4.217-4.092 6.522-.602 1.122-1.35 2.43-1.661 2.908-1.205 1.745-4.321 8.039-4.882 9.825-.124.395-.083.478.27.478.291 0 .437.125.437.395 0 .228.124.457.27.498.124.062-.104.125-.54.125-.603.02-.956.187-1.434.644-.374.374-.581.747-.498.934.062.167.187.457.249.623.083.208.042.312-.125.271-.332-.084-.415.083-2.513 4.715-.935 2.056-1.724 4.05-1.745 4.424-.041.374-.249.976-.478 1.35-.228.353-.477 1.08-.54 1.6-.083.519-.311 1.225-.54 1.557-.228.354-.415.831-.415 1.101 0 .25-.104.644-.249.852-.187.312-.187.54 0 .935.207.436.166.54-.166.644-.499.145-.686.768-.52 1.537.083.415.042.664-.166.789-.353.208-.769.956-.769 1.413 0 .166-.373 1.08-.81 2.035-.997 2.077-1.952 5.048-1.786 5.567.145.415-.852 4.715-1.184 5.11-.312.374-.789 2.368-.789 3.302 0 .457-.125 1.018-.291 1.247-.166.228-.249.623-.187.934.062.333-.042.769-.228 1.081-.229.332-.312.706-.208 1.059.083.353-.021.748-.333 1.267-.249.415-.415.935-.353 1.163.063.229-.02.665-.166.976-.145.312-.374 1.724-.498 3.158-.146 1.433-.395 3.386-.582 4.362-.332 1.807-.228 5.151.374 11.736.623 7 2.243 9.555 6.668 10.593 1.828.436 2.139.395 2.949-.332.976-.852 1.973-2.472 4.881-7.935a346.005 346.005 0 0 1 3.573-6.522c.623-1.039 1.724-2.95 2.472-4.238 1.807-3.115 5.068-8.08 6.418-9.741a28.791 28.791 0 0 0 1.932-2.763c.478-.769 1.537-2.181 2.389-3.116.872-.935 1.766-2.035 2.036-2.43s1.204-1.413 2.077-2.264c.872-.831 1.724-1.849 1.89-2.223.166-.394.436-.706.623-.706s.914-.519 1.599-1.142c.707-.624 1.6-1.288 1.974-1.454.353-.187.664-.437.664-.582 0-.457.312-.748 1.101-1.08.707-.291.79-.291.914 0 .063.208-.145.706-.519 1.225-.353.478-.748 1.351-.872 1.911-.333 1.371-.769 2.306-1.143 2.451-.478.167-.374.54.166.54.437.021.437.021.042.25-.519.291-.727.581-.727 1.038 0 .208-.187.561-.416.79-.228.228-.415.685-.415 1.038s-.436 1.911-.955 3.448c-.52 1.558-.894 3.012-.852 3.241.062.249-.042.664-.27.976-.519.706-1.039 2.638-2.181 8.163-1.558 7.519-1.89 11.653-1.246 15.745.56 3.697.789 4.03 3.676 5.421 3.033 1.434 5.068 1.351 5.899-.27.187-.373.665-2.222 1.039-4.112 1.578-7.852 3.739-15.06 7.353-24.552.81-2.14 1.62-4.529 1.786-5.297.187-.769.499-1.89.707-2.451.436-1.143 1.578-5.11 1.869-6.439.104-.457.436-1.517.727-2.348.291-.83.623-2.222.706-3.115.104-.873.353-2.701.52-4.051.332-2.347.332-2.472-.063-3.219-.54-1.06-2.825-3.178-4.092-3.802-.851-.415-1.329-.498-2.887-.498-1.807 0-1.973.041-4.466 1.101-3.552 1.537-10.552 6.19-11.487 7.685-.103.146-.56.499-1.038.81-1.267.79-3.614 2.929-4.113 3.739-.249.395-.665.81-.935.893-.374.146-.498.354-.498.831 0 .333.104.623.208.623.124 0 .207.104.207.229 0 .145-.249.187-.685.104-.665-.125-.79-.021-3.178 2.409-2.576 2.638-4.944 5.588-6.917 8.704-.644.976-1.558 2.284-2.057 2.908a79.283 79.283 0 0 1-1.412 1.786c-.706.935-1.018.872-.499-.083.229-.436.416-1.08.416-1.454 0-.395.166-.852.395-1.08.249-.25.436-.852.54-1.787.124-1.246.187-1.371.56-1.287.354.103.395.041.291-.374-.104-.374-.021-.561.312-.727.249-.146.374-.374.311-.54-.062-.167.021-.291.167-.291.332 0 .54-.436.54-1.122 0-.249.332-1.122.727-1.973.81-1.703.872-1.994.394-2.181-.311-.125-.311-.187.063-.603.997-1.121 3.738-6.875 4.299-9.014.166-.727.52-1.683.748-2.14.229-.436.415-1.038.415-1.309 0-.29.146-.643.354-.789.498-.436 1.474-2.617 1.641-3.697.083-.519.394-1.33.706-1.787a42.99 42.99 0 0 0 1.225-2.077c.374-.685.894-1.537 1.164-1.869.249-.353.519-.935.581-1.309.229-1.121 2.846-6.356 5.588-11.175a696.68 696.68 0 0 0 3.385-6.003c.437-.81 1.33-2.451 1.995-3.697 1.1-2.036 1.827-3.095 4.32-6.356.478-.603.914-1.33.976-1.6.063-.27.25-.498.416-.498.457 0 .976-.977.976-1.87 0-.914-.602-2.077-2.243-4.279-1.683-2.264-3.282-3.884-4.342-4.403-.519-.27-.955-.623-.955-.769 0-.436-.706-.768-.997-.478-.187.187-.249.125-.249-.29 0-.312-.146-.686-.312-.873-.166-.166-.312-.415-.312-.54 0-.124-.228-.311-.519-.415-.291-.104-.623-.436-.727-.727-.124-.312-.291-.478-.415-.416-.104.063-.457-.062-.769-.29-.332-.229-.935-.478-1.35-.561-.685-.104-.789-.083-.789.249-.021.332-.083.312-.478-.187-.519-.602-1.184-.748-1.184-.249 0 .166-.083.311-.208.311-.104 0-.207-.124-.207-.29 0-.291-.603-.437-3.116-.748-.748-.104-1.87-.27-2.493-.395-1.205-.208-7.104-.665-8.059-.602-.312.02-1.433.083-2.493.145Zm-9.866 21.125c-.187.187-.582-.125-.436-.374.083-.125.207-.125.353.021.124.124.166.27.083.353Zm.166.706c.166.27-.312.27-.727 0-.249-.166-.229-.208.145-.208.25 0 .52.083.582.208Zm16.534 31.843c-.021.249-.311.187-.395-.083-.062-.125.021-.208.167-.166.124.062.228.166.228.249ZM824.925 844.558c-1.683.768-4.695 3.842-6.128 6.252-1.599 2.679-3.095 7.374-2.825 8.869.27 1.434 4.238 4.695 5.733 4.695 1.163 0 5.422-3.781 7.208-6.419.478-.685 1.267-1.744 1.765-2.326.52-.582 1.33-1.849 1.828-2.804.873-1.662.914-1.787.665-2.555-.125-.436-.727-1.537-1.309-2.451-1.163-1.745-2.097-2.493-4.071-3.241-1.371-.519-1.807-.519-2.866-.02ZM779.165 872.641c-2.181 1.911-3.801 3.614-4.196 4.383a25.128 25.128 0 0 1-1.038 1.703c-.873 1.267-4.902 9.202-7.374 14.457-1.849 3.926-2.659 5.774-5.089 11.528-.976 2.306-2.306 4.84-2.929 5.567l-.415.457.145-.519c.062-.291.395-1.039.727-1.662.395-.769.602-1.454.602-2.077 0-1.226.271-2.16 1.371-4.736.499-1.163 1.018-2.576 1.143-3.116.124-.54.727-2.534 1.35-4.445.623-1.89 1.122-3.635 1.122-3.843 0-.207.207-.706.477-1.101.27-.394.79-1.433 1.164-2.285.394-.851.872-1.744 1.08-1.973.519-.581 1.018-1.848 1.018-2.575 0-1.101-2.867-4.404-5.069-5.858-1.267-.831-4.175-2.056-4.881-2.056-.644 0-1.786 1.121-3.012 2.991-1.163 1.744-2.409 4.092-2.409 4.507 0 .125-.167.478-.374.769-1.184 1.724-4.362 9.845-6.585 16.845-1.392 4.383-1.662 5.505-2.098 8.6-.27 1.932-.581 4.05-.706 4.694-.436 2.514-.852 7.125-.852 9.887-.02 4.819.81 10.719 1.683 11.944.935 1.329 5.733 4.258 7.623 4.653.935.208 1.973-.332 3.49-1.849 1.433-1.412 2.264-2.908 2.139-3.842-.083-.499-.021-.624.291-.624.602 0 1.059-.872.789-1.557-.124-.312-.187-.603-.166-.624.042-.02.27-.166.54-.29.249-.125.457-.333.457-.416 0-.104-.208-.228-.457-.311-.457-.125-.457-.146.229-.686.415-.332.955-1.08 1.287-1.849.333-.706.686-1.35.81-1.433.333-.208 1.143-1.911 2.098-4.383 1.06-2.825 3.905-9.679 4.113-9.949.104-.125.748-1.517 1.475-3.116.706-1.599 1.807-3.947 2.451-5.193.665-1.267 1.288-2.492 1.392-2.762.394-.894 5.006-7.852 6.813-10.303 3.219-4.3 6.481-7.395 7.851-7.395.312 0 1.122.395 1.87.914 2.306 1.558 6.169 3.407 8.309 3.947 2.305.581 5.961 1.059 6.854.872.332-.062.602-.083.602-.041 0 .02-.685 1.495-1.537 3.261-1.641 3.469-3.655 8.288-3.655 8.786 0 .166-.229.644-.499 1.059-.291.416-.623 1.288-.748 1.932-.498 2.514-.664 3.157-1.558 6.169-1.038 3.532-1.454 5.318-1.869 8.309-.81 5.65-.976 20.585-.249 22.496.477 1.246 1.288 2.243 2.077 2.534.374.145 1.184.477 1.828.748 2.929 1.246 3.78.477 5.172-4.799.374-1.371.893-3.012 1.184-3.635.27-.623.789-2.181 1.142-3.427.333-1.267.748-2.534.914-2.846.166-.311.291-.748.291-.997 0-.228.083-.415.208-.415.353 0 1.018-1.579 1.246-3.012.125-.769.499-1.953.852-2.638.353-.686 1.038-2.368 1.558-3.76.519-1.391 1.308-3.344 1.765-4.341 1.973-4.32 5.941-15.953 6.211-18.217.104-.872.436-2.305.727-3.199.748-2.305.706-3.718-.125-5.047-.955-1.496-3.448-3.884-4.715-4.528-.602-.312-1.682-.644-2.389-.748-2.471-.374-2.617-.436-3.759-1.579-1.953-1.931-1.911-1.911-6.045-1.786-3.012.083-3.822.042-4.881-.249-2.41-.686-7.603-3.033-9.887-4.487-.54-.332-1.122-.623-1.288-.623-.166 0-.416-.145-.54-.332-.146-.187-.623-.416-1.08-.499a49.035 49.035 0 0 1-1.849-.478 14.141 14.141 0 0 0-2.036-.415c-.955-.125-1.018-.104-2.181.914ZM896.795 873.368c-2.077.374-3.511 1.038-4.611 2.139-.478.457-1.06.852-1.309.852-.561 0-1.662 1.205-1.662 1.807 0 .332-.124.478-.415.478-.249 0-.603.311-.914.81-.291.436-.831.997-1.205 1.225-.623.374-1.579 1.35-4.528 4.508a23.871 23.871 0 0 0-1.371 1.661 43.534 43.534 0 0 1-1.662 2.098c-.581.707-1.682 2.472-2.451 3.947-.789 1.475-1.62 2.908-1.89 3.199-.665.706-2.742 4.237-3.033 5.172-.145.415-.789 1.911-1.433 3.344-2.43 5.359-3.635 9.036-4.133 12.733-.333 2.41-.291 9.368.062 10.635.291 1.06.955 2.784 1.558 4.03.664 1.412 5.899 5.338 9.575 7.187 2.161 1.08 6.003 2.015 8.081 1.973.747-.021 1.537.021 1.744.104.603.249 2.701-.041 2.971-.415.311-.416.498-.395.498.041 0 .312.042.291.416-.041.249-.208.581-.312.831-.25.249.063.83-.02 1.308-.166.478-.166 1.433-.478 2.119-.706 1.973-.644 3.905-1.496 4.362-1.911.228-.208.831-.519 1.308-.685 1.454-.52 2.638-1.454 8.475-6.668 1.62-1.454 5.027-5.567 9.015-10.905 5.006-6.689 5.941-8.454 6.169-11.445.208-2.825-1.018-5.567-3.136-7.021-1.87-1.288-2.784-.997-3.22.997-.311 1.475-1.246 3.427-2.347 4.902-1.163 1.558-6.875 7.623-10.573 11.217-4.279 4.175-7.083 6.48-9.035 7.415-.561.27-1.475.852-2.015 1.267-.561.416-1.143.769-1.33.769-.187 0-1.038.332-1.911.727-2.409 1.08-4.673 1.558-8.059 1.703l-2.929.125-.145-1.621c-.312-3.24.166-8.973.81-9.596.062-.062.685-.208 1.371-.291.852-.125 1.952-.54 3.469-1.308 1.246-.603 2.97-1.371 3.863-1.683 1.143-.415 1.89-.831 2.576-1.475.54-.498 1.142-.914 1.329-.914.208 0 .437-.104.499-.207.124-.208.935-.79 2.347-1.704.415-.249.644-.54.582-.706-.083-.187.041-.291.311-.291.54 0 2.804-1.599 4.466-3.157 1.288-1.205 5.733-5.982 4.944-5.318-.229.208-.52.374-.623.374-.208 0 .768-.81.997-.831.083 0 .56-.436 1.038-.955 2.825-3.053 5.463-7.457 5.775-9.597.083-.685.27-1.412.374-1.641.29-.519.664-3.988.664-5.982 0-1.745-.374-2.7-1.765-4.59-1.018-1.371-1.641-1.87-3.116-2.597-1.433-.685-2.181-.748-3.033-.249-.54.332-.602.332-.955 0-.229-.187-.81-.519-1.35-.769-.52-.228-1.06-.54-1.184-.706-.146-.166-.561-.374-.914-.436-.374-.083-1.06-.332-1.537-.54-1.018-.457-1.828-.478-4.113-.062Zm7.706 9.866c1.246.769 1.226 2.16-.104 4.819-1.059 2.119-4.279 6.252-6.792 8.745-2.202 2.202-2.597 2.534-3.178 2.721-.249.062-.436.27-.436.416 0 .166-.333.54-.727.851-.395.291-.727.665-.727.831 0 .145-.166.312-.395.395-.208.062-.54.291-.748.519-.207.229-.581.415-.831.415-.54 0-1.557.748-1.557 1.143 0 .166-.167.27-.354.249-.477-.021-2.305 1.06-2.617 1.537-.145.229-.353.395-.498.395-.146 0-.27.104-.27.249 0 .125-.042.187-.104.125-.166-.146 1.267-3.344 1.911-4.279.27-.416.872-1.475 1.308-2.347.437-.873 1.039-1.849 1.309-2.181.685-.81 1.849-3.386 1.703-3.822-.062-.208.229-.561.893-1.08 1.247-.935 2.867-3.033 3.158-4.134.166-.623.332-.81.664-.81.354 0 .395-.062.208-.249-.415-.416-.291-.582.457-.582.499 0 .748-.104.831-.374.125-.353 1.35-1.641 3.033-3.136.851-.769 1.038-.852 2.056-.852.769 0 1.329.125 1.807.436Zm.644 18.923c.042.603.021.623-.291.332-.166-.186-.27-.498-.207-.664.207-.54.456-.374.498.332ZM865.097 874.78c-2.057.893-2.493 1.226-4.466 3.303-1.994 2.119-3.49 4.3-5.588 8.226-1.786 3.344-1.931 3.593-3.136 5.213-.457.623-1.163 1.703-1.537 2.389-2.804 5.027-12.442 19.504-11.778 17.718.229-.623 1.621-7.021 2.223-10.24.332-1.724.831-4.155 1.122-5.401.29-1.267.685-3.448.851-4.881.187-1.433.478-3.241.644-4.009.852-4.071-.021-6.73-3.261-9.908-1.412-1.392-2.783-2.223-3.988-2.43-.623-.104-.789 0-1.558.872-.478.54-1.392 2.015-2.056 3.282-.665 1.267-1.641 3.157-2.181 4.196-.54 1.018-.997 2.035-.997 2.264 0 .208-.644 1.848-1.434 3.635-.789 1.786-1.495 3.614-1.578 4.071a7.173 7.173 0 0 1-.561 1.62c-.229.457-.353.997-.312 1.205.063.228.021.395-.062.395-.104 0-.249.623-.312 1.371-.124 1.017-.228 1.329-.436 1.246-.208-.083-.291.083-.291.623 0 .395-.103.935-.228 1.163-.166.333-.166.457.041.582.187.124.104.332-.311.851-.436.52-.54.811-.457 1.268.083.394.021.623-.166.706-.416.166-.499.602-.956 4.756-.457 4.176-.519 6.17-.207 6.772.166.312.145.395-.104.395-.374 0-.416.436-.042.81.208.207.166.311-.145.561-.395.27-.395.29-.021.685.187.229.312.561.228.748-.062.166 0 .54.125.831.187.436.166.581-.145.955-.333.333-.353.499-.167.81.208.291.187.436-.041.623-.353.291-.395.873-.125 1.413.104.187.312 1.288.437 2.43.373 3.469.747 4.861 1.62 6.128.415.623.914 1.142 1.08 1.142.166 0 .831.333 1.454.748.623.395 1.308.789 1.516.872.187.063.353.27.353.437 0 .457 1.309 1.495 2.41 1.911.561.207 1.246.54 1.537.747.291.187 1.371.603 2.389.894 2.222.643 3.074.602 5.047-.333 1.184-.561 1.849-1.122 4.362-3.697 3.905-3.988 5.131-5.525 8.516-10.614 3.054-4.591 3.449-5.235 4.404-7.229.353-.706.956-1.724 1.371-2.264.415-.54 1.059-1.62 1.454-2.41.415-.789 1.62-2.762 2.721-4.382 1.08-1.6 2.223-3.407 2.493-3.968.29-.581.83-1.412 1.204-1.869.374-.457 1.33-1.994 2.14-3.427a128.895 128.895 0 0 1 2.472-4.279c.56-.935 1.121-1.953 1.246-2.285.104-.333.519-1.35.872-2.264 1.351-3.345 1.724-4.695 1.641-6.024-.124-1.641-1.225-4.279-2.285-5.38-.436-.478-.789-.955-.789-1.101 0-.395-1.579-1.641-3.116-2.43-.768-.416-1.454-.748-1.474-.748-.042 0-.79.312-1.662.706Z"/></g></g><g filter="url(#A)"><rect x="1221" y="699.921" width="426.041" height="372.414" rx="24" fill="url(#B)" fill-opacity=".5"/><rect x="1221.5" y="700.421" width="425.041" height="371.414" rx="23.5" stroke="url(#C)"/><path fill-rule="evenodd" clip-rule="evenodd" d="M1521.12 998.11h-174.2c-13.74 0-24.88-11.142-24.88-24.885V799.03c0-13.744 11.14-24.885 24.88-24.885h174.2c13.74 0 24.88 11.141 24.88 24.885v174.195c0 13.743-11.14 24.885-24.88 24.885Zm-39.46-31.106h33.23v-68.275c0-28.887-16.37-42.855-39.24-42.855-22.89 0-32.52 17.82-32.52 17.82v-14.525h-32.03v107.835h32.03v-56.607c0-15.168 6.98-24.193 20.35-24.193 12.28 0 18.18 8.673 18.18 24.193v56.607ZM1353.14 825.15c0 10.989 8.84 19.899 19.75 19.899s19.75-8.91 19.75-19.899-8.84-19.899-19.75-19.899-19.75 8.91-19.75 19.899Zm36.61 141.854h-33.4V859.169h33.4v107.835Z" fill="#FF5800"/></g><g filter="url(#D)"><rect x="1682.79" y="699.921" width="426.041" height="372.414" rx="24" fill="url(#E)" fill-opacity=".5"/><rect x="1683.29" y="700.421" width="425.041" height="371.414" rx="23.5" stroke="url(#F)"/><g clip-path="url(#G)"><path d="M1861.48 774.997c2.08-5.478 4.95-10.522 9.21-14.609 17.04-16.608 45.2-12.435 56.76 8.435 8.69 15.826 17.91 31.304 26.86 46.957 14.95 26 30.07 52 44.85 78.087 12.43 21.826-1.04 49.391-25.73 53.13-15.12 2.261-29.29-4.696-37.11-18.261-13.13-22.869-26.34-45.739-39.47-68.522-.26-.521-.6-.956-.95-1.391-1.39-1.13-2-2.783-2.87-4.261-5.82-10.261-11.82-20.435-17.65-30.609-3.73-6.608-7.64-13.13-11.38-19.739-3.39-5.913-4.96-12.347-4.78-19.13.26-3.478.69-6.957 2.26-10.087Z" fill="#FF5800"/><path d="M1861.48 774.997c-.78 3.13-1.48 6.261-1.65 9.565-.26 7.304 1.56 14.087 5.21 20.435a9651.402 9651.402 0 0 1 28.6 49.478c.87 1.478 1.56 2.957 2.43 4.348-5.21 9.043-10.43 18-15.73 27.043-7.3 12.609-14.6 25.305-21.99 37.913-.35 0-.44-.173-.52-.434-.09-.696.17-1.305.34-2 3.57-13.044.61-24.609-8.34-34.522-5.48-6-12.43-9.391-20.43-10.522-10.43-1.478-19.64 1.218-27.9 7.739-1.48 1.131-2.43 2.783-4.17 3.652-.35 0-.52-.173-.61-.434 4.17-7.218 8.26-14.435 12.43-21.652 17.21-29.914 34.42-59.827 51.72-89.653.17-.347.43-.608.61-.956Z" fill="#D34900"/><path d="M1797.07 887.519c1.65-1.479 3.21-3.044 4.95-4.435 21.12-16.696 52.85-4.609 57.46 21.826 1.13 6.348.52 12.435-1.39 18.522-.09.521-.18.956-.35 1.478-.78 1.391-1.48 2.869-2.35 4.261-7.73 12.782-19.12 19.13-34.07 18.174-17.12-1.218-30.6-14.087-32.94-31.131-1.13-8.261.52-16 4.78-23.13.87-1.565 1.91-2.957 2.87-4.522.43-.348.26-1.043 1.04-1.043Z" fill="#FF7228"/><path d="M1797.07 887.519c-.35.348-.35.956-.96 1.043-.08-.609.26-.956.61-1.391l.35.348Z" fill="#FABC04"/><path d="M1857.74 924.91c-.35-.609 0-1.044.35-1.478.09.087.26.261.35.347l-.7 1.131Z" fill="#E1C025"/><path d="M1804.8 976.562c-9.82 0-17.99 7.913-17.99 17.652 0 9.736 8.17 17.566 17.99 17.566 5.31 0 9.22-1.74 12.35-4.96 3.21-3.21 4.17-7.649 4.17-11.215 0-1.13-.09-2.173-.26-3.043h-16.26v4.783h11.56c-.34 2.695-1.21 4.695-2.6 6.085-1.65 1.65-4.35 3.57-8.96 3.57-7.12 0-12.69-5.74-12.69-12.786 0-7.043 5.57-12.782 12.69-12.782 3.83 0 6.7 1.478 8.7 3.478l3.39-3.391c-2.87-2.783-6.7-4.957-12.09-4.957Zm29.47 12.609c-6.17 0-11.3 4.782-11.3 11.479 0 6.61 5.04 11.48 11.3 11.48 6.26 0 11.3-4.87 11.3-11.48s-5.13-11.479-11.3-11.479Zm0 18.439c-3.39 0-6.34-2.87-6.34-6.96 0-4.088 2.95-6.958 6.34-6.958 3.39 0 6.35 2.783 6.35 6.958 0 4.09-2.96 6.96-6.35 6.96Zm24.51-18.439c-6.26 0-11.3 4.782-11.3 11.479 0 6.61 5.04 11.48 11.3 11.48 6.17 0 11.3-4.87 11.3-11.48s-5.04-11.479-11.3-11.479Zm0 18.439c-3.39 0-6.34-2.87-6.34-6.96 0-4.088 2.95-6.958 6.34-6.958 3.39 0 6.35 2.783 6.35 6.958 0 4.09-2.87 6.96-6.35 6.96Zm24.43-18.439c-5.65 0-10.78 4.956-10.78 11.389 0 6.35 5.13 11.31 10.78 11.31 2.69 0 4.78-1.22 5.91-2.61h.17v1.65c0 4.35-2.26 6.7-6 6.7-3.04 0-4.86-2.18-5.65-4l-4.34 1.82c1.22 3.05 4.52 6.7 9.99 6.7 5.83 0 10.7-3.48 10.7-11.83v-20.347h-4.7v1.826h-.17c-1.13-1.391-3.22-2.608-5.91-2.608Zm.43 18.259c-3.39 0-6.26-2.87-6.26-6.87 0-3.998 2.87-6.955 6.26-6.955 3.39 0 6 2.957 6 6.955 0 4-2.61 6.87-6 6.87Zm14-29.477h4.95v33.567h-4.95v-33.567Zm18.25 11.218c-5.91 0-10.86 4.608-10.86 11.479 0 6.43 4.86 11.48 11.38 11.48 5.3 0 8.35-3.22 9.56-5.05l-3.91-2.6c-1.3 1.91-3.13 3.13-5.65 3.13-2.61 0-4.43-1.13-5.56-3.48l15.38-6.351-.52-1.304c-.95-2.522-3.91-7.304-9.82-7.304Zm-5.91 11.129c-.17-4.434 3.48-6.695 6-6.695 2 0 3.74.957 4.26 2.435l-10.26 4.26Z" fill="#fff"/><path d="m1934.93 1011 11.47-30.525h4.43l11.48 30.525h-4.35l-2.95-8.26h-12.78l-2.96 8.26h-4.34Zm8.6-11.916h10.17l-4.95-13.739h-.18l-5.04 13.739ZM1966.3 1008.48c-1.91-2.18-2.86-4.79-2.86-7.92 0-3.041.95-5.65 2.86-7.911 2-2.174 4.26-3.217 7.05-3.217 1.56 0 2.95.347 4.17.956 1.3.696 2.26 1.478 2.95 2.609h.18l-.18-2.87v-9.652h3.91V1011h-3.73v-2.87h-.18c-.69 1.04-1.65 1.91-2.95 2.61-1.31.69-2.7.95-4.17.95-2.79 0-5.13-1.04-7.05-3.21Zm12.35-2.44c1.3-1.39 1.91-3.22 1.91-5.48 0-2.172-.61-3.998-1.91-5.389-1.22-1.392-2.78-2.087-4.7-2.087-1.91 0-3.47.695-4.69 2.087-1.3 1.391-1.91 3.217-1.91 5.389 0 2.18.61 4 1.91 5.39 1.3 1.39 2.87 2.09 4.69 2.09 1.92.09 3.48-.61 4.7-2ZM2002.46 1009.78c-1.56 1.22-3.56 1.91-5.99 1.91-2.09 0-3.91-.52-5.57-1.65-1.56-1.13-2.69-2.52-3.39-4.35l3.48-1.48c.52 1.22 1.22 2.27 2.26 2.96.96.7 2.09 1.04 3.22 1.04 1.21 0 2.26-.26 3.13-.78.87-.52 1.21-1.22 1.21-1.91 0-1.31-1.04-2.35-3.04-2.96l-3.56-.87c-4.09-1.04-6.09-2.954-6.09-5.911 0-1.913.78-3.391 2.35-4.608 1.56-1.131 3.56-1.739 5.91-1.739 1.83 0 3.48.434 5.04 1.304 1.48.87 2.52 2.087 3.13 3.565l-3.48 1.478a4.87 4.87 0 0 0-1.91-2.086c-.87-.522-1.91-.783-3.04-.783-1.04 0-1.91.261-2.78.783-.78.521-1.22 1.13-1.22 1.913 0 1.217 1.13 2.087 3.39 2.521l3.13.783c4.17 1.043 6.17 3.13 6.17 6.26.09 1.83-.78 3.39-2.35 4.61Z" fill="#757575"/></g></g></g><defs><linearGradient id="d" x1="-259" y1="655.231" x2="2765" y2="655.231" gradientUnits="userSpaceOnUse"><stop stop-color="#fff" stop-opacity="0"/><stop offset=".547" stop-color="#fff"/><stop offset="1" stop-color="#fff" stop-opacity="0"/></linearGradient><linearGradient id="e" x1="-259" y1="1519.23" x2="2765" y2="1519.23" gradientUnits="userSpaceOnUse"><stop stop-color="#fff" stop-opacity="0"/><stop offset=".547" stop-color="#fff"/><stop offset="1" stop-color="#fff" stop-opacity="0"/></linearGradient><linearGradient id="f" x1="-259" y1="1303.23" x2="2765" y2="1303.23" gradientUnits="userSpaceOnUse"><stop stop-color="#fff" stop-opacity="0"/><stop offset=".547" stop-color="#fff"/><stop offset="1" stop-color="#fff" stop-opacity="0"/></linearGradient><linearGradient id="g" x1="-259" y1="871.231" x2="2765" y2="871.231" gradientUnits="userSpaceOnUse"><stop stop-color="#fff" stop-opacity="0"/><stop offset=".547" stop-color="#fff"/><stop offset="1" stop-color="#fff" stop-opacity="0"/></linearGradient><linearGradient id="h" x1="332.393" y1="300.693" x2="332.393" y2="2012.31" gradientUnits="userSpaceOnUse"><stop stop-color="#fff" stop-opacity="0"/><stop offset=".547" stop-color="#fff"/><stop offset="1" stop-color="#fff" stop-opacity="0"/></linearGradient><linearGradient id="i" x1="639.262" y1="300.693" x2="639.262" y2="2012.31" gradientUnits="userSpaceOnUse"><stop stop-color="#fff" stop-opacity="0"/><stop offset=".547" stop-color="#fff"/><stop offset="1" stop-color="#fff" stop-opacity="0"/></linearGradient><linearGradient id="j" x1="946.131" y1="300.693" x2="946.131" y2="2012.31" gradientUnits="userSpaceOnUse"><stop stop-color="#fff" stop-opacity="0"/><stop offset=".547" stop-color="#fff"/><stop offset="1" stop-color="#fff" stop-opacity="0"/></linearGradient><linearGradient id="k" x1="1559.87" y1="300.693" x2="1559.87" y2="2012.31" gradientUnits="userSpaceOnUse"><stop stop-color="#fff" stop-opacity="0"/><stop offset=".547" stop-color="#fff"/><stop offset="1" stop-color="#fff" stop-opacity="0"/></linearGradient><linearGradient id="l" x1="1866.74" y1="300.693" x2="1866.74" y2="2012.31" gradientUnits="userSpaceOnUse"><stop stop-color="#fff" stop-opacity="0"/><stop offset=".547" stop-color="#fff"/><stop offset="1" stop-color="#fff" stop-opacity="0"/></linearGradient><linearGradient id="m" x1="2173.61" y1="300.693" x2="2173.61" y2="2012.31" gradientUnits="userSpaceOnUse"><stop stop-color="#fff" stop-opacity="0"/><stop offset=".547" stop-color="#fff"/><stop offset="1" stop-color="#fff" stop-opacity="0"/></linearGradient><linearGradient id="o" x1="378.573" y1="1108.09" x2="1217.99" y2="1470.82" gradientUnits="userSpaceOnUse"><stop stop-color="#212121" stop-opacity=".3"/><stop offset=".536" stop-color="#212121"/><stop offset="1" stop-color="#212121" stop-opacity="0"/></linearGradient><linearGradient id="r" x1="532.092" y1="1308.36" x2="661.673" y2="1314.91" gradientUnits="userSpaceOnUse"><stop stop-color="#FF5800"/><stop offset=".4" stop-color="#DC4C00"/><stop offset=".83" stop-color="#FF5800"/><stop offset="1" stop-color="#FF5800"/></linearGradient><linearGradient id="s" x1="521.621" y1="1322.76" x2="521.621" y2="1274.99" gradientUnits="userSpaceOnUse"><stop stop-color="#FF5800"/><stop offset="1" stop-color="#F35400"/></linearGradient><linearGradient id="u" x1="1261.94" y1="1108.09" x2="2101.36" y2="1470.82" gradientUnits="userSpaceOnUse"><stop stop-color="#212121" stop-opacity=".3"/><stop offset=".536" stop-color="#212121"/><stop offset="1" stop-color="#212121" stop-opacity="0"/></linearGradient><linearGradient id="y" x1="373.359" y1="693.962" x2="1185.97" y2="1072.33" gradientUnits="userSpaceOnUse"><stop stop-color="#FF5800"/><stop offset=".531" stop-color="#FF5800"/><stop offset="1" stop-color="#FF7B36" stop-opacity=".95"/></linearGradient><linearGradient id="B" x1="1221" y1="699.921" x2="1699.15" y2="803.775" gradientUnits="userSpaceOnUse"><stop stop-color="#212121" stop-opacity=".3"/><stop offset=".536" stop-color="#212121"/><stop offset="1" stop-color="#212121" stop-opacity="0"/></linearGradient><linearGradient id="E" x1="1682.79" y1="699.921" x2="2160.94" y2="803.775" gradientUnits="userSpaceOnUse"><stop stop-color="#212121" stop-opacity=".3"/><stop offset=".536" stop-color="#212121"/><stop offset="1" stop-color="#212121" stop-opacity="0"/></linearGradient><filter id="b" x="-60.352" y="-129.293" width="2571.59" height="2571.59" filterUnits="userSpaceOnUse" color-interpolation-filters="sRGB"><feFlood flood-opacity="0" result="BackgroundImageFix"/><feBlend in="SourceGraphic" in2="BackgroundImageFix" result="shape"/><feGaussianBlur stdDeviation="250" result="effect1_foregroundBlur_76_857"/></filter><filter id="n" x="360.573" y="1090.09" width="883.614" height="408.414" filterUnits="userSpaceOnUse" color-interpolation-filters="sRGB"><feFlood flood-opacity="0" result="BackgroundImageFix"/><feGaussianBlur in="BackgroundImageFix" stdDeviation="9"/><feComposite in2="SourceAlpha" operator="in" result="effect1_backgroundBlur_76_857"/><feBlend in="SourceGraphic" in2="effect1_backgroundBlur_76_857" result="shape"/></filter><filter id="t" x="1243.94" y="1090.09" width="883.614" height="408.414" filterUnits="userSpaceOnUse" color-interpolation-filters="sRGB"><feFlood flood-opacity="0" result="BackgroundImageFix"/><feGaussianBlur in="BackgroundImageFix" stdDeviation="9"/><feComposite in2="SourceAlpha" operator="in" result="effect1_backgroundBlur_76_857"/><feBlend in="SourceGraphic" in2="effect1_backgroundBlur_76_857" result="shape"/></filter><filter id="x" x="328.573" y="649.921" width="906.672" height="472.414" filterUnits="userSpaceOnUse" color-interpolation-filters="sRGB"><feFlood flood-opacity="0" result="BackgroundImageFix"/><feGaussianBlur in="BackgroundImageFix" stdDeviation="25"/><feComposite in2="SourceAlpha" operator="in" result="effect1_backgroundBlur_76_857"/><feColorMatrix in="SourceAlpha" values="0 0 0 0 0 0 0 0 0 0 0 0 0 0 0 0 0 0 127 0" result="hardAlpha"/><feOffset dy="4"/><feGaussianBlur stdDeviation="15"/><feComposite in2="hardAlpha" operator="out"/><feColorMatrix values="0 0 0 0 0 0 0 0 0 0 0 0 0 0 0 0 0 0 0.17 0"/><feBlend in2="effect1_backgroundBlur_76_857" result="effect2_dropShadow_76_857"/><feBlend in="SourceGraphic" in2="effect2_dropShadow_76_857" result="shape"/></filter><filter id="A" x="1203" y="681.921" width="462.041" height="408.414" filterUnits="userSpaceOnUse" color-interpolation-filters="sRGB"><feFlood flood-opacity="0" result="BackgroundImageFix"/><feGaussianBlur in="BackgroundImageFix" stdDeviation="9"/><feComposite in2="SourceAlpha" operator="in" result="effect1_backgroundBlur_76_857"/><feBlend in="SourceGraphic" in2="effect1_backgroundBlur_76_857" result="shape"/></filter><filter id="D" x="1664.79" y="681.921" width="462.041" height="408.414" filterUnits="userSpaceOnUse" color-interpolation-filters="sRGB"><feFlood flood-opacity="0" result="BackgroundImageFix"/><feGaussianBlur in="BackgroundImageFix" stdDeviation="9"/><feComposite in2="SourceAlpha" operator="in" result="effect1_backgroundBlur_76_857"/><feBlend in="SourceGraphic" in2="effect1_backgroundBlur_76_857" result="shape"/></filter><radialGradient id="c" cx="0" cy="0" r="1" gradientUnits="userSpaceOnUse" gradientTransform="rotate(90 81.13 1144.31) scale(810.991)"><stop stop-color="#D9D9D9"/><stop offset="1" stop-color="#D9D9D9" stop-opacity="0"/></radialGradient><radialGradient id="p" cx="0" cy="0" r="1" gradientUnits="userSpaceOnUse" gradientTransform="matrix(0 372.414 -872.058 0 802.38 1108.09)"><stop stop-color="#fff" stop-opacity=".75"/><stop offset=".531" stop-color="#fff" stop-opacity="0"/><stop offset="1" stop-color="#fff" stop-opacity=".15"/></radialGradient><radialGradient id="v" cx="0" cy="0" r="1" gradientUnits="userSpaceOnUse" gradientTransform="matrix(0 372.414 -872.058 0 1685.75 1108.09)"><stop stop-color="#fff" stop-opacity=".75"/><stop offset=".531" stop-color="#fff" stop-opacity="0"/><stop offset="1" stop-color="#fff" stop-opacity=".15"/></radialGradient><radialGradient id="C" cx="0" cy="0" r="1" gradientUnits="userSpaceOnUse" gradientTransform="matrix(0 372.414 -438.328 0 1434.02 699.921)"><stop stop-color="#fff" stop-opacity=".75"/><stop offset=".531" stop-color="#fff" stop-opacity="0"/><stop offset="1" stop-color="#fff" stop-opacity=".15"/></radialGradient><radialGradient id="F" cx="0" cy="0" r="1" gradientUnits="userSpaceOnUse" gradientTransform="matrix(0 372.414 -438.328 0 1895.81 699.921)"><stop stop-color="#fff" stop-opacity=".75"/><stop offset=".531" stop-color="#fff" stop-opacity="0"/><stop offset="1" stop-color="#fff" stop-opacity=".15"/></radialGradient><clipPath id="a"><path fill="#fff" d="M0 0h2505v2037H0z"/></clipPath><clipPath id="q"><path fill="#fff" transform="translate(492.171 1231.79)" d="M0 0h620.419v125H0z"/></clipPath><clipPath id="w"><path fill="#fff" transform="translate(1478.58 1214.29)" d="M0 0h414.338v120.729H0z"/></clipPath><clipPath id="z"><path fill="#fff" transform="translate(639.123 823.627)" d="M0 0h285.572v125H0z"/></clipPath><clipPath id="G"><path fill="#fff" transform="translate(1786.81 750.127)" d="M0 0h218v272H0z"/></clipPath></defs></svg>