<svg width="2505" height="2037" viewBox="0 0 2505 2037" fill="none" xmlns="http://www.w3.org/2000/svg">
<g clip-path="url(#clip0_76_857)">
<g opacity="0.18" filter="url(#filter0_f_76_857)">
<circle cx="1225.44" cy="1156.5" r="785.793" fill="url(#paint0_radial_76_857)"/>
</g>
<g opacity="0.3">
<line x1="-259" y1="654.731" x2="2765" y2="654.731" stroke="url(#paint1_linear_76_857)"/>
<line x1="-259" y1="1518.73" x2="2765" y2="1518.73" stroke="url(#paint2_linear_76_857)"/>
<line x1="-259" y1="1302.73" x2="2765" y2="1302.73" stroke="url(#paint3_linear_76_857)"/>
<line x1="-259" y1="870.731" x2="2765" y2="870.731" stroke="url(#paint4_linear_76_857)"/>
<line x1="332.893" y1="300.693" x2="332.893" y2="2012.31" stroke="url(#paint5_linear_76_857)"/>
<line x1="639.762" y1="300.693" x2="639.762" y2="2012.31" stroke="url(#paint6_linear_76_857)"/>
<line x1="946.631" y1="300.693" x2="946.631" y2="2012.31" stroke="url(#paint7_linear_76_857)"/>
<line x1="1560.37" y1="300.693" x2="1560.37" y2="2012.31" stroke="url(#paint8_linear_76_857)"/>
<line x1="1867.24" y1="300.693" x2="1867.24" y2="2012.31" stroke="url(#paint9_linear_76_857)"/>
<line x1="2174.11" y1="300.693" x2="2174.11" y2="2012.31" stroke="url(#paint10_linear_76_857)"/>
</g>
<circle cx="333.138" cy="1518.49" r="3.72414" fill="#D9D9D9" fill-opacity="0.5"/>
<circle cx="640.007" cy="1518.49" r="3.72414" fill="#D9D9D9" fill-opacity="0.5"/>
<circle cx="946.876" cy="1518.49" r="3.72414" fill="#D9D9D9" fill-opacity="0.5"/>
<circle cx="1253.74" cy="1518.49" r="3.72414" fill="#D9D9D9" fill-opacity="0.5"/>
<circle cx="1560.61" cy="1518.49" r="3.72414" fill="#D9D9D9" fill-opacity="0.5"/>
<circle cx="1867.48" cy="1518.49" r="3.72414" fill="#D9D9D9" fill-opacity="0.5"/>
<circle cx="2174.35" cy="1518.49" r="3.72414" fill="#D9D9D9" fill-opacity="0.5"/>
<circle cx="333.138" cy="1302.49" r="3.72414" fill="#D9D9D9" fill-opacity="0.5"/>
<circle cx="2174.35" cy="1302.49" r="3.72414" fill="#D9D9D9" fill-opacity="0.5"/>
<circle cx="333.138" cy="1086.49" r="3.72414" fill="#D9D9D9" fill-opacity="0.5"/>
<circle cx="2174.35" cy="1086.49" r="3.72414" fill="#D9D9D9" fill-opacity="0.5"/>
<circle cx="333.138" cy="870.486" r="3.72414" fill="#D9D9D9" fill-opacity="0.5"/>
<circle cx="2174.35" cy="870.486" r="3.72414" fill="#D9D9D9" fill-opacity="0.5"/>
<circle cx="333.138" cy="654.486" r="3.72414" fill="#D9D9D9" fill-opacity="0.5"/>
<circle cx="640.007" cy="654.486" r="3.72414" fill="#D9D9D9" fill-opacity="0.5"/>
<circle cx="946.876" cy="654.486" r="3.72414" fill="#D9D9D9" fill-opacity="0.5"/>
<circle cx="1253.74" cy="654.486" r="3.72414" fill="#D9D9D9" fill-opacity="0.5"/>
<circle cx="1560.61" cy="654.486" r="3.72414" fill="#D9D9D9" fill-opacity="0.5"/>
<circle cx="1867.48" cy="654.486" r="3.72414" fill="#D9D9D9" fill-opacity="0.5"/>
<circle cx="2174.35" cy="654.486" r="3.72414" fill="#D9D9D9" fill-opacity="0.5"/>
<g filter="url(#filter1_b_76_857)">
<rect x="378.573" y="1108.09" width="847.614" height="372.414" rx="24" fill="url(#paint11_linear_76_857)" fill-opacity="0.5"/>
<rect x="379.073" y="1108.59" width="846.614" height="371.414" rx="23.5" stroke="url(#paint12_radial_76_857)"/>
<g clip-path="url(#clip1_76_857)">
<path d="M512.498 1314.23C512.498 1321.41 514.075 1326.93 516.137 1330.27C518.84 1334.64 522.871 1336.49 526.981 1336.49C532.282 1336.49 537.132 1335.18 546.477 1322.25C553.964 1311.89 562.786 1297.35 568.722 1288.23L578.774 1272.79C585.757 1262.06 593.84 1250.14 603.107 1242.05C610.672 1235.46 618.833 1231.79 627.047 1231.79C640.836 1231.79 653.971 1239.78 664.023 1254.77C675.024 1271.18 680.365 1291.86 680.365 1313.19C680.365 1325.88 677.865 1335.2 673.611 1342.56C669.501 1349.68 661.49 1356.79 648.015 1356.79V1336.49C659.553 1336.49 662.433 1325.89 662.433 1313.76C662.433 1296.47 658.401 1277.28 649.52 1263.57C643.218 1253.84 635.05 1247.9 626.065 1247.9C616.346 1247.9 608.526 1255.23 599.736 1268.3C595.064 1275.24 590.266 1283.7 584.88 1293.25L578.951 1303.76C567.04 1324.88 564.023 1329.69 558.068 1337.62C547.629 1351.52 538.715 1356.79 526.981 1356.79C513.061 1356.79 504.259 1350.77 498.807 1341.68C494.357 1334.28 492.171 1324.57 492.171 1313.5L512.498 1314.23Z" fill="#FF5800"/>
<path d="M508.198 1256.2C517.518 1241.84 530.967 1231.79 546.392 1231.79C555.325 1231.79 564.206 1234.44 573.48 1242.01C583.624 1250.29 594.435 1263.92 607.923 1286.39L612.76 1294.45C624.435 1313.9 631.078 1323.91 634.965 1328.63C639.965 1334.69 643.467 1336.49 648.015 1336.49C659.553 1336.49 662.433 1325.89 662.433 1313.76L680.364 1313.19C680.364 1325.88 677.864 1335.2 673.611 1342.56C669.501 1349.68 661.49 1356.79 648.015 1356.79C639.638 1356.79 632.217 1354.97 624.01 1347.23C617.701 1341.29 610.325 1330.73 604.651 1321.24L587.773 1293.05C579.304 1278.9 571.536 1268.35 567.04 1263.57C562.203 1258.44 555.986 1252.23 546.065 1252.23C538.035 1252.23 531.215 1257.87 525.508 1266.49L508.198 1256.2Z" fill="url(#paint13_linear_76_857)"/>
<path d="M546.065 1252.23C538.035 1252.23 531.215 1257.87 525.509 1266.49C517.439 1278.66 512.498 1296.81 512.498 1314.23C512.498 1321.41 514.075 1326.93 516.137 1330.27L498.807 1341.68C494.357 1334.28 492.171 1324.57 492.171 1313.5C492.171 1293.38 497.694 1272.4 508.198 1256.2C517.518 1241.84 530.967 1231.79 546.392 1231.79L546.065 1252.23Z" fill="url(#paint14_linear_76_857)"/>
<path d="M719.881 1235.75H743.395L783.376 1308.08L823.363 1235.75H846.366V1354.59H827.185V1263.51L792.119 1326.58H774.122L739.063 1263.51V1354.59H719.881V1235.75ZM906.471 1280.06C892.715 1280.06 884.429 1290.41 882.446 1303.23H929.135C928.173 1290.03 920.555 1280.06 906.471 1280.06ZM863.428 1310.54C863.428 1283.56 880.863 1263.93 906.805 1263.93C932.322 1263.93 947.558 1283.31 947.558 1311.98V1317.24H882.446C884.757 1331.19 894.01 1340.59 908.932 1340.59C920.836 1340.59 928.277 1336.96 935.332 1330.31L945.522 1342.79C935.921 1351.62 923.709 1356.71 908.251 1356.71C880.169 1356.71 863.428 1336.24 863.428 1310.54ZM970.817 1281.76H953.16V1266.05H970.817V1240.08H989.325V1266.05H1016.15V1281.76H989.325V1321.57C989.325 1335.16 993.67 1339.99 1004.35 1339.99C1009.23 1339.99 1012.02 1339.57 1016.15 1338.89V1354.42C1011.01 1355.88 1006.1 1356.54 1000.78 1356.54C980.804 1356.54 970.817 1345.63 970.817 1323.78V1281.76ZM1094.08 1297.04C1090.37 1287.65 1082.07 1280.74 1069.89 1280.74C1054.05 1280.74 1043.91 1291.98 1043.91 1310.28C1043.91 1328.13 1053.24 1339.91 1069.13 1339.91C1081.62 1339.91 1090.53 1332.64 1094.08 1323.61V1297.04ZM1112.59 1354.59H1094.42V1342.2C1089.34 1349.5 1080.1 1356.71 1065.14 1356.71C1041.07 1356.71 1024.98 1336.56 1024.98 1310.28C1024.98 1283.75 1041.45 1263.93 1066.16 1263.93C1078.37 1263.93 1087.95 1268.81 1094.42 1277.43V1266.05H1112.59V1354.59Z" fill="white"/>
</g>
</g>
<g filter="url(#filter2_b_76_857)">
<rect x="1261.94" y="1108.09" width="847.614" height="372.414" rx="24" fill="url(#paint15_linear_76_857)" fill-opacity="0.5"/>
<rect x="1262.44" y="1108.59" width="846.614" height="371.414" rx="23.5" stroke="url(#paint16_radial_76_857)"/>
<g clip-path="url(#clip2_76_857)">
<path d="M1557.76 1257.87C1565.55 1263.44 1575.1 1266.72 1585.42 1266.72V1246.88C1583.46 1246.88 1581.52 1246.68 1579.61 1246.28V1261.89C1569.29 1261.89 1559.75 1258.61 1551.95 1253.04V1293.53C1551.95 1313.78 1535.52 1330.19 1515.26 1330.19C1507.7 1330.19 1500.68 1327.91 1494.84 1323.99C1501.5 1330.8 1510.79 1335.02 1521.07 1335.02C1541.33 1335.02 1557.76 1318.61 1557.76 1298.35V1257.87H1557.76ZM1564.92 1237.86C1560.94 1233.51 1558.32 1227.89 1557.76 1221.67V1219.12H1552.25C1553.64 1227.02 1558.36 1233.77 1564.92 1237.86ZM1507.65 1308.45C1505.43 1305.53 1504.23 1301.97 1504.23 1298.3C1504.23 1289.03 1511.74 1281.52 1521.01 1281.52C1522.74 1281.52 1524.46 1281.79 1526.1 1282.31V1262.03C1524.18 1261.77 1522.24 1261.65 1520.3 1261.7V1277.48C1518.65 1276.96 1516.93 1276.69 1515.2 1276.7C1505.94 1276.7 1498.42 1284.2 1498.42 1293.47C1498.42 1300.02 1502.18 1305.69 1507.65 1308.45Z" fill="#D04800"/>
<path d="M1551.95 1253.04C1559.75 1258.61 1569.29 1261.89 1579.61 1261.89V1246.28C1573.85 1245.05 1568.75 1242.04 1564.92 1237.86C1558.36 1233.77 1553.64 1227.02 1552.25 1219.12H1537.79V1298.35C1537.76 1307.59 1530.26 1315.07 1521.01 1315.07C1515.56 1315.07 1510.72 1312.47 1507.65 1308.45C1502.18 1305.69 1498.42 1300.02 1498.42 1293.47C1498.42 1284.21 1505.94 1276.7 1515.2 1276.7C1516.98 1276.7 1518.69 1276.97 1520.3 1277.48V1261.7C1500.39 1262.11 1484.38 1278.36 1484.38 1298.35C1484.38 1308.33 1488.37 1317.38 1494.84 1323.99C1500.68 1327.91 1507.7 1330.19 1515.26 1330.19C1535.52 1330.19 1551.95 1313.78 1551.95 1293.53V1253.04H1551.95Z" fill="#FF5800"/>
<path d="M1579.61 1246.28V1242.05C1574.42 1242.06 1569.33 1240.61 1564.92 1237.86C1568.82 1242.13 1573.96 1245.07 1579.61 1246.28ZM1552.25 1219.12C1552.12 1218.37 1552.02 1217.61 1551.95 1216.84V1214.29H1531.98V1293.53C1531.95 1302.76 1524.45 1310.24 1515.2 1310.24C1512.49 1310.24 1509.92 1309.6 1507.65 1308.45C1510.72 1312.47 1515.56 1315.07 1521.01 1315.07C1530.26 1315.07 1537.76 1307.59 1537.79 1298.35V1219.12H1552.25ZM1520.3 1261.7V1257.2C1518.63 1256.97 1516.95 1256.86 1515.26 1256.86C1495 1256.86 1478.58 1273.28 1478.58 1293.53C1478.58 1306.22 1485.03 1317.41 1494.84 1323.99C1488.37 1317.38 1484.38 1308.33 1484.38 1298.35C1484.38 1278.36 1500.39 1262.11 1520.3 1261.7Z" fill="#FF7D38"/>
<path d="M1810.93 1313.59C1825.42 1313.59 1837.18 1301.93 1837.18 1287.56C1837.18 1273.18 1825.42 1261.52 1810.93 1261.52H1806.97C1821.47 1261.52 1833.22 1273.18 1833.22 1287.56C1833.22 1301.93 1821.47 1313.59 1806.97 1313.59H1810.93Z" fill="#D04800"/>
<path d="M1806.61 1261.52H1802.66C1788.16 1261.52 1776.41 1273.18 1776.41 1287.56C1776.41 1301.93 1788.16 1313.59 1802.66 1313.59H1806.61C1792.11 1313.59 1780.36 1301.93 1780.36 1287.56C1780.36 1273.18 1792.11 1261.52 1806.61 1261.52Z" fill="#FF7D38"/>
<path d="M1607.05 1249.75V1262.95H1622.51V1313.24H1637.97V1263.3H1650.56L1654.87 1249.75L1607.05 1249.75ZM1733.62 1249.75V1262.95H1749.08V1313.24H1764.54V1263.3H1777.13L1781.44 1249.75L1733.62 1249.75ZM1657.75 1257.24C1657.75 1253.1 1661.13 1249.75 1665.3 1249.75C1669.47 1249.75 1672.85 1253.1 1672.85 1257.24C1672.85 1261.37 1669.47 1264.73 1665.3 1264.73C1661.13 1264.73 1657.75 1261.37 1657.75 1257.24ZM1657.75 1270.08H1672.85V1313.24H1657.75V1270.08ZM1679.32 1249.75V1313.24H1694.42V1296.83L1699.1 1292.55L1713.84 1313.59H1730.02L1708.8 1282.92L1727.86 1264.37H1709.52L1694.42 1279.35V1249.75H1679.32ZM1842.21 1249.75V1313.24H1857.31V1296.83L1861.99 1292.55L1876.73 1313.59H1892.91L1871.7 1282.92L1890.75 1264.37H1872.42L1857.31 1279.35V1249.75H1842.21Z" fill="#FF5800"/>
<path d="M1806.97 1313.59C1821.47 1313.59 1833.22 1301.93 1833.22 1287.56C1833.22 1273.18 1821.47 1261.52 1806.97 1261.52H1806.61C1792.12 1261.52 1780.36 1273.18 1780.36 1287.56C1780.36 1301.93 1792.12 1313.59 1806.61 1313.59H1806.97ZM1794.03 1287.56C1794.03 1280.56 1799.74 1274.9 1806.79 1274.9C1813.84 1274.9 1819.56 1280.56 1819.56 1287.56C1819.56 1294.55 1813.84 1300.22 1806.79 1300.22C1799.74 1300.22 1794.03 1294.55 1794.03 1287.56Z" fill="#FF5800"/>
</g>
<path d="M1645.47 1373.78L1641.09 1362.51H1626.66L1622.32 1373.78H1617.68L1631.91 1337.22H1636.04L1650.22 1373.78H1645.47ZM1635.63 1347.42C1635.53 1347.15 1635.36 1346.65 1635.12 1345.94C1634.88 1345.23 1634.64 1344.49 1634.41 1343.75C1634.2 1342.97 1634.03 1342.37 1633.9 1341.96C1633.73 1342.64 1633.54 1343.34 1633.34 1344.05C1633.17 1344.73 1632.98 1345.36 1632.78 1345.94C1632.61 1346.52 1632.45 1347.01 1632.32 1347.42L1628.19 1358.43H1639.71L1635.63 1347.42Z" fill="white"/>
<path d="M1664.27 1374.29C1660.87 1374.29 1658.15 1373.12 1656.11 1370.77C1654.07 1368.39 1653.05 1364.86 1653.05 1360.17C1653.05 1355.48 1654.07 1351.94 1656.11 1349.56C1658.19 1347.15 1660.92 1345.94 1664.32 1345.94C1665.75 1345.94 1666.99 1346.13 1668.05 1346.5C1669.1 1346.84 1670.02 1347.32 1670.8 1347.93C1671.58 1348.54 1672.25 1349.22 1672.79 1349.97H1673.1C1673.06 1349.53 1672.99 1348.88 1672.89 1348.03C1672.82 1347.15 1672.79 1346.45 1672.79 1345.94V1335.03H1677.28V1373.78H1673.66L1672.99 1370.11H1672.79C1672.25 1370.89 1671.58 1371.61 1670.8 1372.25C1670.02 1372.87 1669.08 1373.36 1668 1373.73C1666.94 1374.11 1665.7 1374.29 1664.27 1374.29ZM1664.99 1370.57C1667.88 1370.57 1669.9 1369.79 1671.06 1368.22C1672.25 1366.63 1672.84 1364.23 1672.84 1361.03V1360.22C1672.84 1356.82 1672.28 1354.22 1671.16 1352.42C1670.04 1350.58 1667.96 1349.66 1664.94 1349.66C1662.52 1349.66 1660.7 1350.63 1659.48 1352.57C1658.29 1354.47 1657.69 1357.04 1657.69 1360.27C1657.69 1363.53 1658.29 1366.07 1659.48 1367.87C1660.7 1369.67 1662.54 1370.57 1664.99 1370.57Z" fill="white"/>
<path d="M1703.76 1366.24C1703.76 1368 1703.31 1369.48 1702.43 1370.67C1701.55 1371.86 1700.29 1372.76 1698.66 1373.37C1697.02 1373.99 1695.09 1374.29 1692.84 1374.29C1690.94 1374.29 1689.29 1374.14 1687.9 1373.83C1686.54 1373.53 1685.33 1373.1 1684.28 1372.56V1368.48C1685.36 1369.02 1686.67 1369.53 1688.2 1370.01C1689.77 1370.45 1691.35 1370.67 1692.94 1370.67C1695.22 1370.67 1696.87 1370.32 1697.89 1369.6C1698.91 1368.85 1699.42 1367.87 1699.42 1366.64C1699.42 1365.96 1699.23 1365.35 1698.86 1364.81C1698.49 1364.26 1697.81 1363.72 1696.82 1363.18C1695.87 1362.63 1694.49 1362.02 1692.69 1361.34C1690.92 1360.66 1689.41 1359.98 1688.15 1359.3C1686.89 1358.62 1685.92 1357.8 1685.24 1356.85C1684.56 1355.9 1684.22 1354.68 1684.22 1353.18C1684.22 1350.87 1685.16 1349.08 1687.03 1347.83C1688.93 1346.57 1691.41 1345.94 1694.47 1345.94C1696.14 1345.94 1697.69 1346.11 1699.11 1346.45C1700.58 1346.76 1701.94 1347.2 1703.19 1347.78L1701.66 1351.35C1700.92 1351.01 1700.12 1350.72 1699.27 1350.48C1698.45 1350.21 1697.62 1350 1696.77 1349.87C1695.92 1349.7 1695.05 1349.61 1694.17 1349.61C1692.33 1349.61 1690.92 1349.92 1689.94 1350.53C1688.98 1351.11 1688.51 1351.91 1688.51 1352.93C1688.51 1353.67 1688.73 1354.32 1689.17 1354.86C1689.61 1355.37 1690.34 1355.88 1691.36 1356.39C1692.42 1356.87 1693.81 1357.45 1695.55 1358.13C1697.28 1358.77 1698.76 1359.44 1699.98 1360.12C1701.21 1360.8 1702.14 1361.63 1702.79 1362.62C1703.43 1363.57 1703.76 1364.77 1703.76 1366.24Z" fill="white"/>
</g>
<g filter="url(#filter3_bd_76_857)">
<rect x="378.573" y="699.921" width="806.672" height="372.414" rx="24" fill="url(#paint17_linear_76_857)" shape-rendering="crispEdges"/>
<rect x="379.073" y="700.421" width="805.672" height="371.414" rx="23.5" stroke="white" shape-rendering="crispEdges"/>
<g clip-path="url(#clip3_76_857)">
<path d="M706.672 823.786C705.447 823.869 704.678 824.015 704.574 824.181C704.47 824.347 704.221 824.409 703.91 824.326C703.619 824.264 703.141 824.326 702.788 824.513C701.978 824.929 701.355 824.929 701.002 824.513C700.773 824.222 700.378 824.181 698.613 824.264C696.66 824.347 696.349 824.43 694.708 825.219C692.423 826.32 691.239 826.507 690.429 825.926C689.993 825.593 689.598 825.51 688.788 825.552C688.206 825.572 687.666 825.676 687.583 825.739C687.521 825.822 687.292 825.884 687.105 825.884C686.898 825.884 686.628 826.029 686.482 826.196C686.295 826.424 686.129 826.445 685.818 826.279C685.485 826.092 685.319 826.133 684.966 826.466C684.634 826.819 684.488 826.84 684.177 826.653C683.865 826.466 683.678 826.466 683.367 826.673C683.013 826.881 682.93 826.881 682.826 826.611C682.681 826.258 681.913 826.175 681.913 826.528C681.913 826.715 681.497 826.736 680.459 826.632C679.088 826.507 679.004 826.528 679.004 826.923C679.004 827.151 678.921 827.338 678.818 827.338C678.734 827.338 678.298 827.567 677.883 827.857L677.135 828.356V827.878C677.135 827.213 676.927 827.089 676.408 827.421C675.868 827.774 674.04 827.816 673.645 827.504C673.438 827.338 673.292 827.359 673.022 827.629C672.69 827.961 672.69 828.003 673.085 828.314C673.479 828.626 673.479 828.626 672.981 828.501C671.631 828.148 671.091 828.127 670.405 828.46C670.01 828.647 669.47 828.792 669.18 828.792C667.892 828.792 663.114 830.101 662.159 830.724C661.889 830.911 660.746 831.305 659.625 831.617C658.482 831.929 657.277 832.386 656.924 832.614C656.55 832.863 655.886 833.175 655.408 833.32C654.951 833.445 654.39 833.756 654.182 833.985C653.975 834.213 653.663 834.4 653.476 834.4C653.289 834.4 652.583 834.67 651.898 835.024C651.212 835.356 650.506 835.647 650.319 835.647C650.153 835.647 649.322 836.166 648.491 836.789C647.66 837.412 646.85 837.932 646.705 837.932C646.559 837.932 646.393 838.077 646.31 838.243C646.248 838.409 646.019 838.555 645.811 838.555C645.583 838.555 645.064 838.825 644.628 839.178C644.191 839.51 643.755 839.801 643.651 839.801C643.257 839.801 641.886 841.027 641.283 841.92C640.951 842.418 640.432 843.041 640.141 843.332C639.642 843.831 639.123 845.389 639.123 846.427C639.123 847.424 639.829 849.086 640.556 849.771C640.992 850.166 641.595 850.872 641.927 851.329C642.903 852.679 644.565 854.341 645.396 854.777C645.832 854.985 646.331 855.4 646.518 855.671C646.912 856.294 648.553 856.709 649.904 856.501C650.423 856.418 651.544 856.044 652.396 855.65C655.263 854.341 658.004 853.323 659.438 853.012C660.227 852.846 661.743 852.264 662.823 851.724C664.319 850.976 665.108 850.706 666.209 850.602C667.248 850.478 668.058 850.228 669.117 849.668C671.423 848.463 675.328 847.258 676.657 847.32L677.758 847.383L677.052 848.276C676.657 848.754 676.283 849.377 676.221 849.668C676.138 849.958 675.951 850.353 675.764 850.561C675.411 850.955 674.829 851.786 673.604 853.614C673.168 854.3 672.503 855.234 672.15 855.712C671.797 856.211 671.485 856.938 671.402 857.478C671.298 858.246 671.174 858.433 670.613 858.703C670.114 858.952 669.74 859.472 668.91 861.071C668.328 862.214 667.601 863.335 667.269 863.585C666.936 863.875 666.687 864.27 666.687 864.623C666.666 864.955 666.375 865.475 666.001 865.849C665.648 866.202 665.108 867.136 664.818 867.947C664.506 868.736 664.028 869.774 663.737 870.231C663.467 870.688 663.073 871.395 662.865 871.789C662.657 872.184 662.096 873.098 661.619 873.783C661.12 874.49 660.58 875.466 660.414 875.964C660.102 876.878 658.815 879.62 657.09 883.006C656.613 883.982 655.948 885.415 655.657 886.184C655.346 886.973 654.909 887.908 654.681 888.261C654.473 888.635 654.286 889.113 654.286 889.321C654.286 889.549 653.829 890.712 653.268 891.917C652.708 893.122 652.147 894.513 652.001 895.012C651.877 895.51 651.628 895.967 651.461 896.03C651.129 896.154 651.067 896.84 651.378 897.027C651.731 897.234 651.607 897.546 651.191 897.546C650.651 897.546 648.408 901.659 648.491 902.49C648.533 902.843 648.055 904.068 647.245 905.751C645.978 908.389 645.521 909.635 644.877 912.19C644.711 912.875 644.191 914.516 643.714 915.846C643.236 917.175 642.53 919.522 642.135 921.039C641.719 922.576 641.221 924.466 641.013 925.276C640.806 926.065 640.473 927.81 640.286 929.119C639.975 931.3 639.975 931.84 640.265 935.537C640.432 937.739 640.66 939.671 640.785 939.816C640.889 939.941 641.096 940.543 641.221 941.146C641.346 941.748 641.636 942.433 641.844 942.641C642.093 942.89 642.239 943.327 642.239 943.784C642.239 944.407 642.28 944.49 642.53 944.303C642.758 944.116 642.841 944.137 642.945 944.407C643.049 944.677 643.257 944.718 644.004 944.614C644.939 944.469 644.939 944.469 644.939 945.071C644.939 945.902 645.375 946.214 646.476 946.131C647.286 946.048 647.369 946.089 647.203 946.401C646.954 946.858 646.954 946.899 647.349 947.273C647.515 947.46 647.889 947.606 648.179 947.606C648.449 947.606 648.678 947.689 648.678 947.813C648.678 947.917 648.886 948.021 649.156 948.021C649.426 948.021 649.717 948.104 649.841 948.229C649.966 948.353 650.236 948.312 650.631 948.125C651.358 947.73 651.316 947.73 651.441 948.229C651.607 948.831 652.001 948.727 652.271 948.021C652.417 947.647 652.666 947.398 652.874 947.398C653.539 947.398 653.912 946.463 654.079 944.241C654.182 942.994 654.411 941.81 654.598 941.416C654.785 941.063 655.034 940.128 655.138 939.339C655.242 938.57 655.533 937.49 655.761 936.929C656.052 936.244 656.114 935.849 655.969 935.703C655.823 935.558 655.948 935.267 656.384 934.769C656.904 934.187 657.007 933.896 656.945 933.252C656.883 932.65 656.924 932.525 657.132 932.692C657.34 932.858 657.402 932.712 657.402 931.965C657.402 931.362 657.506 930.988 657.693 930.926C658.046 930.781 659.479 927.976 659.479 927.416C659.479 927.208 659.853 926.294 660.31 925.38C660.767 924.466 661.141 923.531 661.141 923.303C661.141 923.054 661.286 922.887 661.515 922.887C661.847 922.887 662.636 921.267 663.114 919.605C663.177 919.356 663.343 919.149 663.447 919.149C663.55 919.149 663.634 918.92 663.634 918.629C663.634 918.255 663.82 917.985 664.257 917.736C664.631 917.528 664.963 917.092 665.108 916.656C665.565 915.264 667.206 912.19 667.829 911.567C668.183 911.214 668.66 910.383 668.93 909.697C669.18 909.012 675.515 895.469 682.993 879.579C690.491 863.688 696.66 850.498 696.743 850.249C696.827 850.021 697.013 849.709 697.159 849.584C697.346 849.418 697.387 848.899 697.325 847.694C697.263 846.635 697.304 846.033 697.45 846.033C697.554 846.033 697.72 846.282 697.782 846.573C697.99 847.403 698.114 847.071 698.218 845.347C698.281 844.101 698.239 843.748 697.99 843.665C697.803 843.581 697.699 843.353 697.74 843.083C697.824 842.377 699.485 841.629 700.981 841.587C701.625 841.567 702.539 841.38 702.996 841.172C703.847 840.798 716.518 837.392 717.91 837.184C718.325 837.101 718.678 837.121 718.678 837.225C718.678 837.329 718.097 838.202 717.39 839.178C715.542 841.754 714.503 843.395 713.298 845.7C712.696 846.822 711.948 848.13 711.637 848.608C710.432 850.353 707.316 856.647 706.755 858.433C706.631 858.828 706.672 858.911 707.025 858.911C707.316 858.911 707.462 859.036 707.462 859.306C707.462 859.534 707.586 859.763 707.732 859.804C707.856 859.866 707.628 859.929 707.192 859.929C706.589 859.949 706.236 860.116 705.758 860.573C705.384 860.947 705.177 861.32 705.26 861.507C705.322 861.674 705.447 861.964 705.509 862.13C705.592 862.338 705.551 862.442 705.384 862.401C705.052 862.317 704.969 862.484 702.871 867.116C701.936 869.172 701.147 871.166 701.126 871.54C701.085 871.914 700.877 872.516 700.648 872.89C700.42 873.243 700.171 873.97 700.108 874.49C700.025 875.009 699.797 875.715 699.568 876.047C699.34 876.401 699.153 876.878 699.153 877.148C699.153 877.398 699.049 877.792 698.904 878C698.717 878.312 698.717 878.54 698.904 878.935C699.111 879.371 699.07 879.475 698.738 879.579C698.239 879.724 698.052 880.347 698.218 881.116C698.301 881.531 698.26 881.78 698.052 881.905C697.699 882.113 697.283 882.861 697.283 883.318C697.283 883.484 696.91 884.398 696.473 885.353C695.476 887.43 694.521 890.401 694.687 890.92C694.832 891.335 693.835 895.635 693.503 896.03C693.191 896.404 692.714 898.398 692.714 899.332C692.714 899.789 692.589 900.35 692.423 900.579C692.257 900.807 692.174 901.202 692.236 901.513C692.298 901.846 692.194 902.282 692.008 902.594C691.779 902.926 691.696 903.3 691.8 903.653C691.883 904.006 691.779 904.401 691.467 904.92C691.218 905.335 691.052 905.855 691.114 906.083C691.177 906.312 691.094 906.748 690.948 907.059C690.803 907.371 690.574 908.783 690.45 910.217C690.304 911.65 690.055 913.603 689.868 914.579C689.536 916.386 689.64 919.73 690.242 926.315C690.865 933.315 692.485 935.87 696.91 936.908C698.738 937.344 699.049 937.303 699.859 936.576C700.835 935.724 701.832 934.104 704.74 928.641C706.091 926.107 707.711 923.178 708.313 922.119C708.936 921.08 710.037 919.169 710.785 917.881C712.592 914.766 715.853 909.801 717.203 908.14C717.806 907.392 718.678 906.146 719.135 905.377C719.613 904.608 720.672 903.196 721.524 902.261C722.396 901.326 723.29 900.226 723.56 899.831C723.83 899.436 724.764 898.418 725.637 897.567C726.509 896.736 727.361 895.718 727.527 895.344C727.693 894.95 727.963 894.638 728.15 894.638C728.337 894.638 729.064 894.119 729.749 893.496C730.456 892.872 731.349 892.208 731.723 892.042C732.076 891.855 732.387 891.605 732.387 891.46C732.387 891.003 732.699 890.712 733.488 890.38C734.195 890.089 734.278 890.089 734.402 890.38C734.465 890.588 734.257 891.086 733.883 891.605C733.53 892.083 733.135 892.956 733.011 893.516C732.678 894.887 732.242 895.822 731.868 895.967C731.39 896.134 731.494 896.507 732.034 896.507C732.471 896.528 732.471 896.528 732.076 896.757C731.557 897.048 731.349 897.338 731.349 897.795C731.349 898.003 731.162 898.356 730.933 898.585C730.705 898.813 730.518 899.27 730.518 899.623C730.518 899.976 730.082 901.534 729.563 903.071C729.043 904.629 728.669 906.083 728.711 906.312C728.773 906.561 728.669 906.976 728.441 907.288C727.922 907.994 727.402 909.926 726.26 915.451C724.702 922.97 724.37 927.104 725.014 931.196C725.574 934.893 725.803 935.226 728.69 936.617C731.723 938.051 733.758 937.968 734.589 936.347C734.776 935.974 735.254 934.125 735.628 932.235C737.206 924.383 739.367 917.175 742.981 907.683C743.791 905.543 744.601 903.154 744.767 902.386C744.954 901.617 745.266 900.496 745.474 899.935C745.91 898.792 747.052 894.825 747.343 893.496C747.447 893.039 747.779 891.979 748.07 891.148C748.361 890.318 748.693 888.926 748.776 888.033C748.88 887.16 749.129 885.332 749.296 883.982C749.628 881.635 749.628 881.51 749.233 880.763C748.693 879.703 746.408 877.585 745.141 876.961C744.29 876.546 743.812 876.463 742.254 876.463C740.447 876.463 740.281 876.504 737.788 877.564C734.236 879.101 727.236 883.754 726.301 885.249C726.198 885.395 725.741 885.748 725.263 886.059C723.996 886.849 721.649 888.988 721.15 889.798C720.901 890.193 720.485 890.608 720.215 890.691C719.841 890.837 719.717 891.045 719.717 891.522C719.717 891.855 719.821 892.145 719.925 892.145C720.049 892.145 720.132 892.249 720.132 892.374C720.132 892.519 719.883 892.561 719.447 892.478C718.782 892.353 718.657 892.457 716.269 894.887C713.693 897.525 711.325 900.475 709.352 903.591C708.708 904.567 707.794 905.875 707.295 906.499C706.818 907.122 706.174 907.932 705.883 908.285C705.177 909.22 704.865 909.157 705.384 908.202C705.613 907.766 705.8 907.122 705.8 906.748C705.8 906.353 705.966 905.896 706.195 905.668C706.444 905.418 706.631 904.816 706.735 903.881C706.859 902.635 706.922 902.51 707.295 902.594C707.649 902.697 707.69 902.635 707.586 902.22C707.482 901.846 707.565 901.659 707.898 901.493C708.147 901.347 708.272 901.119 708.209 900.953C708.147 900.786 708.23 900.662 708.376 900.662C708.708 900.662 708.916 900.226 708.916 899.54C708.916 899.291 709.248 898.418 709.643 897.567C710.453 895.864 710.515 895.573 710.037 895.386C709.726 895.261 709.726 895.199 710.1 894.783C711.097 893.662 713.838 887.908 714.399 885.769C714.565 885.042 714.919 884.086 715.147 883.629C715.376 883.193 715.562 882.591 715.562 882.32C715.562 882.03 715.708 881.677 715.916 881.531C716.414 881.095 717.39 878.914 717.557 877.834C717.64 877.315 717.951 876.504 718.263 876.047C718.554 875.59 719.114 874.656 719.488 873.97C719.862 873.285 720.382 872.433 720.652 872.101C720.901 871.748 721.171 871.166 721.233 870.792C721.462 869.671 724.079 864.436 726.821 859.617C728.254 857.104 729.77 854.403 730.206 853.614C730.643 852.804 731.536 851.163 732.201 849.917C733.301 847.881 734.028 846.822 736.521 843.561C736.999 842.958 737.435 842.231 737.497 841.961C737.56 841.691 737.747 841.463 737.913 841.463C738.37 841.463 738.889 840.486 738.889 839.593C738.889 838.679 738.287 837.516 736.646 835.314C734.963 833.05 733.364 831.43 732.304 830.911C731.785 830.641 731.349 830.288 731.349 830.142C731.349 829.706 730.643 829.374 730.352 829.664C730.165 829.851 730.103 829.789 730.103 829.374C730.103 829.062 729.957 828.688 729.791 828.501C729.625 828.335 729.479 828.086 729.479 827.961C729.479 827.837 729.251 827.65 728.96 827.546C728.669 827.442 728.337 827.11 728.233 826.819C728.109 826.507 727.942 826.341 727.818 826.403C727.714 826.466 727.361 826.341 727.049 826.113C726.717 825.884 726.114 825.635 725.699 825.552C725.014 825.448 724.91 825.469 724.91 825.801C724.889 826.133 724.827 826.113 724.432 825.614C723.913 825.012 723.248 824.866 723.248 825.365C723.248 825.531 723.165 825.676 723.04 825.676C722.936 825.676 722.833 825.552 722.833 825.386C722.833 825.095 722.23 824.949 719.717 824.638C718.969 824.534 717.847 824.368 717.224 824.243C716.019 824.035 710.12 823.578 709.165 823.641C708.853 823.661 707.732 823.724 706.672 823.786ZM696.806 844.911C696.619 845.098 696.224 844.786 696.37 844.537C696.453 844.412 696.577 844.412 696.723 844.558C696.847 844.682 696.889 844.828 696.806 844.911ZM696.972 845.617C697.138 845.887 696.66 845.887 696.245 845.617C695.996 845.451 696.016 845.409 696.39 845.409C696.64 845.409 696.91 845.492 696.972 845.617ZM713.506 877.46C713.485 877.709 713.195 877.647 713.111 877.377C713.049 877.252 713.132 877.169 713.278 877.211C713.402 877.273 713.506 877.377 713.506 877.46Z" fill="white"/>
<path d="M824.925 844.558C823.242 845.326 820.23 848.4 818.797 850.81C817.198 853.489 815.702 858.184 815.972 859.679C816.242 861.113 820.21 864.374 821.705 864.374C822.868 864.374 827.127 860.593 828.913 857.955C829.391 857.27 830.18 856.211 830.678 855.629C831.198 855.047 832.008 853.78 832.506 852.825C833.379 851.163 833.42 851.038 833.171 850.27C833.046 849.834 832.444 848.733 831.862 847.819C830.699 846.074 829.765 845.326 827.791 844.578C826.42 844.059 825.984 844.059 824.925 844.558Z" fill="white"/>
<path d="M779.165 872.641C776.984 874.552 775.364 876.255 774.969 877.024C774.741 877.439 774.284 878.208 773.931 878.727C773.058 879.994 769.029 887.929 766.557 893.184C764.708 897.11 763.898 898.958 761.468 904.712C760.492 907.018 759.162 909.552 758.539 910.279L758.124 910.736L758.269 910.217C758.331 909.926 758.664 909.178 758.996 908.555C759.391 907.786 759.598 907.101 759.598 906.478C759.598 905.252 759.869 904.318 760.969 901.742C761.468 900.579 761.987 899.166 762.112 898.626C762.236 898.086 762.839 896.092 763.462 894.181C764.085 892.291 764.584 890.546 764.584 890.338C764.584 890.131 764.791 889.632 765.061 889.237C765.331 888.843 765.851 887.804 766.225 886.952C766.619 886.101 767.097 885.208 767.305 884.979C767.824 884.398 768.323 883.131 768.323 882.404C768.323 881.303 765.456 878 763.254 876.546C761.987 875.715 759.079 874.49 758.373 874.49C757.729 874.49 756.587 875.611 755.361 877.481C754.198 879.225 752.952 881.573 752.952 881.988C752.952 882.113 752.785 882.466 752.578 882.757C751.394 884.481 748.216 892.602 745.993 899.602C744.601 903.985 744.331 905.107 743.895 908.202C743.625 910.134 743.314 912.252 743.189 912.896C742.753 915.41 742.337 920.021 742.337 922.783C742.317 927.602 743.147 933.502 744.02 934.727C744.955 936.056 749.753 938.985 751.643 939.38C752.578 939.588 753.616 939.048 755.133 937.531C756.566 936.119 757.397 934.623 757.272 933.689C757.189 933.19 757.251 933.065 757.563 933.065C758.165 933.065 758.622 932.193 758.352 931.508C758.228 931.196 758.165 930.905 758.186 930.884C758.228 930.864 758.456 930.718 758.726 930.594C758.975 930.469 759.183 930.261 759.183 930.178C759.183 930.074 758.975 929.95 758.726 929.867C758.269 929.742 758.269 929.721 758.955 929.181C759.37 928.849 759.91 928.101 760.242 927.332C760.575 926.626 760.928 925.982 761.052 925.899C761.385 925.691 762.195 923.988 763.15 921.516C764.21 918.691 767.055 911.837 767.263 911.567C767.367 911.442 768.011 910.05 768.738 908.451C769.444 906.852 770.545 904.504 771.189 903.258C771.854 901.991 772.477 900.766 772.581 900.496C772.975 899.602 777.587 892.644 779.394 890.193C782.613 885.893 785.875 882.798 787.245 882.798C787.557 882.798 788.367 883.193 789.115 883.712C791.421 885.27 795.284 887.119 797.424 887.659C799.729 888.24 803.385 888.718 804.278 888.531C804.61 888.469 804.88 888.448 804.88 888.49C804.88 888.51 804.195 889.985 803.343 891.751C801.702 895.22 799.688 900.039 799.688 900.537C799.688 900.703 799.459 901.181 799.189 901.596C798.898 902.012 798.566 902.884 798.441 903.528C797.943 906.042 797.777 906.685 796.883 909.697C795.845 913.229 795.429 915.015 795.014 918.006C794.204 923.656 794.038 938.591 794.765 940.502C795.242 941.748 796.053 942.745 796.842 943.036C797.216 943.181 798.026 943.513 798.67 943.784C801.599 945.03 802.45 944.261 803.842 938.985C804.216 937.614 804.735 935.973 805.026 935.35C805.296 934.727 805.815 933.169 806.168 931.923C806.501 930.656 806.916 929.389 807.082 929.077C807.248 928.766 807.373 928.329 807.373 928.08C807.373 927.852 807.456 927.665 807.581 927.665C807.934 927.665 808.599 926.086 808.827 924.653C808.952 923.884 809.326 922.7 809.679 922.015C810.032 921.329 810.717 919.647 811.237 918.255C811.756 916.864 812.545 914.911 813.002 913.914C814.975 909.594 818.943 897.961 819.213 895.697C819.317 894.825 819.649 893.392 819.94 892.498C820.688 890.193 820.646 888.78 819.815 887.451C818.86 885.955 816.367 883.567 815.1 882.923C814.498 882.611 813.418 882.279 812.711 882.175C810.24 881.801 810.094 881.739 808.952 880.596C806.999 878.665 807.041 878.685 802.907 878.81C799.895 878.893 799.085 878.852 798.026 878.561C795.616 877.875 790.423 875.528 788.139 874.074C787.599 873.742 787.017 873.451 786.851 873.451C786.685 873.451 786.435 873.306 786.311 873.119C786.165 872.932 785.688 872.703 785.231 872.62C784.794 872.516 783.964 872.309 783.382 872.142C782.821 871.976 781.907 871.789 781.346 871.727C780.391 871.602 780.328 871.623 779.165 872.641Z" fill="white"/>
<path d="M896.795 873.368C894.718 873.742 893.284 874.406 892.184 875.507C891.706 875.964 891.124 876.359 890.875 876.359C890.314 876.359 889.213 877.564 889.213 878.166C889.213 878.498 889.089 878.644 888.798 878.644C888.549 878.644 888.195 878.955 887.884 879.454C887.593 879.89 887.053 880.451 886.679 880.679C886.056 881.053 885.1 882.029 882.151 885.187C881.735 885.644 881.112 886.391 880.78 886.848C880.448 887.305 879.7 888.261 879.118 888.946C878.537 889.653 877.436 891.418 876.667 892.893C875.878 894.368 875.047 895.801 874.777 896.092C874.112 896.798 872.035 900.329 871.744 901.264C871.599 901.679 870.955 903.175 870.311 904.608C867.881 909.967 866.676 913.644 866.178 917.341C865.845 919.751 865.887 926.709 866.24 927.976C866.531 929.036 867.195 930.76 867.798 932.006C868.462 933.418 873.697 937.344 877.373 939.193C879.534 940.273 883.376 941.208 885.454 941.166C886.201 941.145 886.991 941.187 887.198 941.27C887.801 941.519 889.899 941.229 890.169 940.855C890.48 940.439 890.667 940.46 890.667 940.896C890.667 941.208 890.709 941.187 891.083 940.855C891.332 940.647 891.664 940.543 891.914 940.605C892.163 940.668 892.744 940.585 893.222 940.439C893.7 940.273 894.655 939.961 895.341 939.733C897.314 939.089 899.246 938.237 899.703 937.822C899.931 937.614 900.534 937.303 901.011 937.137C902.465 936.617 903.649 935.683 909.486 930.469C911.106 929.015 914.513 924.902 918.501 919.564C923.507 912.875 924.442 911.11 924.67 908.119C924.878 905.294 923.652 902.552 921.534 901.098C919.664 899.81 918.75 900.101 918.314 902.095C918.003 903.57 917.068 905.522 915.967 906.997C914.804 908.555 909.092 914.62 905.394 918.214C901.115 922.389 898.311 924.694 896.359 925.629C895.798 925.899 894.884 926.481 894.344 926.896C893.783 927.312 893.201 927.665 893.014 927.665C892.827 927.665 891.976 927.997 891.103 928.392C888.694 929.472 886.43 929.95 883.044 930.095L880.115 930.22L879.97 928.599C879.658 925.359 880.136 919.626 880.78 919.003C880.842 918.941 881.465 918.795 882.151 918.712C883.003 918.587 884.103 918.172 885.62 917.404C886.866 916.801 888.59 916.033 889.483 915.721C890.626 915.306 891.373 914.89 892.059 914.246C892.599 913.748 893.201 913.332 893.388 913.332C893.596 913.332 893.825 913.228 893.887 913.125C894.011 912.917 894.822 912.335 896.234 911.421C896.649 911.172 896.878 910.881 896.816 910.715C896.733 910.528 896.857 910.424 897.127 910.424C897.667 910.424 899.931 908.825 901.593 907.267C902.881 906.062 907.326 901.285 906.537 901.949C906.308 902.157 906.017 902.323 905.914 902.323C905.706 902.323 906.682 901.513 906.911 901.492C906.994 901.492 907.471 901.056 907.949 900.537C910.774 897.484 913.412 893.08 913.724 890.94C913.807 890.255 913.994 889.528 914.098 889.299C914.388 888.78 914.762 885.311 914.762 883.317C914.762 881.572 914.388 880.617 912.997 878.727C911.979 877.356 911.356 876.857 909.881 876.13C908.448 875.445 907.7 875.382 906.848 875.881C906.308 876.213 906.246 876.213 905.893 875.881C905.664 875.694 905.083 875.362 904.543 875.112C904.023 874.884 903.483 874.572 903.359 874.406C903.213 874.24 902.798 874.032 902.445 873.97C902.071 873.887 901.385 873.638 900.908 873.43C899.89 872.973 899.08 872.952 896.795 873.368ZM904.501 883.234C905.747 884.003 905.727 885.394 904.397 888.053C903.338 890.172 900.118 894.305 897.605 896.798C895.403 899 895.008 899.332 894.427 899.519C894.178 899.581 893.991 899.789 893.991 899.935C893.991 900.101 893.658 900.475 893.264 900.786C892.869 901.077 892.537 901.451 892.537 901.617C892.537 901.762 892.371 901.929 892.142 902.012C891.934 902.074 891.602 902.303 891.394 902.531C891.187 902.76 890.813 902.946 890.563 902.946C890.023 902.946 889.006 903.694 889.006 904.089C889.006 904.255 888.839 904.359 888.652 904.338C888.175 904.317 886.347 905.398 886.035 905.875C885.89 906.104 885.682 906.27 885.537 906.27C885.391 906.27 885.267 906.374 885.267 906.519C885.267 906.644 885.225 906.706 885.163 906.644C884.997 906.498 886.43 903.3 887.074 902.365C887.344 901.949 887.946 900.89 888.382 900.018C888.819 899.145 889.421 898.169 889.691 897.837C890.376 897.027 891.54 894.451 891.394 894.015C891.332 893.807 891.623 893.454 892.287 892.935C893.534 892 895.154 889.902 895.445 888.801C895.611 888.178 895.777 887.991 896.109 887.991C896.463 887.991 896.504 887.929 896.317 887.742C895.902 887.326 896.026 887.16 896.774 887.16C897.273 887.16 897.522 887.056 897.605 886.786C897.73 886.433 898.955 885.145 900.638 883.65C901.489 882.881 901.676 882.798 902.694 882.798C903.463 882.798 904.023 882.923 904.501 883.234ZM905.145 902.157C905.187 902.76 905.166 902.78 904.854 902.489C904.688 902.303 904.584 901.991 904.647 901.825C904.854 901.285 905.103 901.451 905.145 902.157Z" fill="white"/>
<path d="M865.097 874.78C863.04 875.673 862.604 876.006 860.631 878.083C858.637 880.202 857.141 882.383 855.043 886.309C853.257 889.653 853.112 889.902 851.907 891.522C851.45 892.145 850.744 893.225 850.37 893.911C847.566 898.938 837.928 913.415 838.592 911.629C838.821 911.006 840.213 904.608 840.815 901.389C841.147 899.665 841.646 897.234 841.937 895.988C842.227 894.721 842.622 892.54 842.788 891.107C842.975 889.674 843.266 887.866 843.432 887.098C844.284 883.027 843.411 880.368 840.171 877.19C838.759 875.798 837.388 874.967 836.183 874.76C835.56 874.656 835.394 874.76 834.625 875.632C834.147 876.172 833.233 877.647 832.569 878.914C831.904 880.181 830.928 882.071 830.388 883.11C829.848 884.128 829.391 885.145 829.391 885.374C829.391 885.582 828.747 887.222 827.957 889.009C827.168 890.795 826.462 892.623 826.379 893.08C826.296 893.516 826.046 894.264 825.818 894.7C825.589 895.157 825.465 895.697 825.506 895.905C825.569 896.133 825.527 896.3 825.444 896.3C825.34 896.3 825.195 896.923 825.132 897.671C825.008 898.688 824.904 899 824.696 898.917C824.488 898.834 824.405 899 824.405 899.54C824.405 899.935 824.302 900.475 824.177 900.703C824.011 901.036 824.011 901.16 824.218 901.285C824.405 901.409 824.322 901.617 823.907 902.136C823.471 902.656 823.367 902.947 823.45 903.404C823.533 903.798 823.471 904.027 823.284 904.11C822.868 904.276 822.785 904.712 822.328 908.866C821.871 913.042 821.809 915.036 822.121 915.638C822.287 915.95 822.266 916.033 822.017 916.033C821.643 916.033 821.601 916.469 821.975 916.843C822.183 917.05 822.141 917.154 821.83 917.404C821.435 917.674 821.435 917.694 821.809 918.089C821.996 918.318 822.121 918.65 822.037 918.837C821.975 919.003 822.037 919.377 822.162 919.668C822.349 920.104 822.328 920.249 822.017 920.623C821.684 920.956 821.664 921.122 821.85 921.433C822.058 921.724 822.037 921.869 821.809 922.056C821.456 922.347 821.414 922.929 821.684 923.469C821.788 923.656 821.996 924.757 822.121 925.899C822.494 929.368 822.868 930.76 823.741 932.027C824.156 932.65 824.655 933.169 824.821 933.169C824.987 933.169 825.652 933.502 826.275 933.917C826.898 934.312 827.583 934.706 827.791 934.789C827.978 934.852 828.144 935.059 828.144 935.226C828.144 935.683 829.453 936.721 830.554 937.137C831.115 937.344 831.8 937.677 832.091 937.884C832.382 938.071 833.462 938.487 834.48 938.778C836.702 939.421 837.554 939.38 839.527 938.445C840.711 937.884 841.376 937.323 843.889 934.748C847.794 930.76 849.02 929.223 852.405 924.134C855.459 919.543 855.854 918.899 856.809 916.905C857.162 916.199 857.765 915.181 858.18 914.641C858.595 914.101 859.239 913.021 859.634 912.231C860.049 911.442 861.254 909.469 862.355 907.849C863.435 906.249 864.578 904.442 864.848 903.881C865.138 903.3 865.678 902.469 866.052 902.012C866.426 901.555 867.382 900.018 868.192 898.585C868.981 897.151 870.103 895.22 870.664 894.306C871.224 893.371 871.785 892.353 871.91 892.021C872.014 891.688 872.429 890.671 872.782 889.757C874.133 886.412 874.506 885.062 874.423 883.733C874.299 882.092 873.198 879.454 872.138 878.353C871.702 877.875 871.349 877.398 871.349 877.252C871.349 876.857 869.77 875.611 868.233 874.822C867.465 874.406 866.779 874.074 866.759 874.074C866.717 874.074 865.969 874.386 865.097 874.78Z" fill="white"/>
</g>
</g>
<g filter="url(#filter4_b_76_857)">
<rect x="1221" y="699.921" width="426.041" height="372.414" rx="24" fill="url(#paint18_linear_76_857)" fill-opacity="0.5"/>
<rect x="1221.5" y="700.421" width="425.041" height="371.414" rx="23.5" stroke="url(#paint19_radial_76_857)"/>
<path fill-rule="evenodd" clip-rule="evenodd" d="M1521.12 998.11H1346.92C1333.18 998.11 1322.04 986.968 1322.04 973.225V799.03C1322.04 785.286 1333.18 774.145 1346.92 774.145H1521.12C1534.86 774.145 1546 785.286 1546 799.03V973.225C1546 986.968 1534.86 998.11 1521.12 998.11ZM1481.66 967.004H1514.89V898.729C1514.89 869.842 1498.52 855.874 1475.65 855.874C1452.76 855.874 1443.13 873.694 1443.13 873.694V859.169H1411.1V967.004H1443.13V910.397C1443.13 895.229 1450.11 886.204 1463.48 886.204C1475.76 886.204 1481.66 894.877 1481.66 910.397V967.004ZM1353.14 825.15C1353.14 836.139 1361.98 845.049 1372.89 845.049C1383.8 845.049 1392.64 836.139 1392.64 825.15C1392.64 814.161 1383.8 805.251 1372.89 805.251C1361.98 805.251 1353.14 814.161 1353.14 825.15ZM1389.75 967.004H1356.35V859.169H1389.75V967.004Z" fill="#FF5800"/>
</g>
<g filter="url(#filter5_b_76_857)">
<rect x="1682.79" y="699.921" width="426.041" height="372.414" rx="24" fill="url(#paint20_linear_76_857)" fill-opacity="0.5"/>
<rect x="1683.29" y="700.421" width="425.041" height="371.414" rx="23.5" stroke="url(#paint21_radial_76_857)"/>
<g clip-path="url(#clip4_76_857)">
<path d="M1861.48 774.997C1863.56 769.519 1866.43 764.475 1870.69 760.388C1887.73 743.78 1915.89 747.953 1927.45 768.823C1936.14 784.649 1945.36 800.127 1954.31 815.78C1969.26 841.78 1984.38 867.78 1999.16 893.867C2011.59 915.693 1998.12 943.258 1973.43 946.997C1958.31 949.258 1944.14 942.301 1936.32 928.736C1923.19 905.867 1909.98 882.997 1896.85 860.214C1896.59 859.693 1896.25 859.258 1895.9 858.823C1894.51 857.693 1893.9 856.04 1893.03 854.562C1887.21 844.301 1881.21 834.127 1875.38 823.953C1871.65 817.345 1867.74 810.823 1864 804.214C1860.61 798.301 1859.04 791.867 1859.22 785.084C1859.48 781.606 1859.91 778.127 1861.48 774.997Z" fill="#FF5800"/>
<path d="M1861.48 774.997C1860.7 778.127 1860 781.258 1859.83 784.562C1859.57 791.866 1861.39 798.649 1865.04 804.997C1874.6 821.432 1884.16 837.953 1893.64 854.475C1894.51 855.953 1895.2 857.432 1896.07 858.823C1890.86 867.866 1885.64 876.823 1880.34 885.866C1873.04 898.475 1865.74 911.171 1858.35 923.779C1858 923.779 1857.91 923.606 1857.83 923.345C1857.74 922.649 1858 922.04 1858.17 921.345C1861.74 908.301 1858.78 896.736 1849.83 886.823C1844.35 880.823 1837.4 877.432 1829.4 876.301C1818.97 874.823 1809.76 877.519 1801.5 884.04C1800.02 885.171 1799.07 886.823 1797.33 887.692C1796.98 887.692 1796.81 887.519 1796.72 887.258C1800.89 880.04 1804.98 872.823 1809.15 865.606C1826.36 835.692 1843.57 805.779 1860.87 775.953C1861.04 775.606 1861.3 775.345 1861.48 774.997Z" fill="#D34900"/>
<path d="M1797.07 887.519C1798.72 886.04 1800.28 884.475 1802.02 883.084C1823.14 866.388 1854.87 878.475 1859.48 904.91C1860.61 911.258 1860 917.345 1858.09 923.432C1858 923.953 1857.91 924.388 1857.74 924.91C1856.96 926.301 1856.26 927.779 1855.39 929.171C1847.66 941.953 1836.27 948.301 1821.32 947.345C1804.2 946.127 1790.72 933.258 1788.38 916.214C1787.25 907.953 1788.9 900.214 1793.16 893.084C1794.03 891.519 1795.07 890.127 1796.03 888.562C1796.46 888.214 1796.29 887.519 1797.07 887.519Z" fill="#FF7228"/>
<path d="M1797.07 887.519C1796.72 887.867 1796.72 888.475 1796.11 888.562C1796.03 887.953 1796.37 887.606 1796.72 887.171L1797.07 887.519Z" fill="#FABC04"/>
<path d="M1857.74 924.91C1857.39 924.301 1857.74 923.866 1858.09 923.432C1858.18 923.519 1858.35 923.693 1858.44 923.779L1857.74 924.91Z" fill="#E1C025"/>
<path d="M1804.8 976.562C1794.98 976.562 1786.81 984.475 1786.81 994.214C1786.81 1003.95 1794.98 1011.78 1804.8 1011.78C1810.11 1011.78 1814.02 1010.04 1817.15 1006.82C1820.36 1003.61 1821.32 999.171 1821.32 995.605C1821.32 994.475 1821.23 993.432 1821.06 992.562H1804.8V997.345H1816.36C1816.02 1000.04 1815.15 1002.04 1813.76 1003.43C1812.11 1005.08 1809.41 1007 1804.8 1007C1797.68 1007 1792.11 1001.26 1792.11 994.214C1792.11 987.171 1797.68 981.432 1804.8 981.432C1808.63 981.432 1811.5 982.91 1813.5 984.91L1816.89 981.519C1814.02 978.736 1810.19 976.562 1804.8 976.562ZM1834.27 989.171C1828.1 989.171 1822.97 993.953 1822.97 1000.65C1822.97 1007.26 1828.01 1012.13 1834.27 1012.13C1840.53 1012.13 1845.57 1007.26 1845.57 1000.65C1845.57 994.04 1840.44 989.171 1834.27 989.171ZM1834.27 1007.61C1830.88 1007.61 1827.93 1004.74 1827.93 1000.65C1827.93 996.562 1830.88 993.692 1834.27 993.692C1837.66 993.692 1840.62 996.475 1840.62 1000.65C1840.62 1004.74 1837.66 1007.61 1834.27 1007.61ZM1858.78 989.171C1852.52 989.171 1847.48 993.953 1847.48 1000.65C1847.48 1007.26 1852.52 1012.13 1858.78 1012.13C1864.95 1012.13 1870.08 1007.26 1870.08 1000.65C1870.08 994.04 1865.04 989.171 1858.78 989.171ZM1858.78 1007.61C1855.39 1007.61 1852.44 1004.74 1852.44 1000.65C1852.44 996.562 1855.39 993.692 1858.78 993.692C1862.17 993.692 1865.13 996.475 1865.13 1000.65C1865.13 1004.74 1862.26 1007.61 1858.78 1007.61ZM1883.21 989.171C1877.56 989.171 1872.43 994.127 1872.43 1000.56C1872.43 1006.91 1877.56 1011.87 1883.21 1011.87C1885.9 1011.87 1887.99 1010.65 1889.12 1009.26H1889.29V1010.91C1889.29 1015.26 1887.03 1017.61 1883.29 1017.61C1880.25 1017.61 1878.43 1015.43 1877.64 1013.61L1873.3 1015.43C1874.52 1018.48 1877.82 1022.13 1883.29 1022.13C1889.12 1022.13 1893.99 1018.65 1893.99 1010.3V989.953H1889.29V991.779H1889.12C1887.99 990.388 1885.9 989.171 1883.21 989.171ZM1883.64 1007.43C1880.25 1007.43 1877.38 1004.56 1877.38 1000.56C1877.38 996.562 1880.25 993.605 1883.64 993.605C1887.03 993.605 1889.64 996.562 1889.64 1000.56C1889.64 1004.56 1887.03 1007.43 1883.64 1007.43ZM1897.64 977.953H1902.59V1011.52H1897.64V977.953ZM1915.89 989.171C1909.98 989.171 1905.03 993.779 1905.03 1000.65C1905.03 1007.08 1909.89 1012.13 1916.41 1012.13C1921.71 1012.13 1924.76 1008.91 1925.97 1007.08L1922.06 1004.48C1920.76 1006.39 1918.93 1007.61 1916.41 1007.61C1913.8 1007.61 1911.98 1006.48 1910.85 1004.13L1926.23 997.779L1925.71 996.475C1924.76 993.953 1921.8 989.171 1915.89 989.171ZM1909.98 1000.3C1909.81 995.866 1913.46 993.605 1915.98 993.605C1917.98 993.605 1919.72 994.562 1920.24 996.04L1909.98 1000.3Z" fill="white"/>
<path d="M1934.93 1011L1946.4 980.475H1950.83L1962.31 1011H1957.96L1955.01 1002.74H1942.23L1939.27 1011H1934.93ZM1943.53 999.084H1953.7L1948.75 985.345H1948.57L1943.53 999.084Z" fill="#757575"/>
<path d="M1966.3 1008.48C1964.39 1006.3 1963.44 1003.69 1963.44 1000.56C1963.44 997.519 1964.39 994.91 1966.3 992.649C1968.3 990.475 1970.56 989.432 1973.35 989.432C1974.91 989.432 1976.3 989.779 1977.52 990.388C1978.82 991.084 1979.78 991.866 1980.47 992.997H1980.65L1980.47 990.127V980.475H1984.38V1011H1980.65V1008.13H1980.47C1979.78 1009.17 1978.82 1010.04 1977.52 1010.74C1976.21 1011.43 1974.82 1011.69 1973.35 1011.69C1970.56 1011.69 1968.22 1010.65 1966.3 1008.48ZM1978.65 1006.04C1979.95 1004.65 1980.56 1002.82 1980.56 1000.56C1980.56 998.388 1979.95 996.562 1978.65 995.171C1977.43 993.779 1975.87 993.084 1973.95 993.084C1972.04 993.084 1970.48 993.779 1969.26 995.171C1967.96 996.562 1967.35 998.388 1967.35 1000.56C1967.35 1002.74 1967.96 1004.56 1969.26 1005.95C1970.56 1007.34 1972.13 1008.04 1973.95 1008.04C1975.87 1008.13 1977.43 1007.43 1978.65 1006.04Z" fill="#757575"/>
<path d="M2002.46 1009.78C2000.9 1011 1998.9 1011.69 1996.47 1011.69C1994.38 1011.69 1992.56 1011.17 1990.9 1010.04C1989.34 1008.91 1988.21 1007.52 1987.51 1005.69L1990.99 1004.21C1991.51 1005.43 1992.21 1006.48 1993.25 1007.17C1994.21 1007.87 1995.34 1008.21 1996.47 1008.21C1997.68 1008.21 1998.73 1007.95 1999.6 1007.43C2000.47 1006.91 2000.81 1006.21 2000.81 1005.52C2000.81 1004.21 1999.77 1003.17 1997.77 1002.56L1994.21 1001.69C1990.12 1000.65 1988.12 998.736 1988.12 995.779C1988.12 993.866 1988.9 992.388 1990.47 991.171C1992.03 990.04 1994.03 989.432 1996.38 989.432C1998.21 989.432 1999.86 989.866 2001.42 990.736C2002.9 991.606 2003.94 992.823 2004.55 994.301L2001.07 995.779C2000.64 994.91 2000.03 994.214 1999.16 993.693C1998.29 993.171 1997.25 992.91 1996.12 992.91C1995.08 992.91 1994.21 993.171 1993.34 993.693C1992.56 994.214 1992.12 994.823 1992.12 995.606C1992.12 996.823 1993.25 997.693 1995.51 998.127L1998.64 998.91C2002.81 999.953 2004.81 1002.04 2004.81 1005.17C2004.9 1007 2004.03 1008.56 2002.46 1009.78Z" fill="#757575"/>
</g>
</g>
</g>
<defs>
<filter id="filter0_f_76_857" x="-60.3516" y="-129.293" width="2571.59" height="2571.59" filterUnits="userSpaceOnUse" color-interpolation-filters="sRGB">
<feFlood flood-opacity="0" result="BackgroundImageFix"/>
<feBlend mode="normal" in="SourceGraphic" in2="BackgroundImageFix" result="shape"/>
<feGaussianBlur stdDeviation="250" result="effect1_foregroundBlur_76_857"/>
</filter>
<filter id="filter1_b_76_857" x="360.573" y="1090.09" width="883.614" height="408.414" filterUnits="userSpaceOnUse" color-interpolation-filters="sRGB">
<feFlood flood-opacity="0" result="BackgroundImageFix"/>
<feGaussianBlur in="BackgroundImageFix" stdDeviation="9"/>
<feComposite in2="SourceAlpha" operator="in" result="effect1_backgroundBlur_76_857"/>
<feBlend mode="normal" in="SourceGraphic" in2="effect1_backgroundBlur_76_857" result="shape"/>
</filter>
<filter id="filter2_b_76_857" x="1243.94" y="1090.09" width="883.614" height="408.414" filterUnits="userSpaceOnUse" color-interpolation-filters="sRGB">
<feFlood flood-opacity="0" result="BackgroundImageFix"/>
<feGaussianBlur in="BackgroundImageFix" stdDeviation="9"/>
<feComposite in2="SourceAlpha" operator="in" result="effect1_backgroundBlur_76_857"/>
<feBlend mode="normal" in="SourceGraphic" in2="effect1_backgroundBlur_76_857" result="shape"/>
</filter>
<filter id="filter3_bd_76_857" x="328.573" y="649.921" width="906.672" height="472.414" filterUnits="userSpaceOnUse" color-interpolation-filters="sRGB">
<feFlood flood-opacity="0" result="BackgroundImageFix"/>
<feGaussianBlur in="BackgroundImageFix" stdDeviation="25"/>
<feComposite in2="SourceAlpha" operator="in" result="effect1_backgroundBlur_76_857"/>
<feColorMatrix in="SourceAlpha" type="matrix" values="0 0 0 0 0 0 0 0 0 0 0 0 0 0 0 0 0 0 127 0" result="hardAlpha"/>
<feOffset dy="4"/>
<feGaussianBlur stdDeviation="15"/>
<feComposite in2="hardAlpha" operator="out"/>
<feColorMatrix type="matrix" values="0 0 0 0 0 0 0 0 0 0 0 0 0 0 0 0 0 0 0.17 0"/>
<feBlend mode="normal" in2="effect1_backgroundBlur_76_857" result="effect2_dropShadow_76_857"/>
<feBlend mode="normal" in="SourceGraphic" in2="effect2_dropShadow_76_857" result="shape"/>
</filter>
<filter id="filter4_b_76_857" x="1203" y="681.921" width="462.041" height="408.414" filterUnits="userSpaceOnUse" color-interpolation-filters="sRGB">
<feFlood flood-opacity="0" result="BackgroundImageFix"/>
<feGaussianBlur in="BackgroundImageFix" stdDeviation="9"/>
<feComposite in2="SourceAlpha" operator="in" result="effect1_backgroundBlur_76_857"/>
<feBlend mode="normal" in="SourceGraphic" in2="effect1_backgroundBlur_76_857" result="shape"/>
</filter>
<filter id="filter5_b_76_857" x="1664.79" y="681.921" width="462.041" height="408.414" filterUnits="userSpaceOnUse" color-interpolation-filters="sRGB">
<feFlood flood-opacity="0" result="BackgroundImageFix"/>
<feGaussianBlur in="BackgroundImageFix" stdDeviation="9"/>
<feComposite in2="SourceAlpha" operator="in" result="effect1_backgroundBlur_76_857"/>
<feBlend mode="normal" in="SourceGraphic" in2="effect1_backgroundBlur_76_857" result="shape"/>
</filter>
<radialGradient id="paint0_radial_76_857" cx="0" cy="0" r="1" gradientUnits="userSpaceOnUse" gradientTransform="translate(1225.44 1063.18) rotate(90) scale(810.991)">
<stop stop-color="#D9D9D9"/>
<stop offset="1" stop-color="#D9D9D9" stop-opacity="0"/>
</radialGradient>
<linearGradient id="paint1_linear_76_857" x1="-259" y1="655.231" x2="2765" y2="655.231" gradientUnits="userSpaceOnUse">
<stop stop-color="white" stop-opacity="0"/>
<stop offset="0.546875" stop-color="white"/>
<stop offset="1" stop-color="white" stop-opacity="0"/>
</linearGradient>
<linearGradient id="paint2_linear_76_857" x1="-259" y1="1519.23" x2="2765" y2="1519.23" gradientUnits="userSpaceOnUse">
<stop stop-color="white" stop-opacity="0"/>
<stop offset="0.546875" stop-color="white"/>
<stop offset="1" stop-color="white" stop-opacity="0"/>
</linearGradient>
<linearGradient id="paint3_linear_76_857" x1="-259" y1="1303.23" x2="2765" y2="1303.23" gradientUnits="userSpaceOnUse">
<stop stop-color="white" stop-opacity="0"/>
<stop offset="0.546875" stop-color="white"/>
<stop offset="1" stop-color="white" stop-opacity="0"/>
</linearGradient>
<linearGradient id="paint4_linear_76_857" x1="-259" y1="871.231" x2="2765" y2="871.231" gradientUnits="userSpaceOnUse">
<stop stop-color="white" stop-opacity="0"/>
<stop offset="0.546875" stop-color="white"/>
<stop offset="1" stop-color="white" stop-opacity="0"/>
</linearGradient>
<linearGradient id="paint5_linear_76_857" x1="332.393" y1="300.693" x2="332.393" y2="2012.31" gradientUnits="userSpaceOnUse">
<stop stop-color="white" stop-opacity="0"/>
<stop offset="0.546875" stop-color="white"/>
<stop offset="1" stop-color="white" stop-opacity="0"/>
</linearGradient>
<linearGradient id="paint6_linear_76_857" x1="639.262" y1="300.693" x2="639.262" y2="2012.31" gradientUnits="userSpaceOnUse">
<stop stop-color="white" stop-opacity="0"/>
<stop offset="0.546875" stop-color="white"/>
<stop offset="1" stop-color="white" stop-opacity="0"/>
</linearGradient>
<linearGradient id="paint7_linear_76_857" x1="946.131" y1="300.693" x2="946.131" y2="2012.31" gradientUnits="userSpaceOnUse">
<stop stop-color="white" stop-opacity="0"/>
<stop offset="0.546875" stop-color="white"/>
<stop offset="1" stop-color="white" stop-opacity="0"/>
</linearGradient>
<linearGradient id="paint8_linear_76_857" x1="1559.87" y1="300.693" x2="1559.87" y2="2012.31" gradientUnits="userSpaceOnUse">
<stop stop-color="white" stop-opacity="0"/>
<stop offset="0.546875" stop-color="white"/>
<stop offset="1" stop-color="white" stop-opacity="0"/>
</linearGradient>
<linearGradient id="paint9_linear_76_857" x1="1866.74" y1="300.693" x2="1866.74" y2="2012.31" gradientUnits="userSpaceOnUse">
<stop stop-color="white" stop-opacity="0"/>
<stop offset="0.546875" stop-color="white"/>
<stop offset="1" stop-color="white" stop-opacity="0"/>
</linearGradient>
<linearGradient id="paint10_linear_76_857" x1="2173.61" y1="300.693" x2="2173.61" y2="2012.31" gradientUnits="userSpaceOnUse">
<stop stop-color="white" stop-opacity="0"/>
<stop offset="0.546875" stop-color="white"/>
<stop offset="1" stop-color="white" stop-opacity="0"/>
</linearGradient>
<linearGradient id="paint11_linear_76_857" x1="378.573" y1="1108.09" x2="1217.99" y2="1470.82" gradientUnits="userSpaceOnUse">
<stop stop-color="#212121" stop-opacity="0.3"/>
<stop offset="0.536458" stop-color="#212121"/>
<stop offset="1" stop-color="#212121" stop-opacity="0"/>
</linearGradient>
<radialGradient id="paint12_radial_76_857" cx="0" cy="0" r="1" gradientUnits="userSpaceOnUse" gradientTransform="translate(802.38 1108.09) rotate(90) scale(372.414 872.058)">
<stop stop-color="white" stop-opacity="0.75"/>
<stop offset="0.53125" stop-color="white" stop-opacity="0"/>
<stop offset="1" stop-color="white" stop-opacity="0.15"/>
</radialGradient>
<linearGradient id="paint13_linear_76_857" x1="532.092" y1="1308.36" x2="661.673" y2="1314.91" gradientUnits="userSpaceOnUse">
<stop stop-color="#FF5800"/>
<stop offset="0.4" stop-color="#DC4C00"/>
<stop offset="0.83" stop-color="#FF5800"/>
<stop offset="1" stop-color="#FF5800"/>
</linearGradient>
<linearGradient id="paint14_linear_76_857" x1="521.621" y1="1322.76" x2="521.621" y2="1274.99" gradientUnits="userSpaceOnUse">
<stop stop-color="#FF5800"/>
<stop offset="1" stop-color="#F35400"/>
</linearGradient>
<linearGradient id="paint15_linear_76_857" x1="1261.94" y1="1108.09" x2="2101.36" y2="1470.82" gradientUnits="userSpaceOnUse">
<stop stop-color="#212121" stop-opacity="0.3"/>
<stop offset="0.536458" stop-color="#212121"/>
<stop offset="1" stop-color="#212121" stop-opacity="0"/>
</linearGradient>
<radialGradient id="paint16_radial_76_857" cx="0" cy="0" r="1" gradientUnits="userSpaceOnUse" gradientTransform="translate(1685.75 1108.09) rotate(90) scale(372.414 872.058)">
<stop stop-color="white" stop-opacity="0.75"/>
<stop offset="0.53125" stop-color="white" stop-opacity="0"/>
<stop offset="1" stop-color="white" stop-opacity="0.15"/>
</radialGradient>
<linearGradient id="paint17_linear_76_857" x1="373.359" y1="693.962" x2="1185.97" y2="1072.33" gradientUnits="userSpaceOnUse">
<stop stop-color="#FF5800"/>
<stop offset="0.53125" stop-color="#FF5800"/>
<stop offset="1" stop-color="#FF7B36" stop-opacity="0.95"/>
</linearGradient>
<linearGradient id="paint18_linear_76_857" x1="1221" y1="699.921" x2="1699.15" y2="803.775" gradientUnits="userSpaceOnUse">
<stop stop-color="#212121" stop-opacity="0.3"/>
<stop offset="0.536458" stop-color="#212121"/>
<stop offset="1" stop-color="#212121" stop-opacity="0"/>
</linearGradient>
<radialGradient id="paint19_radial_76_857" cx="0" cy="0" r="1" gradientUnits="userSpaceOnUse" gradientTransform="translate(1434.02 699.921) rotate(90) scale(372.414 438.328)">
<stop stop-color="white" stop-opacity="0.75"/>
<stop offset="0.53125" stop-color="white" stop-opacity="0"/>
<stop offset="1" stop-color="white" stop-opacity="0.15"/>
</radialGradient>
<linearGradient id="paint20_linear_76_857" x1="1682.79" y1="699.921" x2="2160.94" y2="803.775" gradientUnits="userSpaceOnUse">
<stop stop-color="#212121" stop-opacity="0.3"/>
<stop offset="0.536458" stop-color="#212121"/>
<stop offset="1" stop-color="#212121" stop-opacity="0"/>
</linearGradient>
<radialGradient id="paint21_radial_76_857" cx="0" cy="0" r="1" gradientUnits="userSpaceOnUse" gradientTransform="translate(1895.81 699.921) rotate(90) scale(372.414 438.328)">
<stop stop-color="white" stop-opacity="0.75"/>
<stop offset="0.53125" stop-color="white" stop-opacity="0"/>
<stop offset="1" stop-color="white" stop-opacity="0.15"/>
</radialGradient>
<clipPath id="clip0_76_857">
<rect width="2505" height="2037" fill="white"/>
</clipPath>
<clipPath id="clip1_76_857">
<rect width="620.419" height="125" fill="white" transform="translate(492.171 1231.79)"/>
</clipPath>
<clipPath id="clip2_76_857">
<rect width="414.338" height="120.729" fill="white" transform="translate(1478.58 1214.29)"/>
</clipPath>
<clipPath id="clip3_76_857">
<rect width="285.572" height="125" fill="white" transform="translate(639.123 823.627)"/>
</clipPath>
<clipPath id="clip4_76_857">
<rect width="218" height="272" fill="white" transform="translate(1786.81 750.127)"/>
</clipPath>
</defs>
</svg>
