<svg width="2505" height="2037" viewBox="0 0 2505 2037" fill="none" xmlns="http://www.w3.org/2000/svg">
<g opacity="0.18" filter="url(#filter0_f_71_301)">
<circle cx="1225.44" cy="1156.5" r="785.793" fill="url(#paint0_radial_71_301)"/>
</g>
<g opacity="0.3">
<line x1="-259" y1="654.731" x2="2765" y2="654.731" stroke="url(#paint1_linear_71_301)"/>
<line x1="-259" y1="1518.73" x2="2765" y2="1518.73" stroke="url(#paint2_linear_71_301)"/>
<line x1="-259" y1="1302.73" x2="2765" y2="1302.73" stroke="url(#paint3_linear_71_301)"/>
<line x1="-259" y1="870.731" x2="2765" y2="870.731" stroke="url(#paint4_linear_71_301)"/>
<line x1="332.893" y1="300.693" x2="332.893" y2="2012.31" stroke="url(#paint5_linear_71_301)"/>
<line x1="639.762" y1="300.693" x2="639.762" y2="2012.31" stroke="url(#paint6_linear_71_301)"/>
<line x1="946.631" y1="300.693" x2="946.631" y2="2012.31" stroke="url(#paint7_linear_71_301)"/>
<line x1="1560.37" y1="300.693" x2="1560.37" y2="2012.31" stroke="url(#paint8_linear_71_301)"/>
<line x1="1867.24" y1="300.693" x2="1867.24" y2="2012.31" stroke="url(#paint9_linear_71_301)"/>
<line x1="2174.11" y1="300.693" x2="2174.11" y2="2012.31" stroke="url(#paint10_linear_71_301)"/>
</g>
<circle cx="333.138" cy="1518.49" r="3.72414" fill="#D9D9D9" fill-opacity="0.5"/>
<circle cx="640.007" cy="1518.49" r="3.72414" fill="#D9D9D9" fill-opacity="0.5"/>
<circle cx="946.876" cy="1518.49" r="3.72414" fill="#D9D9D9" fill-opacity="0.5"/>
<circle cx="1253.74" cy="1518.49" r="3.72414" fill="#D9D9D9" fill-opacity="0.5"/>
<circle cx="1560.61" cy="1518.49" r="3.72414" fill="#D9D9D9" fill-opacity="0.5"/>
<circle cx="1867.48" cy="1518.49" r="3.72414" fill="#D9D9D9" fill-opacity="0.5"/>
<circle cx="2174.35" cy="1518.49" r="3.72414" fill="#D9D9D9" fill-opacity="0.5"/>
<circle cx="333.138" cy="1302.49" r="3.72414" fill="#D9D9D9" fill-opacity="0.5"/>
<circle cx="2174.35" cy="1302.49" r="3.72414" fill="#D9D9D9" fill-opacity="0.5"/>
<circle cx="333.138" cy="1086.49" r="3.72414" fill="#D9D9D9" fill-opacity="0.5"/>
<circle cx="2174.35" cy="1086.49" r="3.72414" fill="#D9D9D9" fill-opacity="0.5"/>
<circle cx="333.138" cy="870.486" r="3.72414" fill="#D9D9D9" fill-opacity="0.5"/>
<circle cx="2174.35" cy="870.486" r="3.72414" fill="#D9D9D9" fill-opacity="0.5"/>
<circle cx="333.138" cy="654.486" r="3.72414" fill="#D9D9D9" fill-opacity="0.5"/>
<circle cx="640.007" cy="654.486" r="3.72414" fill="#D9D9D9" fill-opacity="0.5"/>
<circle cx="946.876" cy="654.486" r="3.72414" fill="#D9D9D9" fill-opacity="0.5"/>
<circle cx="1253.74" cy="654.486" r="3.72414" fill="#D9D9D9" fill-opacity="0.5"/>
<circle cx="1560.61" cy="654.486" r="3.72414" fill="#D9D9D9" fill-opacity="0.5"/>
<circle cx="1867.48" cy="654.486" r="3.72414" fill="#D9D9D9" fill-opacity="0.5"/>
<circle cx="2174.35" cy="654.486" r="3.72414" fill="#D9D9D9" fill-opacity="0.5"/>
<g filter="url(#filter1_b_71_301)">
<rect x="378.573" y="1108.09" width="847.614" height="372.414" rx="24" fill="url(#paint11_linear_71_301)" fill-opacity="0.5"/>
<rect x="379.073" y="1108.59" width="846.614" height="371.414" rx="23.5" stroke="url(#paint12_radial_71_301)"/>
<g clip-path="url(#clip0_71_301)">
<path d="M628.451 1306.25C628.451 1310.57 629.398 1313.88 630.634 1315.88C632.256 1318.5 634.675 1319.61 637.141 1319.61C640.322 1319.61 643.231 1318.82 648.839 1311.07C653.331 1304.85 658.624 1296.13 662.186 1290.66L668.217 1281.39C672.407 1274.95 677.256 1267.8 682.816 1262.95C687.356 1258.99 692.252 1256.79 697.18 1256.79C705.454 1256.79 713.335 1261.59 719.366 1270.58C725.967 1280.43 729.171 1292.83 729.171 1305.63C729.171 1313.24 727.671 1318.83 725.119 1323.25C722.653 1327.52 717.847 1331.79 709.761 1331.79V1319.61C716.684 1319.61 718.412 1313.25 718.412 1305.97C718.412 1295.6 715.993 1284.08 710.665 1275.86C706.883 1270.02 701.983 1266.46 696.591 1266.46C690.76 1266.46 686.068 1270.85 680.794 1278.7C677.99 1282.86 675.112 1287.94 671.881 1293.67L668.323 1299.97C661.176 1312.64 659.366 1315.53 655.793 1320.29C649.53 1328.63 644.182 1331.79 637.141 1331.79C628.789 1331.79 623.508 1328.18 620.237 1322.73C617.566 1318.29 616.255 1312.46 616.255 1305.82L628.451 1306.25Z" fill="#FF5800"/>
<path d="M625.871 1271.44C631.463 1262.82 639.532 1256.79 648.787 1256.79C654.147 1256.79 659.476 1258.38 665.04 1262.92C671.126 1267.89 677.613 1276.07 685.706 1289.55L688.608 1294.39C695.613 1306.06 699.599 1312.06 701.931 1314.89C704.931 1318.53 707.032 1319.61 709.761 1319.61C716.684 1319.61 718.412 1313.25 718.412 1305.97L729.171 1305.63C729.171 1313.24 727.671 1318.83 725.118 1323.25C722.652 1327.52 717.846 1331.79 709.761 1331.79C704.735 1331.79 700.282 1330.7 695.358 1326.06C691.573 1322.49 687.147 1316.16 683.743 1310.46L673.616 1293.55C668.535 1285.06 663.874 1278.73 661.176 1275.86C658.274 1272.78 654.544 1269.06 648.591 1269.06C643.773 1269.06 639.681 1272.44 636.257 1277.61L625.871 1271.44Z" fill="url(#paint13_linear_71_301)"/>
<path d="M648.591 1269.06C643.773 1269.06 639.682 1272.44 636.257 1277.61C631.416 1284.92 628.451 1295.8 628.451 1306.25C628.451 1310.57 629.398 1313.88 630.634 1315.88L620.237 1322.73C617.566 1318.29 616.255 1312.46 616.255 1305.82C616.255 1293.74 619.569 1281.16 625.871 1271.44C631.463 1262.82 639.532 1256.79 648.788 1256.79L648.591 1269.06Z" fill="url(#paint14_linear_71_301)"/>
<path d="M752.881 1259.16H766.989L790.978 1302.56L814.97 1259.16H828.772V1330.47H817.263V1275.82L796.224 1313.67H785.425L764.39 1275.82V1330.47H752.881V1259.16ZM864.835 1285.75C856.581 1285.75 851.61 1291.96 850.42 1299.66H878.433C877.856 1291.73 873.285 1285.75 864.835 1285.75ZM839.009 1304.04C839.009 1287.85 849.47 1276.07 865.035 1276.07C880.346 1276.07 889.487 1287.7 889.487 1304.9V1308.06H850.42C851.806 1316.43 857.359 1322.07 866.311 1322.07C873.454 1322.07 877.919 1319.89 882.152 1315.91L888.266 1323.39C882.505 1328.69 875.178 1331.75 865.903 1331.75C849.054 1331.75 839.009 1319.46 839.009 1304.04ZM903.442 1286.77H892.848V1277.35H903.442V1261.76H914.547V1277.35H930.643V1286.77H914.547V1310.66C914.547 1318.82 917.154 1321.71 923.563 1321.71C926.488 1321.71 928.165 1321.46 930.643 1321.05V1330.37C927.556 1331.24 924.611 1331.64 921.423 1331.64C909.435 1331.64 903.442 1325.09 903.442 1311.98V1286.77ZM977.402 1295.94C975.171 1290.31 970.196 1286.16 962.885 1286.16C953.382 1286.16 947.3 1292.9 947.3 1303.89C947.3 1314.59 952.899 1321.66 962.429 1321.66C969.921 1321.66 975.27 1317.3 977.402 1311.88V1295.94ZM988.507 1330.47H977.606V1323.04C974.559 1327.41 969.014 1331.75 960.034 1331.75C945.592 1331.75 935.94 1319.66 935.94 1303.89C935.94 1287.97 945.823 1276.07 960.647 1276.07C967.974 1276.07 973.722 1279 977.606 1284.17V1277.35H988.507V1330.47Z" fill="white"/>
</g>
</g>
<g filter="url(#filter2_b_71_301)">
<rect x="1261.94" y="1108.09" width="847.614" height="372.414" rx="24" fill="url(#paint15_linear_71_301)" fill-opacity="0.5"/>
<rect x="1262.44" y="1108.59" width="846.614" height="371.414" rx="23.5" stroke="url(#paint16_radial_71_301)"/>
<g clip-path="url(#clip1_71_301)">
<path d="M1593.27 1267.98C1598.91 1272 1605.81 1274.37 1613.26 1274.37V1260.04C1611.85 1260.04 1610.44 1259.89 1609.06 1259.6V1270.88C1601.61 1270.88 1594.71 1268.51 1589.08 1264.49V1293.74C1589.08 1308.37 1577.21 1320.23 1562.57 1320.23C1557.11 1320.23 1552.03 1318.58 1547.82 1315.75C1552.63 1320.67 1559.34 1323.72 1566.77 1323.72C1581.41 1323.72 1593.27 1311.86 1593.27 1297.23V1267.98H1593.27ZM1598.45 1253.52C1595.57 1250.38 1593.68 1246.32 1593.27 1241.83V1239.98H1589.3C1590.3 1245.69 1593.71 1250.57 1598.45 1253.52ZM1557.07 1304.52C1555.47 1302.42 1554.6 1299.84 1554.6 1297.19C1554.6 1290.49 1560.03 1285.07 1566.73 1285.07C1567.97 1285.07 1569.21 1285.26 1570.4 1285.64V1270.98C1569.01 1270.79 1567.61 1270.71 1566.21 1270.74V1282.15C1565.02 1281.77 1563.78 1281.58 1562.53 1281.58C1555.83 1281.58 1550.4 1287.01 1550.4 1293.7C1550.4 1298.43 1553.12 1302.53 1557.07 1304.52Z" fill="#D04800"/>
<path d="M1589.08 1264.49C1594.71 1268.51 1601.61 1270.88 1609.06 1270.88V1259.6C1604.9 1258.72 1601.22 1256.54 1598.45 1253.52C1593.71 1250.57 1590.3 1245.69 1589.3 1239.98H1578.85V1297.23C1578.83 1303.9 1573.41 1309.31 1566.72 1309.31C1562.79 1309.31 1559.29 1307.43 1557.07 1304.52C1553.12 1302.53 1550.4 1298.43 1550.4 1293.7C1550.4 1287.01 1555.83 1281.58 1562.53 1281.58C1563.81 1281.58 1565.05 1281.78 1566.21 1282.15V1270.74C1551.83 1271.04 1540.26 1282.78 1540.26 1297.23C1540.26 1304.44 1543.14 1310.98 1547.82 1315.75C1552.03 1318.58 1557.11 1320.23 1562.57 1320.23C1577.21 1320.23 1589.08 1308.37 1589.08 1293.74V1264.49H1589.08Z" fill="#FF5800"/>
<path d="M1609.06 1259.6V1256.55C1605.31 1256.56 1601.63 1255.51 1598.45 1253.52C1601.27 1256.6 1604.98 1258.73 1609.06 1259.6ZM1589.3 1239.98C1589.2 1239.44 1589.13 1238.89 1589.08 1238.34V1236.49H1574.65V1293.74C1574.63 1300.41 1569.21 1305.82 1562.53 1305.82C1560.57 1305.82 1558.71 1305.35 1557.07 1304.52C1559.29 1307.43 1562.79 1309.31 1566.72 1309.31C1573.41 1309.31 1578.83 1303.9 1578.85 1297.23V1239.98H1589.3ZM1566.21 1270.74V1267.5C1565 1267.33 1563.79 1267.25 1562.57 1267.25C1547.93 1267.25 1536.06 1279.11 1536.06 1293.74C1536.06 1302.91 1540.73 1311 1547.82 1315.75C1543.14 1310.98 1540.26 1304.44 1540.26 1297.23C1540.26 1282.78 1551.83 1271.04 1566.21 1270.74Z" fill="#FF7D38"/>
<path d="M1776.19 1308.24C1786.66 1308.24 1795.16 1299.82 1795.16 1289.43C1795.16 1279.04 1786.66 1270.61 1776.19 1270.61H1773.33C1783.81 1270.61 1792.3 1279.04 1792.3 1289.43C1792.3 1299.82 1783.81 1308.24 1773.33 1308.24H1776.19Z" fill="#D04800"/>
<path d="M1773.07 1270.61H1770.22C1759.74 1270.61 1751.25 1279.04 1751.25 1289.43C1751.25 1299.82 1759.74 1308.24 1770.22 1308.24H1773.07C1762.6 1308.24 1754.11 1299.82 1754.11 1289.43C1754.11 1279.04 1762.6 1270.61 1773.07 1270.61Z" fill="#FF7D38"/>
<path d="M1628.89 1262.11V1271.65H1640.06V1307.98H1651.23V1271.9H1660.32L1663.44 1262.11L1628.89 1262.11ZM1720.34 1262.11V1271.65H1731.5V1307.98H1742.68V1271.9H1751.77L1754.89 1262.11L1720.34 1262.11ZM1665.52 1267.52C1665.52 1264.53 1667.96 1262.11 1670.97 1262.11C1673.99 1262.11 1676.43 1264.53 1676.43 1267.52C1676.43 1270.51 1673.99 1272.93 1670.97 1272.93C1667.96 1272.93 1665.52 1270.51 1665.52 1267.52ZM1665.52 1276.8H1676.43V1307.98H1665.52V1276.8ZM1681.1 1262.11V1307.98H1692.02V1296.13L1695.39 1293.03L1706.05 1308.24H1717.74L1702.41 1286.08L1716.18 1272.67H1702.93L1692.02 1283.5V1262.11H1681.1ZM1798.79 1262.11V1307.98H1809.71V1296.13L1813.08 1293.03L1823.74 1308.24H1835.43L1820.1 1286.08L1833.87 1272.67H1820.62L1809.71 1283.5V1262.11H1798.79Z" fill="#FF5800"/>
<path d="M1773.33 1308.24C1783.81 1308.24 1792.3 1299.82 1792.3 1289.43C1792.3 1279.04 1783.81 1270.61 1773.33 1270.61H1773.07C1762.6 1270.61 1754.11 1279.04 1754.11 1289.43C1754.11 1299.82 1762.6 1308.24 1773.07 1308.24H1773.33ZM1763.98 1289.43C1763.98 1284.37 1768.11 1280.28 1773.21 1280.28C1778.3 1280.28 1782.43 1284.37 1782.43 1289.43C1782.43 1294.48 1778.3 1298.58 1773.21 1298.58C1768.11 1298.57 1763.98 1294.48 1763.98 1289.43Z" fill="#FF5800"/>
</g>
<path d="M1656.66 1351.72L1653.49 1343.58H1643.06L1639.93 1351.72H1636.58L1646.86 1325.31H1649.84L1660.08 1351.72H1656.66ZM1649.55 1332.68C1649.47 1332.48 1649.35 1332.12 1649.18 1331.61C1649 1331.09 1648.83 1330.56 1648.66 1330.02C1648.51 1329.46 1648.39 1329.03 1648.29 1328.73C1648.17 1329.23 1648.03 1329.73 1647.89 1330.24C1647.76 1330.74 1647.63 1331.19 1647.48 1331.61C1647.36 1332.03 1647.25 1332.38 1647.15 1332.68L1644.17 1340.63H1652.49L1649.55 1332.68Z" fill="white"/>
<path d="M1670.24 1352.09C1667.78 1352.09 1665.82 1351.25 1664.34 1349.55C1662.87 1347.83 1662.13 1345.28 1662.13 1341.89C1662.13 1338.5 1662.87 1335.94 1664.34 1334.22C1665.84 1332.48 1667.82 1331.61 1670.28 1331.61C1671.31 1331.61 1672.2 1331.74 1672.97 1332.01C1673.73 1332.26 1674.39 1332.6 1674.96 1333.04C1675.52 1333.49 1676 1333.98 1676.39 1334.52H1676.61C1676.59 1334.2 1676.54 1333.73 1676.47 1333.12C1676.42 1332.48 1676.39 1331.98 1676.39 1331.61V1323.72H1679.63V1351.72H1677.02L1676.54 1349.07H1676.39C1676 1349.64 1675.52 1350.15 1674.96 1350.62C1674.39 1351.06 1673.72 1351.42 1672.93 1351.69C1672.17 1351.96 1671.27 1352.09 1670.24 1352.09ZM1670.76 1349.4C1672.84 1349.4 1674.3 1348.84 1675.14 1347.71C1676 1346.55 1676.43 1344.82 1676.43 1342.51V1341.92C1676.43 1339.47 1676.02 1337.59 1675.21 1336.29C1674.4 1334.96 1672.9 1334.3 1670.72 1334.3C1668.97 1334.3 1667.66 1335 1666.78 1336.4C1665.92 1337.77 1665.49 1339.63 1665.49 1341.96C1665.49 1344.32 1665.92 1346.15 1666.78 1347.45C1667.66 1348.75 1668.99 1349.4 1670.76 1349.4Z" fill="white"/>
<path d="M1698.77 1346.27C1698.77 1347.55 1698.45 1348.62 1697.81 1349.48C1697.17 1350.34 1696.26 1350.99 1695.08 1351.43C1693.9 1351.87 1692.5 1352.09 1690.88 1352.09C1689.51 1352.09 1688.31 1351.98 1687.31 1351.76C1686.32 1351.54 1685.45 1351.23 1684.69 1350.84V1347.89C1685.48 1348.29 1686.42 1348.65 1687.53 1349C1688.66 1349.32 1689.8 1349.48 1690.95 1349.48C1692.6 1349.48 1693.79 1349.22 1694.53 1348.7C1695.27 1348.16 1695.63 1347.45 1695.63 1346.57C1695.63 1346.08 1695.5 1345.63 1695.23 1345.24C1694.96 1344.85 1694.47 1344.45 1693.75 1344.06C1693.07 1343.67 1692.07 1343.23 1690.77 1342.73C1689.49 1342.24 1688.4 1341.75 1687.49 1341.26C1686.58 1340.77 1685.88 1340.18 1685.39 1339.49C1684.9 1338.8 1684.65 1337.92 1684.65 1336.84C1684.65 1335.17 1685.33 1333.88 1686.68 1332.97C1688.06 1332.06 1689.85 1331.61 1692.06 1331.61C1693.26 1331.61 1694.38 1331.73 1695.41 1331.98C1696.47 1332.2 1697.45 1332.52 1698.36 1332.93L1697.26 1335.51C1696.71 1335.27 1696.14 1335.06 1695.52 1334.89C1694.93 1334.69 1694.33 1334.54 1693.72 1334.44C1693.1 1334.32 1692.48 1334.26 1691.84 1334.26C1690.51 1334.26 1689.49 1334.48 1688.78 1334.92C1688.09 1335.34 1687.75 1335.92 1687.75 1336.66C1687.75 1337.2 1687.91 1337.66 1688.23 1338.06C1688.55 1338.42 1689.08 1338.79 1689.81 1339.16C1690.57 1339.5 1691.58 1339.92 1692.83 1340.41C1694.09 1340.88 1695.15 1341.36 1696.04 1341.85C1696.92 1342.34 1697.6 1342.94 1698.07 1343.66C1698.53 1344.34 1698.77 1345.22 1698.77 1346.27Z" fill="white"/>
</g>
<g filter="url(#filter3_bd_71_301)">
<rect x="378.573" y="699.921" width="806.672" height="372.414" rx="24" fill="url(#paint17_linear_71_301)" shape-rendering="crispEdges"/>
<rect x="379.073" y="700.421" width="805.672" height="371.414" rx="23.5" stroke="white" shape-rendering="crispEdges"/>
<g clip-path="url(#clip2_71_301)">
<path d="M706.672 823.786C705.447 823.869 704.678 824.015 704.574 824.181C704.47 824.347 704.221 824.41 703.91 824.326C703.619 824.264 703.141 824.326 702.788 824.513C701.978 824.929 701.355 824.929 701.002 824.513C700.773 824.223 700.378 824.181 698.613 824.264C696.66 824.347 696.349 824.43 694.708 825.22C692.423 826.321 691.239 826.507 690.429 825.926C689.993 825.593 689.598 825.51 688.788 825.552C688.206 825.573 687.666 825.677 687.583 825.739C687.521 825.822 687.292 825.884 687.105 825.884C686.898 825.884 686.628 826.03 686.482 826.196C686.295 826.424 686.129 826.445 685.818 826.279C685.485 826.092 685.319 826.134 684.966 826.466C684.634 826.819 684.488 826.84 684.177 826.653C683.865 826.466 683.678 826.466 683.367 826.674C683.013 826.881 682.93 826.881 682.826 826.611C682.681 826.258 681.913 826.175 681.913 826.528C681.913 826.715 681.497 826.736 680.459 826.632C679.088 826.507 679.004 826.528 679.004 826.923C679.004 827.151 678.921 827.338 678.818 827.338C678.734 827.338 678.298 827.567 677.883 827.858L677.135 828.356V827.878C677.135 827.214 676.927 827.089 676.408 827.421C675.868 827.775 674.04 827.816 673.645 827.504C673.438 827.338 673.292 827.359 673.022 827.629C672.69 827.961 672.69 828.003 673.085 828.315C673.479 828.626 673.479 828.626 672.981 828.502C671.631 828.148 671.091 828.128 670.405 828.46C670.01 828.647 669.47 828.792 669.18 828.792C667.892 828.792 663.114 830.101 662.159 830.724C661.889 830.911 660.746 831.306 659.625 831.617C658.482 831.929 657.277 832.386 656.924 832.614C656.55 832.864 655.886 833.175 655.408 833.321C654.951 833.445 654.39 833.757 654.182 833.985C653.975 834.214 653.663 834.401 653.476 834.401C653.289 834.401 652.583 834.671 651.898 835.024C651.212 835.356 650.506 835.647 650.319 835.647C650.153 835.647 649.322 836.166 648.491 836.789C647.66 837.413 646.85 837.932 646.705 837.932C646.559 837.932 646.393 838.077 646.31 838.243C646.248 838.41 646.019 838.555 645.811 838.555C645.583 838.555 645.064 838.825 644.628 839.178C644.191 839.51 643.755 839.801 643.651 839.801C643.257 839.801 641.886 841.027 641.283 841.92C640.951 842.418 640.432 843.042 640.141 843.332C639.642 843.831 639.123 845.389 639.123 846.427C639.123 847.424 639.829 849.086 640.556 849.772C640.992 850.166 641.595 850.873 641.927 851.33C642.903 852.68 644.565 854.341 645.396 854.778C645.832 854.985 646.331 855.401 646.518 855.671C646.912 856.294 648.553 856.709 649.904 856.502C650.423 856.419 651.544 856.045 652.396 855.65C655.263 854.341 658.004 853.324 659.438 853.012C660.227 852.846 661.743 852.264 662.823 851.724C664.319 850.976 665.108 850.706 666.209 850.603C667.248 850.478 668.058 850.229 669.117 849.668C671.423 848.463 675.328 847.258 676.657 847.321L677.758 847.383L677.052 848.276C676.657 848.754 676.283 849.377 676.221 849.668C676.138 849.959 675.951 850.353 675.764 850.561C675.411 850.956 674.829 851.786 673.604 853.614C673.168 854.3 672.503 855.235 672.15 855.712C671.797 856.211 671.485 856.938 671.402 857.478C671.298 858.246 671.174 858.433 670.613 858.703C670.114 858.953 669.74 859.472 668.91 861.071C668.328 862.214 667.601 863.335 667.269 863.585C666.936 863.876 666.687 864.27 666.687 864.623C666.666 864.956 666.375 865.475 666.001 865.849C665.648 866.202 665.108 867.137 664.818 867.947C664.506 868.736 664.028 869.775 663.737 870.232C663.467 870.689 663.073 871.395 662.865 871.79C662.657 872.184 662.096 873.098 661.619 873.784C661.12 874.49 660.58 875.466 660.414 875.965C660.102 876.879 658.815 879.62 657.09 883.006C656.613 883.982 655.948 885.416 655.657 886.184C655.346 886.974 654.909 887.908 654.681 888.261C654.473 888.635 654.286 889.113 654.286 889.321C654.286 889.549 653.829 890.712 653.268 891.917C652.708 893.122 652.147 894.514 652.001 895.012C651.877 895.511 651.628 895.968 651.461 896.03C651.129 896.155 651.067 896.84 651.378 897.027C651.731 897.235 651.607 897.546 651.191 897.546C650.651 897.546 648.408 901.659 648.491 902.49C648.533 902.843 648.055 904.069 647.245 905.751C645.978 908.389 645.521 909.635 644.877 912.19C644.711 912.876 644.191 914.517 643.714 915.846C643.236 917.175 642.53 919.523 642.135 921.039C641.719 922.576 641.221 924.466 641.013 925.276C640.806 926.066 640.473 927.811 640.286 929.119C639.975 931.3 639.975 931.84 640.265 935.538C640.432 937.739 640.66 939.671 640.785 939.817C640.889 939.941 641.096 940.544 641.221 941.146C641.346 941.748 641.636 942.434 641.844 942.641C642.093 942.891 642.239 943.327 642.239 943.784C642.239 944.407 642.28 944.49 642.53 944.303C642.758 944.116 642.841 944.137 642.945 944.407C643.049 944.677 643.257 944.719 644.004 944.615C644.939 944.469 644.939 944.469 644.939 945.072C644.939 945.903 645.375 946.214 646.476 946.131C647.286 946.048 647.369 946.09 647.203 946.401C646.954 946.858 646.954 946.9 647.349 947.274C647.515 947.46 647.889 947.606 648.179 947.606C648.449 947.606 648.678 947.689 648.678 947.814C648.678 947.917 648.886 948.021 649.156 948.021C649.426 948.021 649.717 948.104 649.841 948.229C649.966 948.354 650.236 948.312 650.631 948.125C651.358 947.73 651.316 947.73 651.441 948.229C651.607 948.831 652.001 948.728 652.271 948.021C652.417 947.647 652.666 947.398 652.874 947.398C653.539 947.398 653.912 946.463 654.079 944.241C654.182 942.995 654.411 941.811 654.598 941.416C654.785 941.063 655.034 940.128 655.138 939.339C655.242 938.57 655.533 937.49 655.761 936.929C656.052 936.244 656.114 935.849 655.969 935.704C655.823 935.558 655.948 935.268 656.384 934.769C656.904 934.187 657.007 933.897 656.945 933.253C656.883 932.65 656.924 932.526 657.132 932.692C657.34 932.858 657.402 932.713 657.402 931.965C657.402 931.362 657.506 930.989 657.693 930.926C658.046 930.781 659.479 927.977 659.479 927.416C659.479 927.208 659.853 926.294 660.31 925.38C660.767 924.466 661.141 923.532 661.141 923.303C661.141 923.054 661.286 922.888 661.515 922.888C661.847 922.888 662.636 921.267 663.114 919.606C663.177 919.356 663.343 919.149 663.447 919.149C663.55 919.149 663.634 918.92 663.634 918.629C663.634 918.256 663.82 917.986 664.257 917.736C664.631 917.529 664.963 917.092 665.108 916.656C665.565 915.264 667.206 912.19 667.829 911.567C668.183 911.214 668.66 910.383 668.93 909.698C669.18 909.012 675.515 895.469 682.993 879.579C690.491 863.689 696.66 850.499 696.743 850.249C696.827 850.021 697.013 849.709 697.159 849.585C697.346 849.419 697.387 848.899 697.325 847.694C697.263 846.635 697.304 846.033 697.45 846.033C697.554 846.033 697.72 846.282 697.782 846.573C697.99 847.404 698.114 847.071 698.218 845.347C698.281 844.101 698.239 843.748 697.99 843.665C697.803 843.582 697.699 843.353 697.74 843.083C697.824 842.377 699.485 841.629 700.981 841.588C701.625 841.567 702.539 841.38 702.996 841.172C703.847 840.798 716.518 837.392 717.91 837.184C718.325 837.101 718.678 837.122 718.678 837.226C718.678 837.329 718.097 838.202 717.39 839.178C715.542 841.754 714.503 843.395 713.298 845.7C712.696 846.822 711.948 848.131 711.637 848.608C710.432 850.353 707.316 856.647 706.755 858.433C706.631 858.828 706.672 858.911 707.025 858.911C707.316 858.911 707.462 859.036 707.462 859.306C707.462 859.534 707.586 859.763 707.732 859.804C707.856 859.867 707.628 859.929 707.192 859.929C706.589 859.95 706.236 860.116 705.758 860.573C705.384 860.947 705.177 861.321 705.26 861.508C705.322 861.674 705.447 861.965 705.509 862.131C705.592 862.338 705.551 862.442 705.384 862.401C705.052 862.318 704.969 862.484 702.871 867.116C701.936 869.172 701.147 871.166 701.126 871.54C701.085 871.914 700.877 872.517 700.648 872.89C700.42 873.244 700.171 873.971 700.108 874.49C700.025 875.009 699.797 875.715 699.568 876.048C699.34 876.401 699.153 876.879 699.153 877.149C699.153 877.398 699.049 877.793 698.904 878C698.717 878.312 698.717 878.54 698.904 878.935C699.111 879.371 699.07 879.475 698.738 879.579C698.239 879.724 698.052 880.347 698.218 881.116C698.301 881.531 698.26 881.781 698.052 881.905C697.699 882.113 697.283 882.861 697.283 883.318C697.283 883.484 696.91 884.398 696.473 885.353C695.476 887.431 694.521 890.401 694.687 890.92C694.832 891.336 693.835 895.635 693.503 896.03C693.191 896.404 692.714 898.398 692.714 899.333C692.714 899.79 692.589 900.35 692.423 900.579C692.257 900.807 692.174 901.202 692.236 901.514C692.298 901.846 692.194 902.282 692.008 902.594C691.779 902.926 691.696 903.3 691.8 903.653C691.883 904.006 691.779 904.401 691.467 904.92C691.218 905.336 691.052 905.855 691.114 906.083C691.177 906.312 691.094 906.748 690.948 907.06C690.803 907.371 690.574 908.784 690.45 910.217C690.304 911.65 690.055 913.603 689.868 914.579C689.536 916.386 689.64 919.73 690.242 926.315C690.865 933.315 692.485 935.87 696.91 936.908C698.738 937.345 699.049 937.303 699.859 936.576C700.835 935.724 701.832 934.104 704.74 928.641C706.091 926.107 707.711 923.178 708.313 922.119C708.936 921.081 710.037 919.17 710.785 917.882C712.592 914.766 715.853 909.802 717.203 908.14C717.806 907.392 718.678 906.146 719.135 905.377C719.613 904.609 720.672 903.196 721.524 902.261C722.396 901.327 723.29 900.226 723.56 899.831C723.83 899.437 724.764 898.419 725.637 897.567C726.509 896.736 727.361 895.718 727.527 895.345C727.693 894.95 727.963 894.638 728.15 894.638C728.337 894.638 729.064 894.119 729.749 893.496C730.456 892.873 731.349 892.208 731.723 892.042C732.076 891.855 732.387 891.606 732.387 891.46C732.387 891.003 732.699 890.712 733.488 890.38C734.195 890.089 734.278 890.089 734.402 890.38C734.465 890.588 734.257 891.086 733.883 891.606C733.53 892.083 733.135 892.956 733.011 893.517C732.678 894.888 732.242 895.822 731.868 895.968C731.39 896.134 731.494 896.508 732.034 896.508C732.471 896.528 732.471 896.528 732.076 896.757C731.557 897.048 731.349 897.339 731.349 897.796C731.349 898.003 731.162 898.356 730.933 898.585C730.705 898.813 730.518 899.27 730.518 899.623C730.518 899.977 730.082 901.534 729.563 903.072C729.043 904.629 728.669 906.083 728.711 906.312C728.773 906.561 728.669 906.977 728.441 907.288C727.922 907.994 727.402 909.926 726.26 915.451C724.702 922.971 724.37 927.104 725.014 931.196C725.574 934.894 725.803 935.226 728.69 936.618C731.723 938.051 733.758 937.968 734.589 936.348C734.776 935.974 735.254 934.125 735.628 932.235C737.206 924.383 739.367 917.175 742.981 907.683C743.791 905.543 744.601 903.155 744.767 902.386C744.954 901.618 745.266 900.496 745.474 899.935C745.91 898.793 747.052 894.825 747.343 893.496C747.447 893.039 747.779 891.98 748.07 891.149C748.361 890.318 748.693 888.926 748.776 888.033C748.88 887.161 749.129 885.333 749.296 883.982C749.628 881.635 749.628 881.511 749.233 880.763C748.693 879.704 746.408 877.585 745.141 876.962C744.29 876.546 743.812 876.463 742.254 876.463C740.447 876.463 740.281 876.505 737.788 877.564C734.236 879.101 727.236 883.754 726.301 885.25C726.198 885.395 725.741 885.748 725.263 886.06C723.996 886.849 721.649 888.988 721.15 889.799C720.901 890.193 720.485 890.609 720.215 890.692C719.841 890.837 719.717 891.045 719.717 891.523C719.717 891.855 719.821 892.146 719.925 892.146C720.049 892.146 720.132 892.25 720.132 892.374C720.132 892.52 719.883 892.561 719.447 892.478C718.782 892.353 718.657 892.457 716.269 894.888C713.693 897.526 711.325 900.475 709.352 903.591C708.708 904.567 707.794 905.876 707.295 906.499C706.818 907.122 706.174 907.932 705.883 908.285C705.177 909.22 704.865 909.158 705.384 908.202C705.613 907.766 705.8 907.122 705.8 906.748C705.8 906.353 705.966 905.896 706.195 905.668C706.444 905.419 706.631 904.816 706.735 903.882C706.859 902.635 706.922 902.511 707.295 902.594C707.649 902.698 707.69 902.635 707.586 902.22C707.482 901.846 707.565 901.659 707.898 901.493C708.147 901.348 708.272 901.119 708.209 900.953C708.147 900.787 708.23 900.662 708.376 900.662C708.708 900.662 708.916 900.226 708.916 899.54C708.916 899.291 709.248 898.419 709.643 897.567C710.453 895.864 710.515 895.573 710.037 895.386C709.726 895.261 709.726 895.199 710.1 894.784C711.097 893.662 713.838 887.908 714.399 885.769C714.565 885.042 714.919 884.086 715.147 883.629C715.376 883.193 715.562 882.591 715.562 882.321C715.562 882.03 715.708 881.677 715.916 881.531C716.414 881.095 717.39 878.914 717.557 877.834C717.64 877.315 717.951 876.505 718.263 876.048C718.554 875.591 719.114 874.656 719.488 873.971C719.862 873.285 720.382 872.433 720.652 872.101C720.901 871.748 721.171 871.166 721.233 870.792C721.462 869.671 724.079 864.436 726.821 859.617C728.254 857.104 729.77 854.404 730.206 853.614C730.643 852.804 731.536 851.163 732.201 849.917C733.301 847.881 734.028 846.822 736.521 843.561C736.999 842.959 737.435 842.232 737.497 841.962C737.56 841.691 737.747 841.463 737.913 841.463C738.37 841.463 738.889 840.487 738.889 839.594C738.889 838.68 738.287 837.516 736.646 835.315C734.963 833.05 733.364 831.43 732.304 830.911C731.785 830.641 731.349 830.288 731.349 830.142C731.349 829.706 730.643 829.374 730.352 829.665C730.165 829.852 730.103 829.789 730.103 829.374C730.103 829.062 729.957 828.688 729.791 828.502C729.625 828.335 729.479 828.086 729.479 827.961C729.479 827.837 729.251 827.65 728.96 827.546C728.669 827.442 728.337 827.11 728.233 826.819C728.109 826.507 727.942 826.341 727.818 826.404C727.714 826.466 727.361 826.341 727.049 826.113C726.717 825.884 726.114 825.635 725.699 825.552C725.014 825.448 724.91 825.469 724.91 825.801C724.889 826.134 724.827 826.113 724.432 825.614C723.913 825.012 723.248 824.866 723.248 825.365C723.248 825.531 723.165 825.677 723.04 825.677C722.936 825.677 722.833 825.552 722.833 825.386C722.833 825.095 722.23 824.95 719.717 824.638C718.969 824.534 717.847 824.368 717.224 824.243C716.019 824.036 710.12 823.579 709.165 823.641C708.853 823.662 707.732 823.724 706.672 823.786ZM696.806 844.911C696.619 845.098 696.224 844.786 696.37 844.537C696.453 844.413 696.577 844.413 696.723 844.558C696.847 844.683 696.889 844.828 696.806 844.911ZM696.972 845.617C697.138 845.887 696.66 845.887 696.245 845.617C695.996 845.451 696.016 845.41 696.39 845.41C696.64 845.41 696.91 845.493 696.972 845.617ZM713.506 877.46C713.485 877.709 713.195 877.647 713.111 877.377C713.049 877.252 713.132 877.169 713.278 877.211C713.402 877.273 713.506 877.377 713.506 877.46Z" fill="white"/>
<path d="M824.925 844.558C823.242 845.326 820.23 848.401 818.797 850.81C817.198 853.49 815.702 858.184 815.972 859.68C816.242 861.113 820.21 864.374 821.705 864.374C822.868 864.374 827.127 860.594 828.913 857.956C829.391 857.27 830.18 856.211 830.678 855.629C831.198 855.048 832.008 853.781 832.506 852.825C833.379 851.163 833.42 851.039 833.171 850.27C833.046 849.834 832.444 848.733 831.862 847.819C830.699 846.074 829.765 845.326 827.791 844.579C826.42 844.059 825.984 844.059 824.925 844.558Z" fill="white"/>
<path d="M779.165 872.641C776.984 874.552 775.364 876.255 774.969 877.024C774.741 877.439 774.284 878.208 773.931 878.727C773.058 879.994 769.029 887.929 766.557 893.184C764.708 897.11 763.898 898.959 761.468 904.712C760.492 907.018 759.162 909.552 758.539 910.279L758.124 910.736L758.269 910.217C758.331 909.926 758.664 909.178 758.996 908.555C759.391 907.787 759.598 907.101 759.598 906.478C759.598 905.252 759.869 904.318 760.969 901.742C761.468 900.579 761.987 899.166 762.112 898.626C762.236 898.086 762.839 896.092 763.462 894.181C764.085 892.291 764.584 890.546 764.584 890.338C764.584 890.131 764.791 889.632 765.061 889.238C765.331 888.843 765.851 887.804 766.225 886.953C766.619 886.101 767.097 885.208 767.305 884.979C767.824 884.398 768.323 883.131 768.323 882.404C768.323 881.303 765.456 878 763.254 876.546C761.987 875.715 759.079 874.49 758.373 874.49C757.729 874.49 756.587 875.611 755.361 877.481C754.198 879.226 752.952 881.573 752.952 881.988C752.952 882.113 752.785 882.466 752.578 882.757C751.394 884.481 748.216 892.603 745.993 899.603C744.601 903.985 744.331 905.107 743.895 908.202C743.625 910.134 743.314 912.253 743.189 912.896C742.753 915.41 742.337 920.021 742.337 922.784C742.317 927.603 743.147 933.502 744.02 934.727C744.955 936.057 749.753 938.986 751.643 939.38C752.578 939.588 753.616 939.048 755.133 937.532C756.566 936.119 757.397 934.624 757.272 933.689C757.189 933.19 757.251 933.066 757.563 933.066C758.165 933.066 758.622 932.193 758.352 931.508C758.228 931.196 758.165 930.905 758.186 930.885C758.228 930.864 758.456 930.718 758.726 930.594C758.975 930.469 759.183 930.261 759.183 930.178C759.183 930.075 758.975 929.95 758.726 929.867C758.269 929.742 758.269 929.721 758.955 929.181C759.37 928.849 759.91 928.101 760.242 927.333C760.575 926.626 760.928 925.983 761.052 925.899C761.385 925.692 762.195 923.988 763.15 921.517C764.21 918.692 767.055 911.837 767.263 911.567C767.367 911.442 768.011 910.051 768.738 908.451C769.444 906.852 770.545 904.505 771.189 903.258C771.854 901.991 772.477 900.766 772.581 900.496C772.975 899.603 777.587 892.644 779.394 890.193C782.613 885.893 785.875 882.798 787.245 882.798C787.557 882.798 788.367 883.193 789.115 883.712C791.421 885.27 795.284 887.119 797.424 887.659C799.729 888.241 803.385 888.718 804.278 888.531C804.61 888.469 804.88 888.448 804.88 888.49C804.88 888.511 804.195 889.985 803.343 891.751C801.702 895.22 799.688 900.039 799.688 900.537C799.688 900.704 799.459 901.181 799.189 901.597C798.898 902.012 798.566 902.885 798.441 903.528C797.943 906.042 797.777 906.686 796.883 909.698C795.845 913.229 795.429 915.015 795.014 918.006C794.204 923.656 794.038 938.591 794.765 940.502C795.242 941.748 796.053 942.745 796.842 943.036C797.216 943.181 798.026 943.514 798.67 943.784C801.599 945.03 802.45 944.262 803.842 938.986C804.216 937.615 804.735 935.974 805.026 935.351C805.296 934.727 805.815 933.169 806.168 931.923C806.501 930.656 806.916 929.389 807.082 929.077C807.248 928.766 807.373 928.33 807.373 928.08C807.373 927.852 807.456 927.665 807.581 927.665C807.934 927.665 808.599 926.086 808.827 924.653C808.952 923.885 809.326 922.701 809.679 922.015C810.032 921.33 810.717 919.647 811.237 918.255C811.756 916.864 812.545 914.911 813.002 913.914C814.975 909.594 818.943 897.962 819.213 895.698C819.317 894.825 819.649 893.392 819.94 892.499C820.688 890.193 820.646 888.781 819.815 887.451C818.86 885.956 816.367 883.567 815.1 882.923C814.498 882.611 813.418 882.279 812.711 882.175C810.24 881.801 810.094 881.739 808.952 880.597C806.999 878.665 807.041 878.686 802.907 878.81C799.895 878.893 799.085 878.852 798.026 878.561C795.616 877.876 790.423 875.528 788.139 874.074C787.599 873.742 787.017 873.451 786.851 873.451C786.685 873.451 786.435 873.306 786.311 873.119C786.165 872.932 785.688 872.703 785.231 872.62C784.794 872.516 783.964 872.309 783.382 872.143C782.821 871.976 781.907 871.789 781.346 871.727C780.391 871.603 780.328 871.623 779.165 872.641Z" fill="white"/>
<path d="M896.795 873.368C894.718 873.742 893.284 874.406 892.184 875.507C891.706 875.964 891.124 876.359 890.875 876.359C890.314 876.359 889.213 877.564 889.213 878.166C889.213 878.498 889.089 878.644 888.798 878.644C888.549 878.644 888.195 878.955 887.884 879.454C887.593 879.89 887.053 880.451 886.679 880.68C886.056 881.053 885.1 882.03 882.151 885.187C881.735 885.644 881.112 886.392 880.78 886.849C880.448 887.306 879.7 888.261 879.118 888.947C878.537 889.653 877.436 891.418 876.667 892.893C875.878 894.368 875.047 895.801 874.777 896.092C874.112 896.798 872.035 900.329 871.744 901.264C871.599 901.68 870.955 903.175 870.311 904.608C867.881 909.968 866.676 913.644 866.178 917.341C865.845 919.751 865.887 926.709 866.24 927.977C866.531 929.036 867.195 930.76 867.798 932.006C868.462 933.419 873.697 937.345 877.373 939.193C879.534 940.273 883.376 941.208 885.454 941.166C886.201 941.146 886.991 941.187 887.198 941.27C887.801 941.52 889.899 941.229 890.169 940.855C890.48 940.439 890.667 940.46 890.667 940.896C890.667 941.208 890.709 941.187 891.083 940.855C891.332 940.647 891.664 940.543 891.914 940.606C892.163 940.668 892.744 940.585 893.222 940.439C893.7 940.273 894.655 939.962 895.341 939.733C897.314 939.089 899.246 938.238 899.703 937.822C899.931 937.615 900.534 937.303 901.011 937.137C902.465 936.618 903.649 935.683 909.486 930.469C911.106 929.015 914.513 924.902 918.501 919.564C923.507 912.876 924.442 911.11 924.67 908.119C924.878 905.294 923.652 902.552 921.534 901.098C919.664 899.81 918.75 900.101 918.314 902.095C918.003 903.57 917.068 905.522 915.967 906.997C914.804 908.555 909.092 914.62 905.394 918.214C901.115 922.389 898.311 924.695 896.359 925.629C895.798 925.899 894.884 926.481 894.344 926.896C893.783 927.312 893.201 927.665 893.014 927.665C892.827 927.665 891.976 927.997 891.103 928.392C888.694 929.472 886.43 929.95 883.044 930.095L880.115 930.22L879.97 928.6C879.658 925.359 880.136 919.626 880.78 919.003C880.842 918.941 881.465 918.795 882.151 918.712C883.003 918.588 884.103 918.172 885.62 917.404C886.866 916.801 888.59 916.033 889.483 915.721C890.626 915.306 891.373 914.89 892.059 914.246C892.599 913.748 893.201 913.333 893.388 913.333C893.596 913.333 893.825 913.229 893.887 913.125C894.011 912.917 894.822 912.335 896.234 911.422C896.649 911.172 896.878 910.881 896.816 910.715C896.733 910.528 896.857 910.424 897.127 910.424C897.667 910.424 899.931 908.825 901.593 907.267C902.881 906.062 907.326 901.285 906.537 901.95C906.308 902.157 906.017 902.324 905.914 902.324C905.706 902.324 906.682 901.513 906.911 901.493C906.994 901.493 907.471 901.056 907.949 900.537C910.774 897.484 913.412 893.08 913.724 890.941C913.807 890.255 913.994 889.528 914.098 889.3C914.388 888.78 914.762 885.312 914.762 883.318C914.762 881.573 914.388 880.617 912.997 878.727C911.979 877.356 911.356 876.858 909.881 876.131C908.448 875.445 907.7 875.383 906.848 875.881C906.308 876.214 906.246 876.214 905.893 875.881C905.664 875.694 905.083 875.362 904.543 875.113C904.023 874.884 903.483 874.573 903.359 874.406C903.213 874.24 902.798 874.033 902.445 873.97C902.071 873.887 901.385 873.638 900.908 873.43C899.89 872.973 899.08 872.952 896.795 873.368ZM904.501 883.234C905.747 884.003 905.727 885.395 904.397 888.053C903.338 890.172 900.118 894.306 897.605 896.798C895.403 899 895.008 899.332 894.427 899.519C894.178 899.582 893.991 899.789 893.991 899.935C893.991 900.101 893.658 900.475 893.264 900.786C892.869 901.077 892.537 901.451 892.537 901.617C892.537 901.763 892.371 901.929 892.142 902.012C891.934 902.074 891.602 902.303 891.394 902.531C891.187 902.76 890.813 902.947 890.563 902.947C890.023 902.947 889.006 903.694 889.006 904.089C889.006 904.255 888.839 904.359 888.652 904.338C888.175 904.318 886.347 905.398 886.035 905.875C885.89 906.104 885.682 906.27 885.537 906.27C885.391 906.27 885.267 906.374 885.267 906.519C885.267 906.644 885.225 906.706 885.163 906.644C884.997 906.499 886.43 903.3 887.074 902.365C887.344 901.95 887.946 900.89 888.382 900.018C888.819 899.145 889.421 898.169 889.691 897.837C890.376 897.027 891.54 894.451 891.394 894.015C891.332 893.807 891.623 893.454 892.287 892.935C893.534 892 895.154 889.902 895.445 888.801C895.611 888.178 895.777 887.991 896.109 887.991C896.463 887.991 896.504 887.929 896.317 887.742C895.902 887.326 896.026 887.16 896.774 887.16C897.273 887.16 897.522 887.056 897.605 886.786C897.73 886.433 898.955 885.145 900.638 883.65C901.489 882.881 901.676 882.798 902.694 882.798C903.463 882.798 904.023 882.923 904.501 883.234ZM905.145 902.157C905.187 902.76 905.166 902.781 904.854 902.49C904.688 902.303 904.584 901.991 904.647 901.825C904.854 901.285 905.103 901.451 905.145 902.157Z" fill="white"/>
<path d="M865.097 874.781C863.04 875.674 862.604 876.006 860.631 878.083C858.637 880.202 857.141 882.383 855.043 886.309C853.257 889.653 853.112 889.902 851.907 891.522C851.45 892.146 850.744 893.226 850.37 893.911C847.566 898.938 837.928 913.416 838.592 911.629C838.821 911.006 840.213 904.609 840.815 901.389C841.147 899.665 841.646 897.235 841.937 895.988C842.227 894.721 842.622 892.54 842.788 891.107C842.975 889.674 843.266 887.867 843.432 887.098C844.284 883.027 843.411 880.368 840.171 877.19C838.759 875.798 837.388 874.967 836.183 874.76C835.56 874.656 835.394 874.76 834.625 875.632C834.147 876.172 833.233 877.647 832.569 878.914C831.904 880.181 830.928 882.071 830.388 883.11C829.848 884.128 829.391 885.146 829.391 885.374C829.391 885.582 828.747 887.223 827.957 889.009C827.168 890.795 826.462 892.623 826.379 893.08C826.296 893.517 826.046 894.264 825.818 894.7C825.589 895.157 825.465 895.698 825.506 895.905C825.569 896.134 825.527 896.3 825.444 896.3C825.34 896.3 825.195 896.923 825.132 897.671C825.008 898.689 824.904 899 824.696 898.917C824.488 898.834 824.405 899 824.405 899.54C824.405 899.935 824.302 900.475 824.177 900.703C824.011 901.036 824.011 901.16 824.218 901.285C824.405 901.41 824.322 901.617 823.907 902.137C823.471 902.656 823.367 902.947 823.45 903.404C823.533 903.798 823.471 904.027 823.284 904.11C822.868 904.276 822.785 904.712 822.328 908.867C821.871 913.042 821.809 915.036 822.121 915.638C822.287 915.95 822.266 916.033 822.017 916.033C821.643 916.033 821.601 916.469 821.975 916.843C822.183 917.051 822.141 917.155 821.83 917.404C821.435 917.674 821.435 917.695 821.809 918.089C821.996 918.318 822.121 918.65 822.037 918.837C821.975 919.003 822.037 919.377 822.162 919.668C822.349 920.104 822.328 920.25 822.017 920.623C821.684 920.956 821.664 921.122 821.85 921.433C822.058 921.724 822.037 921.87 821.809 922.057C821.456 922.347 821.414 922.929 821.684 923.469C821.788 923.656 821.996 924.757 822.121 925.899C822.494 929.368 822.868 930.76 823.741 932.027C824.156 932.65 824.655 933.169 824.821 933.169C824.987 933.169 825.652 933.502 826.275 933.917C826.898 934.312 827.583 934.707 827.791 934.79C827.978 934.852 828.144 935.06 828.144 935.226C828.144 935.683 829.453 936.721 830.554 937.137C831.115 937.345 831.8 937.677 832.091 937.885C832.382 938.072 833.462 938.487 834.48 938.778C836.702 939.422 837.554 939.38 839.527 938.445C840.711 937.885 841.376 937.324 843.889 934.748C847.794 930.76 849.02 929.223 852.405 924.134C855.459 919.543 855.854 918.899 856.809 916.905C857.162 916.199 857.765 915.181 858.18 914.641C858.595 914.101 859.239 913.021 859.634 912.232C860.049 911.442 861.254 909.469 862.355 907.849C863.435 906.249 864.578 904.442 864.848 903.882C865.138 903.3 865.678 902.469 866.052 902.012C866.426 901.555 867.382 900.018 868.192 898.585C868.981 897.152 870.103 895.22 870.664 894.306C871.224 893.371 871.785 892.353 871.91 892.021C872.014 891.689 872.429 890.671 872.782 889.757C874.133 886.413 874.506 885.062 874.423 883.733C874.299 882.092 873.198 879.454 872.138 878.353C871.702 877.876 871.349 877.398 871.349 877.252C871.349 876.858 869.77 875.611 868.233 874.822C867.465 874.407 866.779 874.074 866.759 874.074C866.717 874.074 865.969 874.386 865.097 874.781Z" fill="white"/>
</g>
</g>
<g filter="url(#filter4_b_71_301)">
<rect x="1221" y="699.921" width="426.041" height="372.414" rx="24" fill="url(#paint18_linear_71_301)" fill-opacity="0.5"/>
<rect x="1221.5" y="700.421" width="425.041" height="371.414" rx="23.5" stroke="url(#paint19_radial_71_301)"/>
<path fill-rule="evenodd" clip-rule="evenodd" d="M1482.63 948.628H1385.41C1377.74 948.628 1371.52 942.409 1371.52 934.739V837.517C1371.52 829.846 1377.74 823.628 1385.41 823.628H1482.63C1490.3 823.628 1496.52 829.846 1496.52 837.517V934.739C1496.52 942.409 1490.3 948.628 1482.63 948.628ZM1460.61 931.267H1479.16V893.161C1479.16 877.038 1470.02 869.243 1457.25 869.243C1444.48 869.243 1439.1 879.188 1439.1 879.188V871.081H1421.23V931.267H1439.1V899.673C1439.1 891.208 1443 886.17 1450.46 886.17C1457.32 886.17 1460.61 891.011 1460.61 899.673V931.267ZM1388.88 852.095C1388.88 858.228 1393.81 863.201 1399.9 863.201C1405.99 863.201 1410.92 858.228 1410.92 852.095C1410.92 845.962 1405.99 840.989 1399.9 840.989C1393.81 840.989 1388.88 845.962 1388.88 852.095ZM1409.31 931.267H1390.67V871.081H1409.31V931.267Z" fill="#FF5800"/>
</g>
<g filter="url(#filter5_b_71_301)">
<rect x="1682.79" y="699.921" width="426.041" height="372.414" rx="24" fill="url(#paint20_linear_71_301)" fill-opacity="0.5"/>
<rect x="1683.29" y="700.421" width="425.041" height="371.414" rx="23.5" stroke="url(#paint21_radial_71_301)"/>
<g clip-path="url(#clip3_71_301)">
<path d="M1880.03 835.057C1880.99 832.539 1882.31 830.221 1884.26 828.343C1892.1 820.711 1905.04 822.629 1910.36 832.219C1914.35 839.492 1918.59 846.606 1922.71 853.799C1929.58 865.747 1936.53 877.696 1943.33 889.684C1949.04 899.715 1942.85 912.382 1931.5 914.101C1924.54 915.14 1918.03 911.943 1914.43 905.709C1908.4 895.199 1902.33 884.689 1896.29 874.219C1896.17 873.979 1896.01 873.78 1895.85 873.58C1895.21 873.06 1894.93 872.301 1894.53 871.622C1891.86 866.906 1889.1 862.231 1886.42 857.555C1884.7 854.518 1882.9 851.521 1881.19 848.484C1879.63 845.766 1878.91 842.809 1878.99 839.692C1879.11 838.094 1879.31 836.495 1880.03 835.057Z" fill="#FF5800"/>
<path d="M1880.03 835.057C1879.67 836.495 1879.35 837.934 1879.27 839.452C1879.15 842.809 1879.99 845.926 1881.67 848.843C1886.06 856.396 1890.46 863.989 1894.81 871.582C1895.21 872.261 1895.53 872.94 1895.93 873.58C1893.53 877.736 1891.14 881.852 1888.7 886.008C1885.34 891.802 1881.99 897.637 1878.59 903.431C1878.43 903.431 1878.39 903.351 1878.35 903.231C1878.31 902.911 1878.43 902.632 1878.51 902.312C1880.15 896.318 1878.79 891.003 1874.67 886.447C1872.15 883.69 1868.96 882.131 1865.28 881.612C1860.49 880.933 1856.25 882.171 1852.45 885.169C1851.77 885.688 1851.33 886.447 1850.54 886.847C1850.38 886.847 1850.3 886.767 1850.26 886.647C1852.17 883.33 1854.05 880.013 1855.97 876.697C1863.88 862.95 1871.8 849.203 1879.75 835.496C1879.83 835.336 1879.95 835.216 1880.03 835.057Z" fill="#D34900"/>
<path d="M1850.42 886.767C1851.18 886.088 1851.89 885.368 1852.69 884.729C1862.4 877.056 1876.99 882.611 1879.11 894.759C1879.63 897.677 1879.35 900.474 1878.47 903.271C1878.43 903.511 1878.39 903.711 1878.31 903.951C1877.95 904.59 1877.63 905.269 1877.23 905.909C1873.67 911.783 1868.44 914.7 1861.57 914.261C1853.69 913.701 1847.5 907.787 1846.42 899.954C1845.9 896.158 1846.66 892.601 1848.62 889.325C1849.02 888.605 1849.5 887.966 1849.94 887.247C1850.14 887.087 1850.06 886.767 1850.42 886.767Z" fill="#FF7228"/>
<path d="M1850.42 886.767C1850.26 886.927 1850.26 887.207 1849.98 887.247C1849.94 886.967 1850.1 886.807 1850.26 886.607L1850.42 886.767Z" fill="#FABC04"/>
<path d="M1878.31 903.951C1878.15 903.671 1878.31 903.471 1878.47 903.271C1878.51 903.311 1878.59 903.391 1878.63 903.431L1878.31 903.951Z" fill="#E1C025"/>
<path d="M1853.97 927.688C1849.46 927.688 1845.7 931.324 1845.7 935.8C1845.7 940.276 1849.46 943.872 1853.97 943.872C1856.41 943.872 1858.21 943.073 1859.65 941.594C1861.13 940.116 1861.56 938.078 1861.56 936.439C1861.56 935.92 1861.53 935.44 1861.45 935.041H1853.97V937.239H1859.29C1859.13 938.477 1858.73 939.397 1858.09 940.036C1857.33 940.795 1856.09 941.674 1853.97 941.674C1850.7 941.674 1848.14 939.037 1848.14 935.8C1848.14 932.563 1850.7 929.926 1853.97 929.926C1855.73 929.926 1857.05 930.605 1857.97 931.524L1859.53 929.966C1858.21 928.687 1856.45 927.688 1853.97 927.688ZM1867.52 933.482C1864.68 933.482 1862.32 935.68 1862.32 938.757C1862.32 941.794 1864.64 944.032 1867.52 944.032C1870.4 944.032 1872.71 941.794 1872.71 938.757C1872.71 935.72 1870.36 933.482 1867.52 933.482ZM1867.52 941.954C1865.96 941.954 1864.6 940.635 1864.6 938.757C1864.6 936.879 1865.96 935.56 1867.52 935.56C1869.08 935.56 1870.44 936.839 1870.44 938.757C1870.44 940.635 1869.08 941.954 1867.52 941.954ZM1878.79 933.482C1875.91 933.482 1873.59 935.68 1873.59 938.757C1873.59 941.794 1875.91 944.032 1878.79 944.032C1881.63 944.032 1883.98 941.794 1883.98 938.757C1883.98 935.72 1881.67 933.482 1878.79 933.482ZM1878.79 941.954C1877.23 941.954 1875.87 940.635 1875.87 938.757C1875.87 936.879 1877.23 935.56 1878.79 935.56C1880.35 935.56 1881.71 936.839 1881.71 938.757C1881.71 940.635 1880.39 941.954 1878.79 941.954ZM1890.02 933.482C1887.42 933.482 1885.06 935.76 1885.06 938.717C1885.06 941.634 1887.42 943.912 1890.02 943.912C1891.26 943.912 1892.22 943.353 1892.74 942.713H1892.81V943.473C1892.81 945.471 1891.78 946.55 1890.06 946.55C1888.66 946.55 1887.82 945.551 1887.46 944.711L1885.46 945.551C1886.02 946.949 1887.54 948.628 1890.06 948.628C1892.74 948.628 1894.97 947.029 1894.97 943.193V933.842H1892.81V934.681H1892.74C1892.22 934.042 1891.26 933.482 1890.02 933.482ZM1890.22 941.874C1888.66 941.874 1887.34 940.555 1887.34 938.717C1887.34 936.879 1888.66 935.52 1890.22 935.52C1891.78 935.52 1892.97 936.879 1892.97 938.717C1892.97 940.555 1891.78 941.874 1890.22 941.874ZM1896.65 928.327H1898.93V943.752H1896.65V928.327ZM1905.04 933.482C1902.33 933.482 1900.05 935.6 1900.05 938.757C1900.05 941.714 1902.29 944.032 1905.28 944.032C1907.72 944.032 1909.12 942.553 1909.68 941.714L1907.88 940.515C1907.28 941.395 1906.44 941.954 1905.28 941.954C1904.08 941.954 1903.24 941.435 1902.73 940.356L1909.8 937.438L1909.56 936.839C1909.12 935.68 1907.76 933.482 1905.04 933.482ZM1902.33 938.597C1902.25 936.559 1903.92 935.52 1905.08 935.52C1906 935.52 1906.8 935.96 1907.04 936.639L1902.33 938.597Z" fill="white"/>
<path d="M1913.79 943.513L1919.07 929.486H1921.11L1926.38 943.513H1924.38L1923.03 939.716H1917.15L1915.79 943.513H1913.79ZM1917.75 938.038H1922.43L1920.15 931.724H1920.07L1917.75 938.038Z" fill="#757575"/>
<path d="M1928.22 942.354C1927.34 941.355 1926.9 940.156 1926.9 938.717C1926.9 937.319 1927.34 936.12 1928.22 935.081C1929.14 934.082 1930.18 933.602 1931.46 933.602C1932.18 933.602 1932.82 933.762 1933.38 934.042C1933.98 934.361 1934.42 934.721 1934.73 935.241H1934.81L1934.73 933.922V929.486H1936.53V943.513H1934.81V942.194H1934.73C1934.42 942.673 1933.98 943.073 1933.38 943.393C1932.78 943.712 1932.14 943.832 1931.46 943.832C1930.18 943.832 1929.1 943.353 1928.22 942.354ZM1933.9 941.235C1934.5 940.595 1934.77 939.756 1934.77 938.717C1934.77 937.718 1934.5 936.879 1933.9 936.24C1933.34 935.6 1932.62 935.281 1931.74 935.281C1930.86 935.281 1930.14 935.6 1929.58 936.24C1928.98 936.879 1928.7 937.718 1928.7 938.717C1928.7 939.716 1928.98 940.555 1929.58 941.195C1930.18 941.834 1930.9 942.154 1931.74 942.154C1932.62 942.194 1933.34 941.874 1933.9 941.235Z" fill="#757575"/>
<path d="M1944.85 942.953C1944.13 943.513 1943.21 943.832 1942.09 943.832C1941.13 943.832 1940.29 943.592 1939.53 943.073C1938.81 942.553 1938.29 941.914 1937.97 941.075L1939.57 940.396C1939.81 940.955 1940.13 941.435 1940.61 941.754C1941.05 942.074 1941.57 942.234 1942.09 942.234C1942.65 942.234 1943.13 942.114 1943.53 941.874C1943.93 941.634 1944.09 941.315 1944.09 940.995C1944.09 940.396 1943.61 939.916 1942.69 939.636L1941.05 939.237C1939.17 938.757 1938.25 937.878 1938.25 936.519C1938.25 935.64 1938.61 934.961 1939.33 934.401C1940.05 933.882 1940.97 933.602 1942.05 933.602C1942.89 933.602 1943.65 933.802 1944.37 934.201C1945.04 934.601 1945.52 935.161 1945.8 935.84L1944.21 936.519C1944.01 936.12 1943.73 935.8 1943.33 935.56C1942.93 935.32 1942.45 935.201 1941.93 935.201C1941.45 935.201 1941.05 935.32 1940.65 935.56C1940.29 935.8 1940.09 936.08 1940.09 936.439C1940.09 936.999 1940.61 937.398 1941.65 937.598L1943.09 937.958C1945 938.437 1945.92 939.396 1945.92 940.835C1945.96 941.674 1945.56 942.394 1944.85 942.953Z" fill="#757575"/>
</g>
</g>
<defs>
<filter id="filter0_f_71_301" x="-60.3516" y="-129.293" width="2571.59" height="2571.59" filterUnits="userSpaceOnUse" color-interpolation-filters="sRGB">
<feFlood flood-opacity="0" result="BackgroundImageFix"/>
<feBlend mode="normal" in="SourceGraphic" in2="BackgroundImageFix" result="shape"/>
<feGaussianBlur stdDeviation="250" result="effect1_foregroundBlur_71_301"/>
</filter>
<filter id="filter1_b_71_301" x="360.573" y="1090.09" width="883.614" height="408.414" filterUnits="userSpaceOnUse" color-interpolation-filters="sRGB">
<feFlood flood-opacity="0" result="BackgroundImageFix"/>
<feGaussianBlur in="BackgroundImageFix" stdDeviation="9"/>
<feComposite in2="SourceAlpha" operator="in" result="effect1_backgroundBlur_71_301"/>
<feBlend mode="normal" in="SourceGraphic" in2="effect1_backgroundBlur_71_301" result="shape"/>
</filter>
<filter id="filter2_b_71_301" x="1243.94" y="1090.09" width="883.614" height="408.414" filterUnits="userSpaceOnUse" color-interpolation-filters="sRGB">
<feFlood flood-opacity="0" result="BackgroundImageFix"/>
<feGaussianBlur in="BackgroundImageFix" stdDeviation="9"/>
<feComposite in2="SourceAlpha" operator="in" result="effect1_backgroundBlur_71_301"/>
<feBlend mode="normal" in="SourceGraphic" in2="effect1_backgroundBlur_71_301" result="shape"/>
</filter>
<filter id="filter3_bd_71_301" x="328.573" y="649.921" width="906.672" height="472.414" filterUnits="userSpaceOnUse" color-interpolation-filters="sRGB">
<feFlood flood-opacity="0" result="BackgroundImageFix"/>
<feGaussianBlur in="BackgroundImageFix" stdDeviation="25"/>
<feComposite in2="SourceAlpha" operator="in" result="effect1_backgroundBlur_71_301"/>
<feColorMatrix in="SourceAlpha" type="matrix" values="0 0 0 0 0 0 0 0 0 0 0 0 0 0 0 0 0 0 127 0" result="hardAlpha"/>
<feOffset dy="4"/>
<feGaussianBlur stdDeviation="15"/>
<feComposite in2="hardAlpha" operator="out"/>
<feColorMatrix type="matrix" values="0 0 0 0 0 0 0 0 0 0 0 0 0 0 0 0 0 0 0.17 0"/>
<feBlend mode="normal" in2="effect1_backgroundBlur_71_301" result="effect2_dropShadow_71_301"/>
<feBlend mode="normal" in="SourceGraphic" in2="effect2_dropShadow_71_301" result="shape"/>
</filter>
<filter id="filter4_b_71_301" x="1203" y="681.921" width="462.041" height="408.414" filterUnits="userSpaceOnUse" color-interpolation-filters="sRGB">
<feFlood flood-opacity="0" result="BackgroundImageFix"/>
<feGaussianBlur in="BackgroundImageFix" stdDeviation="9"/>
<feComposite in2="SourceAlpha" operator="in" result="effect1_backgroundBlur_71_301"/>
<feBlend mode="normal" in="SourceGraphic" in2="effect1_backgroundBlur_71_301" result="shape"/>
</filter>
<filter id="filter5_b_71_301" x="1664.79" y="681.921" width="462.041" height="408.414" filterUnits="userSpaceOnUse" color-interpolation-filters="sRGB">
<feFlood flood-opacity="0" result="BackgroundImageFix"/>
<feGaussianBlur in="BackgroundImageFix" stdDeviation="9"/>
<feComposite in2="SourceAlpha" operator="in" result="effect1_backgroundBlur_71_301"/>
<feBlend mode="normal" in="SourceGraphic" in2="effect1_backgroundBlur_71_301" result="shape"/>
</filter>
<radialGradient id="paint0_radial_71_301" cx="0" cy="0" r="1" gradientUnits="userSpaceOnUse" gradientTransform="translate(1225.44 1063.18) rotate(90) scale(810.991)">
<stop stop-color="#D9D9D9"/>
<stop offset="1" stop-color="#D9D9D9" stop-opacity="0"/>
</radialGradient>
<linearGradient id="paint1_linear_71_301" x1="-259" y1="655.231" x2="2765" y2="655.231" gradientUnits="userSpaceOnUse">
<stop stop-color="white" stop-opacity="0"/>
<stop offset="0.546875" stop-color="white"/>
<stop offset="1" stop-color="white" stop-opacity="0"/>
</linearGradient>
<linearGradient id="paint2_linear_71_301" x1="-259" y1="1519.23" x2="2765" y2="1519.23" gradientUnits="userSpaceOnUse">
<stop stop-color="white" stop-opacity="0"/>
<stop offset="0.546875" stop-color="white"/>
<stop offset="1" stop-color="white" stop-opacity="0"/>
</linearGradient>
<linearGradient id="paint3_linear_71_301" x1="-259" y1="1303.23" x2="2765" y2="1303.23" gradientUnits="userSpaceOnUse">
<stop stop-color="white" stop-opacity="0"/>
<stop offset="0.546875" stop-color="white"/>
<stop offset="1" stop-color="white" stop-opacity="0"/>
</linearGradient>
<linearGradient id="paint4_linear_71_301" x1="-259" y1="871.231" x2="2765" y2="871.231" gradientUnits="userSpaceOnUse">
<stop stop-color="white" stop-opacity="0"/>
<stop offset="0.546875" stop-color="white"/>
<stop offset="1" stop-color="white" stop-opacity="0"/>
</linearGradient>
<linearGradient id="paint5_linear_71_301" x1="332.393" y1="300.693" x2="332.393" y2="2012.31" gradientUnits="userSpaceOnUse">
<stop stop-color="white" stop-opacity="0"/>
<stop offset="0.546875" stop-color="white"/>
<stop offset="1" stop-color="white" stop-opacity="0"/>
</linearGradient>
<linearGradient id="paint6_linear_71_301" x1="639.262" y1="300.693" x2="639.262" y2="2012.31" gradientUnits="userSpaceOnUse">
<stop stop-color="white" stop-opacity="0"/>
<stop offset="0.546875" stop-color="white"/>
<stop offset="1" stop-color="white" stop-opacity="0"/>
</linearGradient>
<linearGradient id="paint7_linear_71_301" x1="946.131" y1="300.693" x2="946.131" y2="2012.31" gradientUnits="userSpaceOnUse">
<stop stop-color="white" stop-opacity="0"/>
<stop offset="0.546875" stop-color="white"/>
<stop offset="1" stop-color="white" stop-opacity="0"/>
</linearGradient>
<linearGradient id="paint8_linear_71_301" x1="1559.87" y1="300.693" x2="1559.87" y2="2012.31" gradientUnits="userSpaceOnUse">
<stop stop-color="white" stop-opacity="0"/>
<stop offset="0.546875" stop-color="white"/>
<stop offset="1" stop-color="white" stop-opacity="0"/>
</linearGradient>
<linearGradient id="paint9_linear_71_301" x1="1866.74" y1="300.693" x2="1866.74" y2="2012.31" gradientUnits="userSpaceOnUse">
<stop stop-color="white" stop-opacity="0"/>
<stop offset="0.546875" stop-color="white"/>
<stop offset="1" stop-color="white" stop-opacity="0"/>
</linearGradient>
<linearGradient id="paint10_linear_71_301" x1="2173.61" y1="300.693" x2="2173.61" y2="2012.31" gradientUnits="userSpaceOnUse">
<stop stop-color="white" stop-opacity="0"/>
<stop offset="0.546875" stop-color="white"/>
<stop offset="1" stop-color="white" stop-opacity="0"/>
</linearGradient>
<linearGradient id="paint11_linear_71_301" x1="378.573" y1="1108.09" x2="1217.99" y2="1470.82" gradientUnits="userSpaceOnUse">
<stop stop-color="#212121" stop-opacity="0.3"/>
<stop offset="0.536458" stop-color="#212121"/>
<stop offset="1" stop-color="#212121" stop-opacity="0"/>
</linearGradient>
<radialGradient id="paint12_radial_71_301" cx="0" cy="0" r="1" gradientUnits="userSpaceOnUse" gradientTransform="translate(802.38 1108.09) rotate(90) scale(372.414 872.058)">
<stop stop-color="white" stop-opacity="0.75"/>
<stop offset="0.53125" stop-color="white" stop-opacity="0"/>
<stop offset="1" stop-color="white" stop-opacity="0.15"/>
</radialGradient>
<linearGradient id="paint13_linear_71_301" x1="640.207" y1="1302.74" x2="717.956" y2="1306.66" gradientUnits="userSpaceOnUse">
<stop stop-color="#FF5800"/>
<stop offset="0.4" stop-color="#DC4C00"/>
<stop offset="0.83" stop-color="#FF5800"/>
<stop offset="1" stop-color="#FF5800"/>
</linearGradient>
<linearGradient id="paint14_linear_71_301" x1="633.925" y1="1311.37" x2="633.925" y2="1282.71" gradientUnits="userSpaceOnUse">
<stop stop-color="#FF5800"/>
<stop offset="1" stop-color="#F35400"/>
</linearGradient>
<linearGradient id="paint15_linear_71_301" x1="1261.94" y1="1108.09" x2="2101.36" y2="1470.82" gradientUnits="userSpaceOnUse">
<stop stop-color="#212121" stop-opacity="0.3"/>
<stop offset="0.536458" stop-color="#212121"/>
<stop offset="1" stop-color="#212121" stop-opacity="0"/>
</linearGradient>
<radialGradient id="paint16_radial_71_301" cx="0" cy="0" r="1" gradientUnits="userSpaceOnUse" gradientTransform="translate(1685.75 1108.09) rotate(90) scale(372.414 872.058)">
<stop stop-color="white" stop-opacity="0.75"/>
<stop offset="0.53125" stop-color="white" stop-opacity="0"/>
<stop offset="1" stop-color="white" stop-opacity="0.15"/>
</radialGradient>
<linearGradient id="paint17_linear_71_301" x1="373.359" y1="693.962" x2="1185.97" y2="1072.33" gradientUnits="userSpaceOnUse">
<stop stop-color="#FF5800"/>
<stop offset="0.53125" stop-color="#FF5800"/>
<stop offset="1" stop-color="#FF7B36" stop-opacity="0.95"/>
</linearGradient>
<linearGradient id="paint18_linear_71_301" x1="1221" y1="699.921" x2="1699.15" y2="803.775" gradientUnits="userSpaceOnUse">
<stop stop-color="#212121" stop-opacity="0.3"/>
<stop offset="0.536458" stop-color="#212121"/>
<stop offset="1" stop-color="#212121" stop-opacity="0"/>
</linearGradient>
<radialGradient id="paint19_radial_71_301" cx="0" cy="0" r="1" gradientUnits="userSpaceOnUse" gradientTransform="translate(1434.02 699.921) rotate(90) scale(372.414 438.328)">
<stop stop-color="white" stop-opacity="0.75"/>
<stop offset="0.53125" stop-color="white" stop-opacity="0"/>
<stop offset="1" stop-color="white" stop-opacity="0.15"/>
</radialGradient>
<linearGradient id="paint20_linear_71_301" x1="1682.79" y1="699.921" x2="2160.94" y2="803.775" gradientUnits="userSpaceOnUse">
<stop stop-color="#212121" stop-opacity="0.3"/>
<stop offset="0.536458" stop-color="#212121"/>
<stop offset="1" stop-color="#212121" stop-opacity="0"/>
</linearGradient>
<radialGradient id="paint21_radial_71_301" cx="0" cy="0" r="1" gradientUnits="userSpaceOnUse" gradientTransform="translate(1895.81 699.921) rotate(90) scale(372.414 438.328)">
<stop stop-color="white" stop-opacity="0.75"/>
<stop offset="0.53125" stop-color="white" stop-opacity="0"/>
<stop offset="1" stop-color="white" stop-opacity="0.15"/>
</radialGradient>
<clipPath id="clip0_71_301">
<rect width="372.251" height="75" fill="white" transform="translate(616.255 1256.79)"/>
</clipPath>
<clipPath id="clip1_71_301">
<rect width="299.362" height="87.2278" fill="white" transform="translate(1536.06 1236.49)"/>
</clipPath>
<clipPath id="clip2_71_301">
<rect width="285.572" height="125" fill="white" transform="translate(639.123 823.628)"/>
</clipPath>
<clipPath id="clip3_71_301">
<rect width="100.224" height="125" fill="white" transform="translate(1845.7 823.628)"/>
</clipPath>
</defs>
</svg>
