<svg width="60" height="61" fill="none" xmlns="http://www.w3.org/2000/svg"><g clip-path="url(#a)"><g clip-path="url(#b)"><g clip-path="url(#c)" stroke="#F7931E" stroke-width="4" stroke-linecap="round" stroke-linejoin="round"><path d="M24.413 5.197 8.36 15.677c-5.147 3.36-5.147 10.88 0 14.24l16.053 10.48c2.88 1.893 7.627 1.893 10.507 0l15.973-10.48c5.12-3.36 5.12-10.854 0-14.214L34.92 5.223c-2.88-1.92-7.627-1.92-10.507-.026Z"/><path opacity=".4" d="M12.626 33.33 12.6 45.838c0 3.387 2.613 7.014 5.813 8.08l8.506 2.827c1.467.48 3.894.48 5.387 0l8.507-2.827c3.2-1.066 5.813-4.693 5.813-8.08V33.464M54.683 38.45v-16"/></g></g></g><defs><clipPath id="a"><path fill="#fff" transform="translate(2.5 1.78)" d="M0 0h55v58H0z"/></clipPath><clipPath id="b"><path fill="#fff" transform="translate(2.5 1.78)" d="M0 0h55v58H0z"/></clipPath><clipPath id="c"><path fill="#fff" transform="translate(2.5 1.78)" d="M0 0h55v58H0z"/></clipPath></defs></svg>