<svg width="654" height="297" fill="none" xmlns="http://www.w3.org/2000/svg"><g filter="url(#a)"><rect x="30" y="26" width="593.572" height="237" rx="24" fill="url(#b)" shape-rendering="crispEdges"/><g clip-path="url(#c)" fill="#fff"><path d="M251.549 82.159c-1.225.083-1.994.228-2.098.394-.104.166-.353.229-.664.146-.291-.063-.769 0-1.122.187-.81.415-1.433.415-1.786 0-.229-.291-.624-.333-2.389-.25-1.953.084-2.264.167-3.905.956-2.285 1.1-3.469 1.288-4.279.706-.436-.332-.831-.415-1.641-.374-.582.021-1.122.125-1.205.187-.062.083-.291.146-.478.146-.207 0-.477.145-.623.311-.187.229-.353.25-.664.083-.333-.187-.499-.145-.852.187-.332.353-.478.374-.789.187-.312-.187-.499-.187-.811.02-.353.209-.436.209-.54-.061-.145-.353-.914-.437-.914-.084 0 .188-.415.208-1.454.104-1.37-.124-1.454-.104-1.454.291 0 .229-.083.416-.186.416-.084 0-.52.228-.935.519l-.748.498v-.477c0-.665-.208-.79-.727-.457-.54.353-2.368.394-2.763.083-.207-.166-.353-.146-.623.124-.332.333-.332.374.063.686.394.312.394.312-.104.187-1.35-.353-1.891-.374-2.576-.042-.395.187-.935.333-1.226.333-1.287 0-6.065 1.308-7.02 1.931-.27.187-1.413.582-2.534.894-1.143.311-2.348.768-2.701.997-.374.249-1.038.56-1.516.706-.457.124-1.018.436-1.226.665-.207.228-.519.415-.706.415-.187 0-.893.27-1.578.623-.686.332-1.392.623-1.579.623-.166 0-.997.52-1.828 1.143-.831.623-1.641 1.142-1.786 1.142-.146 0-.312.145-.395.312-.062.166-.291.311-.499.311-.228 0-.747.27-1.184.623-.436.333-.872.624-.976.624-.394 0-1.765 1.225-2.368 2.118a11.082 11.082 0 0 1-1.142 1.413c-.499.498-1.018 2.056-1.018 3.095 0 .997.706 2.658 1.433 3.344.436.395 1.039 1.101 1.371 1.558.976 1.35 2.638 3.012 3.469 3.448.436.208.935.623 1.122.893.394.623 2.035 1.039 3.385.831.52-.083 1.641-.457 2.493-.852 2.867-1.308 5.608-2.326 7.042-2.638.789-.166 2.305-.747 3.385-1.288 1.496-.747 2.285-1.017 3.386-1.121 1.039-.125 1.849-.374 2.908-.935 2.306-1.205 6.211-2.409 7.54-2.347l1.101.062-.706.893c-.395.478-.769 1.101-.831 1.392-.083.291-.27.686-.457.893-.353.395-.935 1.226-2.16 3.054a43.538 43.538 0 0 1-1.454 2.098c-.353.498-.665 1.225-.748 1.765-.104.769-.228.956-.789 1.226-.499.249-.873.768-1.704 2.368-.581 1.142-1.308 2.264-1.64 2.513-.333.291-.582.686-.582 1.039-.021.332-.312.851-.686 1.225-.353.353-.893 1.288-1.184 2.098-.311.789-.789 1.828-1.08 2.285-.27.457-.664 1.163-.872 1.558-.208.395-.769 1.308-1.246 1.994-.499.706-1.039 1.682-1.205 2.181-.312.914-1.6 3.656-3.324 7.042-.477.976-1.142 2.409-1.433 3.178-.311.789-.748 1.724-.976 2.077-.208.374-.395.851-.395 1.059 0 .229-.457 1.392-1.018 2.597-.56 1.204-1.121 2.596-1.267 3.094-.124.499-.374.956-.54 1.018-.332.125-.394.81-.083.997.353.208.229.52-.187.52-.54 0-2.783 4.112-2.7 4.943.042.353-.436 1.579-1.246 3.261-1.267 2.638-1.724 3.885-2.368 6.44-.166.685-.686 2.326-1.163 3.655-.478 1.33-1.184 3.677-1.579 5.193a419.64 419.64 0 0 0-1.122 4.238c-.208.789-.54 2.534-.727 3.842-.311 2.181-.311 2.722-.021 6.419.167 2.202.395 4.133.52 4.279.104.124.311.727.436 1.329.125.603.415 1.288.623 1.496.249.249.395.685.395 1.142 0 .623.041.706.291.519.228-.186.311-.166.415.104.104.27.312.312 1.059.208.935-.145.935-.145.935.457 0 .831.436 1.142 1.537 1.059.81-.083.893-.041.727.27-.249.457-.249.499.146.873.166.187.54.332.83.332.27 0 .499.083.499.208 0 .104.208.208.478.208s.561.083.685.207c.125.125.395.083.789-.104.727-.394.686-.394.811.104.166.603.56.499.83-.207.146-.374.395-.624.603-.624.664 0 1.038-.934 1.205-3.157.103-1.246.332-2.43.519-2.825.187-.353.436-1.288.54-2.077.104-.768.395-1.849.623-2.409.291-.686.353-1.081.208-1.226-.146-.145-.021-.436.415-.935.519-.581.623-.872.561-1.516-.062-.602-.021-.727.187-.561.208.166.27.021.27-.727 0-.602.104-.976.291-1.038.353-.146 1.786-2.95 1.786-3.511 0-.208.374-1.121.831-2.035.457-.914.831-1.849.831-2.078 0-.249.145-.415.374-.415.332 0 1.121-1.62 1.599-3.282.063-.249.229-.457.333-.457.103 0 .186-.228.186-.519 0-.374.187-.644.624-.893.374-.208.706-.644.851-1.081.457-1.391 2.098-4.465 2.721-5.089.353-.353.831-1.184 1.101-1.869.249-.685 6.585-14.229 14.063-30.119 7.498-15.89 13.667-29.08 13.75-29.329.083-.229.27-.54.416-.665.187-.166.228-.685.166-1.89-.062-1.06-.021-1.662.125-1.662.103 0 .27.249.332.54.208.831.332.499.436-1.225.062-1.247.021-1.6-.228-1.683-.187-.083-.291-.311-.25-.582.084-.706 1.745-1.454 3.241-1.495.644-.02 1.558-.208 2.015-.415.851-.374 13.522-3.78 14.914-3.989.415-.083.768-.062.768.042 0 .104-.581.976-1.288 1.952-1.848 2.576-2.887 4.217-4.092 6.523-.602 1.121-1.35 2.43-1.661 2.908-1.205 1.745-4.321 8.038-4.882 9.825-.124.394-.083.477.27.477.291 0 .437.125.437.395 0 .229.124.457.27.499.124.062-.104.124-.541.124-.602.021-.955.187-1.433.644-.374.374-.581.748-.498.935.062.166.187.457.249.623.083.208.042.312-.125.27-.332-.083-.415.083-2.513 4.715-.935 2.057-1.724 4.051-1.745 4.425-.041.373-.249.976-.478 1.35-.228.353-.477 1.08-.54 1.599-.083.519-.311 1.226-.54 1.558-.228.353-.415.831-.415 1.101 0 .249-.104.644-.249.852-.187.311-.187.54 0 .934.207.436.166.54-.167.644-.498.146-.685.769-.519 1.537.083.416.042.665-.166.79-.353.207-.769.955-.769 1.412 0 .166-.373 1.08-.81 2.036-.997 2.077-1.952 5.047-1.786 5.566.145.416-.852 4.716-1.184 5.11-.312.374-.789 2.368-.789 3.303 0 .457-.125 1.018-.291 1.246-.166.229-.249.623-.187.935.062.332-.042.769-.229 1.08-.228.332-.311.706-.207 1.059.083.354-.021.748-.333 1.268-.249.415-.415.934-.353 1.163.063.228-.02.664-.166.976-.145.312-.374 1.724-.498 3.157-.146 1.434-.395 3.386-.582 4.362-.332 1.807-.228 5.152.374 11.736.623 7 2.243 9.555 6.668 10.594 1.827.436 2.139.394 2.949-.333.976-.851 1.973-2.471 4.881-7.934a350.067 350.067 0 0 1 3.573-6.523c.623-1.038 1.724-2.949 2.472-4.237 1.807-3.116 5.068-8.08 6.418-9.742a28.905 28.905 0 0 0 1.932-2.762c.478-.769 1.537-2.182 2.389-3.116.872-.935 1.765-2.036 2.036-2.431.27-.394 1.204-1.412 2.077-2.264.872-.83 1.724-1.848 1.89-2.222.166-.395.436-.706.623-.706s.914-.52 1.599-1.143c.707-.623 1.6-1.288 1.974-1.454.353-.187.664-.436.664-.581 0-.457.312-.748 1.101-1.081.707-.29.79-.29.914 0 .063.208-.145.707-.519 1.226-.353.478-.748 1.35-.872 1.911-.333 1.371-.769 2.306-1.143 2.451-.478.166-.374.54.166.54.437.021.437.021.042.249-.519.291-.727.582-.727 1.039 0 .208-.187.561-.416.789-.228.229-.415.686-.415 1.039 0 .353-.436 1.911-.956 3.448-.519 1.558-.893 3.012-.851 3.24.062.249-.042.665-.27.977-.519.706-1.039 2.637-2.181 8.163-1.558 7.519-1.89 11.653-1.246 15.745.56 3.697.789 4.029 3.676 5.421 3.033 1.433 5.068 1.35 5.899-.27.187-.374.665-2.223 1.039-4.113 1.578-7.851 3.739-15.059 7.353-24.552.81-2.139 1.62-4.528 1.786-5.297.187-.768.499-1.89.707-2.451.436-1.142 1.578-5.109 1.869-6.439.104-.457.436-1.516.727-2.347s.623-2.223.706-3.116c.104-.872.353-2.7.52-4.05.332-2.347.332-2.472-.063-3.22-.54-1.059-2.825-3.178-4.092-3.801-.851-.415-1.329-.499-2.887-.499-1.807 0-1.973.042-4.466 1.101-3.552 1.537-10.552 6.19-11.487 7.686-.103.145-.56.498-1.038.81-1.267.789-3.614 2.929-4.113 3.739-.249.394-.665.81-.935.893-.374.145-.498.353-.498.831 0 .332.104.623.207.623.125 0 .208.104.208.228 0 .146-.249.187-.685.104-.665-.124-.79-.02-3.178 2.41-2.576 2.638-4.944 5.587-6.917 8.703-.644.976-1.558 2.285-2.057 2.908a82.043 82.043 0 0 1-1.412 1.787c-.706.934-1.018.872-.499-.084.229-.436.416-1.08.416-1.454 0-.394.166-.851.394-1.08.25-.249.437-.851.541-1.786.124-1.246.186-1.371.56-1.288.353.104.395.042.291-.374-.104-.374-.021-.561.312-.727.249-.145.374-.374.311-.54-.062-.166.021-.291.166-.291.333 0 .541-.436.541-1.121 0-.25.332-1.122.727-1.974.81-1.703.872-1.994.394-2.181-.311-.124-.311-.187.063-.602.997-1.122 3.738-6.875 4.299-9.015.166-.727.52-1.682.748-2.139.229-.437.415-1.039.415-1.309 0-.291.146-.644.354-.789.498-.436 1.474-2.617 1.641-3.698.083-.519.394-1.329.706-1.786.291-.457.851-1.392 1.225-2.077.374-.686.893-1.537 1.163-1.87.25-.353.52-.934.582-1.308.229-1.122 2.846-6.356 5.588-11.175a712.816 712.816 0 0 0 3.385-6.003c.437-.81 1.33-2.451 1.994-3.698 1.101-2.035 1.828-3.095 4.321-6.356.478-.602.914-1.329.976-1.599.063-.27.25-.499.416-.499.457 0 .976-.976.976-1.87 0-.913-.602-2.076-2.243-4.278-1.683-2.264-3.282-3.884-4.342-4.404-.519-.27-.955-.623-.955-.768 0-.436-.706-.769-.997-.478-.187.187-.249.125-.249-.29 0-.312-.146-.686-.312-.873-.166-.166-.312-.416-.312-.54 0-.125-.228-.312-.519-.416-.291-.104-.623-.436-.727-.727-.125-.311-.291-.477-.415-.415-.104.062-.457-.062-.769-.29-.332-.23-.935-.479-1.35-.562-.685-.104-.789-.083-.789.25-.021.332-.083.311-.478-.187-.519-.603-1.184-.748-1.184-.25 0 .166-.083.312-.208.312-.104 0-.207-.125-.207-.29 0-.292-.603-.437-3.116-.749-.748-.104-1.87-.27-2.493-.394-1.205-.208-7.104-.665-8.059-.603-.312.021-1.433.083-2.493.146Zm-9.866 21.124c-.187.187-.582-.124-.437-.373.084-.125.208-.125.354.02.124.125.166.27.083.353Zm.166.707c.166.27-.312.27-.727 0-.249-.167-.229-.208.145-.208.25 0 .52.083.582.208Zm16.534 31.842c-.021.25-.312.187-.395-.083-.062-.124.021-.207.167-.166.124.063.228.166.228.249ZM369.802 102.93c-1.683.769-4.695 3.843-6.128 6.252-1.599 2.68-3.095 7.374-2.825 8.87.27 1.433 4.238 4.694 5.733 4.694 1.163 0 5.421-3.78 7.208-6.418.478-.686 1.267-1.745 1.765-2.327.52-.581 1.33-1.848 1.828-2.804.873-1.662.914-1.786.665-2.555-.125-.436-.727-1.537-1.309-2.451-1.163-1.745-2.098-2.492-4.071-3.24-1.371-.52-1.807-.52-2.866-.021ZM324.042 131.013c-2.181 1.911-3.801 3.614-4.196 4.383a25.128 25.128 0 0 1-1.038 1.703c-.873 1.267-4.902 9.202-7.374 14.457-1.849 3.926-2.659 5.775-5.089 11.528-.976 2.306-2.306 4.84-2.929 5.567l-.415.457.145-.519c.062-.291.395-1.039.727-1.662.395-.768.602-1.454.602-2.077 0-1.225.27-2.16 1.371-4.736.499-1.163 1.018-2.576 1.143-3.116.124-.54.727-2.534 1.35-4.445.623-1.89 1.122-3.635 1.122-3.842 0-.208.207-.707.477-1.101.27-.395.79-1.434 1.164-2.285.394-.852.872-1.745 1.08-1.973.519-.582 1.017-1.849 1.017-2.576 0-1.101-2.866-4.404-5.068-5.858-1.267-.831-4.175-2.056-4.881-2.056-.644 0-1.786 1.122-3.012 2.991-1.163 1.745-2.409 4.092-2.409 4.507 0 .125-.167.478-.374.769-1.184 1.724-4.362 9.846-6.585 16.846-1.392 4.382-1.662 5.504-2.098 8.599-.27 1.932-.581 4.051-.706 4.695-.436 2.513-.852 7.124-.852 9.887-.021 4.819.81 10.718 1.683 11.943.934 1.33 5.733 4.259 7.623 4.653.935.208 1.973-.332 3.49-1.848 1.433-1.413 2.264-2.908 2.139-3.843-.083-.499-.021-.623.291-.623.602 0 1.059-.873.789-1.558-.124-.312-.187-.603-.166-.623.042-.021.27-.166.54-.291.249-.125.457-.332.457-.416 0-.103-.208-.228-.457-.311-.457-.125-.457-.146.229-.686.415-.332.955-1.08 1.287-1.848.333-.706.686-1.35.81-1.433.333-.208 1.143-1.911 2.098-4.383 1.06-2.825 3.905-9.68 4.113-9.95.104-.125.748-1.516 1.475-3.116.706-1.599 1.807-3.946 2.451-5.193.665-1.267 1.288-2.492 1.392-2.762.394-.893 5.006-7.852 6.813-10.303 3.219-4.3 6.48-7.395 7.851-7.395.312 0 1.122.395 1.87.914 2.305 1.558 6.169 3.407 8.308 3.947 2.306.582 5.962 1.059 6.855.872.332-.062.602-.083.602-.041 0 .021-.685 1.495-1.537 3.261-1.641 3.469-3.655 8.288-3.655 8.786 0 .167-.229.644-.499 1.06-.291.415-.623 1.288-.748 1.932-.498 2.513-.664 3.157-1.558 6.169-1.038 3.531-1.454 5.317-1.869 8.308-.81 5.65-.976 20.585-.249 22.496.477 1.246 1.288 2.243 2.077 2.534.374.145 1.184.478 1.828.748 2.929 1.246 3.78.478 5.172-4.798.374-1.371.893-3.012 1.184-3.635.27-.624.789-2.181 1.142-3.428.333-1.267.748-2.534.914-2.845.166-.312.291-.748.291-.997 0-.229.083-.416.208-.416.353 0 1.018-1.579 1.246-3.012.125-.768.499-1.952.852-2.638.353-.685 1.038-2.368 1.558-3.759.519-1.392 1.308-3.345 1.765-4.342 1.973-4.32 5.941-15.952 6.211-18.216.104-.873.436-2.306.727-3.199.748-2.306.706-3.718-.125-5.048-.955-1.495-3.448-3.884-4.715-4.528-.602-.311-1.682-.644-2.389-.748-2.471-.374-2.617-.436-3.759-1.578-1.953-1.932-1.911-1.911-6.045-1.787-3.012.083-3.822.042-4.881-.249-2.41-.685-7.603-3.033-9.887-4.487-.54-.332-1.122-.623-1.288-.623-.166 0-.416-.145-.54-.332-.146-.187-.623-.416-1.08-.499a48.38 48.38 0 0 1-1.849-.477 14.145 14.145 0 0 0-2.036-.416c-.955-.124-1.018-.104-2.181.914ZM441.672 131.74c-2.077.374-3.511 1.039-4.611 2.139-.478.457-1.06.852-1.309.852-.561 0-1.662 1.205-1.662 1.807 0 .333-.124.478-.415.478-.25 0-.603.312-.914.81-.291.436-.831.997-1.205 1.226-.623.373-1.579 1.35-4.528 4.507a23.883 23.883 0 0 0-1.371 1.662 44.035 44.035 0 0 1-1.662 2.098c-.581.706-1.682 2.472-2.451 3.946-.789 1.475-1.62 2.908-1.89 3.199-.665.706-2.742 4.238-3.033 5.172-.145.416-.789 1.911-1.433 3.344-2.43 5.36-3.635 9.036-4.133 12.734-.333 2.409-.291 9.368.062 10.635.291 1.059.955 2.783 1.558 4.029.664 1.413 5.899 5.339 9.575 7.187 2.161 1.08 6.003 2.015 8.081 1.974.747-.021 1.537.02 1.744.103.603.25 2.701-.041 2.971-.415.311-.415.498-.395.498.042 0 .311.042.29.416-.042.249-.208.581-.312.83-.249.25.062.831-.021 1.309-.166.478-.167 1.433-.478 2.119-.707 1.973-.644 3.905-1.495 4.362-1.911.228-.207.831-.519 1.308-.685 1.454-.519 2.638-1.454 8.475-6.668 1.62-1.454 5.027-5.567 9.015-10.905 5.006-6.688 5.941-8.454 6.169-11.445.208-2.825-1.018-5.567-3.136-7.021-1.87-1.288-2.784-.997-3.22.997-.311 1.475-1.246 3.427-2.347 4.902-1.163 1.558-6.875 7.623-10.573 11.217-4.279 4.175-7.083 6.481-9.035 7.415-.561.27-1.475.852-2.015 1.267-.561.416-1.143.769-1.33.769-.187 0-1.038.332-1.911.727-2.409 1.08-4.673 1.558-8.059 1.703l-2.929.125-.145-1.62c-.312-3.241.166-8.974.81-9.597.062-.062.685-.207 1.371-.291.851-.124 1.952-.54 3.469-1.308 1.246-.603 2.97-1.371 3.863-1.683 1.143-.415 1.89-.831 2.576-1.474.54-.499 1.142-.914 1.329-.914.208 0 .436-.104.499-.208.124-.208.935-.789 2.347-1.703.415-.25.644-.54.582-.707-.084-.187.041-.29.311-.29.54 0 2.804-1.6 4.466-3.158 1.288-1.204 5.733-5.982 4.944-5.317-.229.207-.52.374-.623.374-.208 0 .768-.81.997-.831.083 0 .56-.436 1.038-.956 2.825-3.053 5.463-7.457 5.775-9.596.083-.686.27-1.413.374-1.641.29-.519.664-3.988.664-5.982 0-1.745-.374-2.701-1.765-4.591-1.018-1.371-1.641-1.869-3.116-2.596-1.433-.686-2.181-.748-3.033-.25-.54.333-.602.333-.955 0-.229-.187-.81-.519-1.35-.768-.52-.229-1.06-.54-1.184-.706-.146-.167-.561-.374-.914-.437-.374-.083-1.06-.332-1.537-.54-1.018-.457-1.828-.477-4.113-.062Zm7.706 9.866c1.246.769 1.226 2.161-.104 4.82-1.059 2.118-4.279 6.252-6.792 8.744-2.202 2.202-2.597 2.535-3.178 2.721-.249.063-.436.27-.436.416 0 .166-.333.54-.727.852-.395.29-.727.664-.727.83 0 .146-.167.312-.395.395-.208.062-.54.291-.748.519-.208.229-.581.416-.831.416-.54 0-1.558.748-1.558 1.142 0 .166-.166.27-.353.249-.477-.02-2.305 1.06-2.617 1.538-.145.228-.353.394-.498.394-.146 0-.27.104-.27.249 0 .125-.042.187-.104.125-.166-.145 1.267-3.344 1.911-4.279.27-.415.872-1.475 1.308-2.347.437-.872 1.039-1.849 1.309-2.181.685-.81 1.849-3.386 1.703-3.822-.062-.208.229-.561.893-1.08 1.247-.935 2.867-3.033 3.158-4.134.166-.623.332-.81.664-.81.353 0 .395-.062.208-.249-.415-.416-.291-.582.457-.582.499 0 .748-.104.831-.374.125-.353 1.35-1.641 3.033-3.136.851-.769 1.038-.852 2.056-.852.768 0 1.329.125 1.807.436Zm.644 18.923c.042.603.021.624-.291.333-.166-.187-.27-.499-.208-.665.208-.54.457-.374.499.332ZM409.974 133.153c-2.057.893-2.493 1.225-4.466 3.302-1.994 2.119-3.49 4.3-5.588 8.226-1.786 3.344-1.931 3.593-3.136 5.214-.457.623-1.163 1.703-1.537 2.388-2.804 5.027-12.442 19.505-11.778 17.718.229-.623 1.62-7.02 2.223-10.24.332-1.724.831-4.154 1.122-5.401.29-1.267.685-3.448.851-4.881.187-1.433.478-3.24.644-4.009.852-4.071-.021-6.73-3.261-9.908-1.413-1.392-2.783-2.222-3.988-2.43-.623-.104-.79 0-1.558.872-.478.54-1.392 2.015-2.056 3.282-.665 1.267-1.641 3.157-2.181 4.196-.541 1.018-.997 2.036-.997 2.264 0 .208-.644 1.849-1.434 3.635-.789 1.787-1.495 3.614-1.578 4.071a7.18 7.18 0 0 1-.561 1.621c-.229.457-.353.997-.312 1.204.063.229.021.395-.062.395-.104 0-.249.623-.312 1.371-.124 1.018-.228 1.329-.436 1.246-.208-.083-.291.083-.291.623 0 .395-.104.935-.228 1.164-.166.332-.166.457.041.581.187.125.104.332-.311.852-.436.519-.54.81-.457 1.267.083.395.021.623-.166.706-.416.166-.499.602-.956 4.757-.457 4.175-.519 6.169-.208 6.771.167.312.146.395-.103.395-.374 0-.416.436-.042.81.208.208.166.312-.145.561-.395.27-.395.291-.021.685.187.229.311.561.228.748-.062.166 0 .54.125.831.187.436.166.582-.145.955-.333.333-.354.499-.167.811.208.29.187.436-.041.623-.353.291-.395.872-.125 1.412.104.187.312 1.288.436 2.43.374 3.469.748 4.861 1.621 6.128.415.623.914 1.142 1.08 1.142.166 0 .831.333 1.454.748.623.395 1.308.79 1.516.873.187.062.353.27.353.436 0 .457 1.309 1.495 2.41 1.911.561.208 1.246.54 1.537.748.291.187 1.371.602 2.389.893 2.222.644 3.074.602 5.047-.333 1.184-.56 1.849-1.121 4.362-3.697 3.905-3.988 5.131-5.525 8.516-10.614 3.054-4.591 3.448-5.235 4.404-7.229.353-.706.955-1.724 1.371-2.264.415-.54 1.059-1.62 1.454-2.409.415-.79 1.62-2.763 2.721-4.383 1.08-1.599 2.223-3.407 2.493-3.967.29-.582.83-1.413 1.204-1.87.374-.457 1.33-1.994 2.14-3.427a129.934 129.934 0 0 1 2.472-4.279c.56-.935 1.121-1.953 1.246-2.285.104-.332.519-1.35.872-2.264 1.35-3.344 1.724-4.694 1.641-6.024-.124-1.641-1.225-4.279-2.285-5.38-.436-.477-.789-.955-.789-1.101 0-.394-1.579-1.641-3.116-2.43-.768-.415-1.454-.748-1.474-.748-.042 0-.79.312-1.662.707Z"/></g></g><defs><linearGradient id="b" x1="26.163" y1="22.208" x2="590.239" y2="325.898" gradientUnits="userSpaceOnUse"><stop stop-color="#FF5800"/><stop offset=".531" stop-color="#FF5800"/><stop offset="1" stop-color="#FF7B36" stop-opacity=".95"/></linearGradient><clipPath id="c"><path fill="#fff" transform="translate(184 82)" d="M0 0h285.572v125H0z"/></clipPath><filter id="a" x="-20" y="-24" width="693.571" height="337" filterUnits="userSpaceOnUse" color-interpolation-filters="sRGB"><feFlood flood-opacity="0" result="BackgroundImageFix"/><feGaussianBlur in="BackgroundImageFix" stdDeviation="25"/><feComposite in2="SourceAlpha" operator="in" result="effect1_backgroundBlur_80_2"/><feColorMatrix in="SourceAlpha" values="0 0 0 0 0 0 0 0 0 0 0 0 0 0 0 0 0 0 127 0" result="hardAlpha"/><feOffset dy="4"/><feGaussianBlur stdDeviation="15"/><feComposite in2="hardAlpha" operator="out"/><feColorMatrix values="0 0 0 0 0 0 0 0 0 0 0 0 0 0 0 0 0 0 0.17 0"/><feBlend in2="effect1_backgroundBlur_80_2" result="effect2_dropShadow_80_2"/><feBlend in="SourceGraphic" in2="effect2_dropShadow_80_2" result="shape"/></filter></defs></svg>