<svg width="654" height="297" viewBox="0 0 654 297" fill="none" xmlns="http://www.w3.org/2000/svg">
<g filter="url(#filter0_bd_80_2)">
<rect x="30" y="26" width="593.572" height="237" rx="24" fill="url(#paint0_linear_80_2)" shape-rendering="crispEdges"/>
<g clip-path="url(#clip0_80_2)">
<path d="M251.549 82.1587C250.324 82.2418 249.555 82.3872 249.451 82.5533C249.347 82.7195 249.098 82.7818 248.787 82.6987C248.496 82.6364 248.018 82.6987 247.665 82.8857C246.855 83.3011 246.232 83.3011 245.879 82.8857C245.65 82.5949 245.255 82.5533 243.49 82.6364C241.537 82.7195 241.226 82.8026 239.585 83.5919C237.3 84.6928 236.116 84.8798 235.306 84.2982C234.87 83.9658 234.475 83.8827 233.665 83.9243C233.083 83.945 232.543 84.0489 232.46 84.1112C232.398 84.1943 232.169 84.2566 231.982 84.2566C231.775 84.2566 231.505 84.402 231.359 84.5682C231.172 84.7967 231.006 84.8174 230.695 84.6513C230.362 84.4643 230.196 84.5059 229.843 84.8382C229.511 85.1913 229.365 85.2121 229.054 85.0252C228.742 84.8382 228.555 84.8382 228.243 85.0459C227.89 85.2537 227.807 85.2537 227.703 84.9836C227.558 84.6305 226.789 84.5474 226.789 84.9005C226.789 85.0875 226.374 85.1083 225.335 85.0044C223.965 84.8798 223.881 84.9005 223.881 85.2952C223.881 85.5237 223.798 85.7106 223.695 85.7106C223.611 85.7106 223.175 85.9391 222.76 86.2299L222.012 86.7284V86.2507C222.012 85.586 221.804 85.4614 221.285 85.7937C220.745 86.1468 218.917 86.1884 218.522 85.8768C218.315 85.7106 218.169 85.7314 217.899 86.0014C217.567 86.3338 217.567 86.3753 217.962 86.6869C218.356 86.9985 218.356 86.9985 217.858 86.8738C216.508 86.5207 215.967 86.4999 215.282 86.8323C214.887 87.0192 214.347 87.1646 214.056 87.1646C212.769 87.1646 207.991 88.4732 207.036 89.0964C206.766 89.2833 205.623 89.678 204.502 89.9896C203.359 90.3012 202.154 90.7581 201.801 90.9866C201.427 91.2359 200.763 91.5474 200.285 91.6928C199.828 91.8175 199.267 92.1291 199.059 92.3575C198.852 92.586 198.54 92.773 198.353 92.773C198.166 92.773 197.46 93.043 196.775 93.3961C196.089 93.7285 195.383 94.0193 195.196 94.0193C195.03 94.0193 194.199 94.5386 193.368 95.1617C192.537 95.7849 191.727 96.3041 191.582 96.3041C191.436 96.3041 191.27 96.4495 191.187 96.6157C191.125 96.7819 190.896 96.9273 190.688 96.9273C190.46 96.9273 189.941 97.1973 189.504 97.5504C189.068 97.8828 188.632 98.1736 188.528 98.1736C188.134 98.1736 186.763 99.3991 186.16 100.292C185.828 100.791 185.309 101.414 185.018 101.705C184.519 102.203 184 103.761 184 104.8C184 105.797 184.706 107.458 185.433 108.144C185.869 108.539 186.472 109.245 186.804 109.702C187.78 111.052 189.442 112.714 190.273 113.15C190.709 113.358 191.208 113.773 191.395 114.043C191.789 114.666 193.43 115.082 194.78 114.874C195.3 114.791 196.421 114.417 197.273 114.022C200.14 112.714 202.881 111.696 204.315 111.384C205.104 111.218 206.62 110.637 207.7 110.096C209.196 109.349 209.985 109.079 211.086 108.975C212.125 108.85 212.935 108.601 213.994 108.04C216.3 106.835 220.205 105.631 221.534 105.693L222.635 105.755L221.929 106.648C221.534 107.126 221.16 107.749 221.098 108.04C221.015 108.331 220.828 108.726 220.641 108.933C220.288 109.328 219.706 110.159 218.481 111.987C218.045 112.672 217.38 113.607 217.027 114.085C216.674 114.583 216.362 115.31 216.279 115.85C216.175 116.619 216.051 116.806 215.49 117.076C214.991 117.325 214.617 117.844 213.786 119.444C213.205 120.586 212.478 121.708 212.146 121.957C211.813 122.248 211.564 122.643 211.564 122.996C211.543 123.328 211.252 123.847 210.878 124.221C210.525 124.574 209.985 125.509 209.694 126.319C209.383 127.108 208.905 128.147 208.614 128.604C208.344 129.061 207.95 129.767 207.742 130.162C207.534 130.557 206.973 131.47 206.496 132.156C205.997 132.862 205.457 133.838 205.291 134.337C204.979 135.251 203.691 137.993 201.967 141.379C201.49 142.355 200.825 143.788 200.534 144.557C200.223 145.346 199.786 146.281 199.558 146.634C199.35 147.008 199.163 147.485 199.163 147.693C199.163 147.922 198.706 149.085 198.145 150.29C197.585 151.494 197.024 152.886 196.878 153.384C196.754 153.883 196.504 154.34 196.338 154.402C196.006 154.527 195.944 155.212 196.255 155.399C196.608 155.607 196.484 155.919 196.068 155.919C195.528 155.919 193.285 160.031 193.368 160.862C193.41 161.215 192.932 162.441 192.122 164.123C190.855 166.761 190.398 168.008 189.754 170.563C189.588 171.248 189.068 172.889 188.591 174.218C188.113 175.548 187.407 177.895 187.012 179.411C186.596 180.948 186.098 182.839 185.89 183.649C185.682 184.438 185.35 186.183 185.163 187.491C184.852 189.672 184.852 190.213 185.142 193.91C185.309 196.112 185.537 198.043 185.662 198.189C185.766 198.313 185.973 198.916 186.098 199.518C186.223 200.121 186.513 200.806 186.721 201.014C186.97 201.263 187.116 201.699 187.116 202.156C187.116 202.779 187.157 202.862 187.407 202.675C187.635 202.489 187.718 202.509 187.822 202.779C187.926 203.049 188.134 203.091 188.881 202.987C189.816 202.842 189.816 202.842 189.816 203.444C189.816 204.275 190.252 204.586 191.353 204.503C192.163 204.42 192.246 204.462 192.08 204.773C191.831 205.23 191.831 205.272 192.226 205.646C192.392 205.833 192.766 205.978 193.056 205.978C193.326 205.978 193.555 206.061 193.555 206.186C193.555 206.29 193.763 206.394 194.033 206.394C194.303 206.394 194.594 206.477 194.718 206.601C194.843 206.726 195.113 206.684 195.507 206.497C196.234 206.103 196.193 206.103 196.318 206.601C196.484 207.204 196.878 207.1 197.148 206.394C197.294 206.02 197.543 205.77 197.751 205.77C198.415 205.77 198.789 204.836 198.956 202.613C199.059 201.367 199.288 200.183 199.475 199.788C199.662 199.435 199.911 198.5 200.015 197.711C200.119 196.943 200.41 195.862 200.638 195.302C200.929 194.616 200.991 194.221 200.846 194.076C200.7 193.931 200.825 193.64 201.261 193.141C201.78 192.56 201.884 192.269 201.822 191.625C201.76 191.023 201.801 190.898 202.009 191.064C202.217 191.23 202.279 191.085 202.279 190.337C202.279 189.735 202.383 189.361 202.57 189.299C202.923 189.153 204.356 186.349 204.356 185.788C204.356 185.58 204.73 184.667 205.187 183.753C205.644 182.839 206.018 181.904 206.018 181.675C206.018 181.426 206.163 181.26 206.392 181.26C206.724 181.26 207.513 179.64 207.991 177.978C208.054 177.729 208.22 177.521 208.324 177.521C208.427 177.521 208.51 177.293 208.51 177.002C208.51 176.628 208.697 176.358 209.134 176.109C209.508 175.901 209.84 175.465 209.985 175.028C210.442 173.637 212.083 170.563 212.706 169.939C213.059 169.586 213.537 168.755 213.807 168.07C214.056 167.385 220.392 153.841 227.87 137.951C235.368 122.061 241.537 108.871 241.62 108.622C241.703 108.393 241.89 108.082 242.036 107.957C242.223 107.791 242.264 107.272 242.202 106.067C242.14 105.007 242.181 104.405 242.327 104.405C242.43 104.405 242.597 104.654 242.659 104.945C242.867 105.776 242.991 105.444 243.095 103.72C243.157 102.473 243.116 102.12 242.867 102.037C242.68 101.954 242.576 101.726 242.617 101.455C242.701 100.749 244.362 100.001 245.858 99.9599C246.502 99.9392 247.416 99.7522 247.873 99.5445C248.724 99.1706 261.395 95.7641 262.787 95.5564C263.202 95.4733 263.555 95.494 263.555 95.5979C263.555 95.7018 262.974 96.5742 262.267 97.5504C260.419 100.126 259.38 101.767 258.175 104.073C257.573 105.194 256.825 106.503 256.514 106.981C255.309 108.726 252.193 115.019 251.632 116.806C251.508 117.2 251.549 117.283 251.902 117.283C252.193 117.283 252.339 117.408 252.339 117.678C252.339 117.907 252.463 118.135 252.609 118.177C252.733 118.239 252.505 118.301 252.068 118.301C251.466 118.322 251.113 118.488 250.635 118.945C250.261 119.319 250.054 119.693 250.137 119.88C250.199 120.046 250.324 120.337 250.386 120.503C250.469 120.711 250.428 120.815 250.261 120.773C249.929 120.69 249.846 120.856 247.748 125.488C246.813 127.545 246.024 129.539 246.003 129.913C245.962 130.286 245.754 130.889 245.525 131.263C245.297 131.616 245.048 132.343 244.985 132.862C244.902 133.381 244.674 134.088 244.445 134.42C244.217 134.773 244.03 135.251 244.03 135.521C244.03 135.77 243.926 136.165 243.781 136.373C243.594 136.684 243.594 136.913 243.781 137.307C243.988 137.743 243.947 137.847 243.614 137.951C243.116 138.097 242.929 138.72 243.095 139.488C243.178 139.904 243.137 140.153 242.929 140.278C242.576 140.485 242.16 141.233 242.16 141.69C242.16 141.856 241.787 142.77 241.35 143.726C240.353 145.803 239.398 148.773 239.564 149.292C239.709 149.708 238.712 154.008 238.38 154.402C238.068 154.776 237.591 156.77 237.591 157.705C237.591 158.162 237.466 158.723 237.3 158.951C237.134 159.18 237.051 159.574 237.113 159.886C237.175 160.218 237.071 160.655 236.884 160.966C236.656 161.298 236.573 161.672 236.677 162.025C236.76 162.379 236.656 162.773 236.344 163.293C236.095 163.708 235.929 164.227 235.991 164.456C236.054 164.684 235.971 165.12 235.825 165.432C235.68 165.744 235.451 167.156 235.327 168.589C235.181 170.023 234.932 171.975 234.745 172.951C234.413 174.758 234.517 178.103 235.119 184.687C235.742 191.687 237.362 194.242 241.787 195.281C243.614 195.717 243.926 195.675 244.736 194.948C245.712 194.097 246.709 192.477 249.617 187.014C250.968 184.48 252.588 181.551 253.19 180.491C253.813 179.453 254.914 177.542 255.662 176.254C257.469 173.138 260.73 168.174 262.08 166.512C262.683 165.764 263.555 164.518 264.012 163.75C264.49 162.981 265.549 161.568 266.401 160.634C267.273 159.699 268.166 158.598 268.437 158.203C268.707 157.809 269.641 156.791 270.514 155.939C271.386 155.109 272.238 154.091 272.404 153.717C272.57 153.322 272.84 153.011 273.027 153.011C273.214 153.011 273.941 152.491 274.626 151.868C275.333 151.245 276.226 150.58 276.6 150.414C276.953 150.227 277.264 149.978 277.264 149.833C277.264 149.376 277.576 149.085 278.365 148.752C279.072 148.462 279.155 148.462 279.279 148.752C279.342 148.96 279.134 149.459 278.76 149.978C278.407 150.456 278.012 151.328 277.888 151.889C277.555 153.26 277.119 154.195 276.745 154.34C276.267 154.506 276.371 154.88 276.911 154.88C277.348 154.901 277.348 154.901 276.953 155.129C276.434 155.42 276.226 155.711 276.226 156.168C276.226 156.376 276.039 156.729 275.81 156.957C275.582 157.186 275.395 157.643 275.395 157.996C275.395 158.349 274.959 159.907 274.439 161.444C273.92 163.002 273.546 164.456 273.588 164.684C273.65 164.933 273.546 165.349 273.318 165.661C272.799 166.367 272.279 168.298 271.137 173.824C269.579 181.343 269.247 185.477 269.891 189.569C270.451 193.266 270.68 193.598 273.567 194.99C276.6 196.423 278.635 196.34 279.466 194.72C279.653 194.346 280.131 192.497 280.505 190.607C282.083 182.756 284.244 175.548 287.858 166.055C288.668 163.916 289.478 161.527 289.644 160.758C289.831 159.99 290.143 158.868 290.351 158.307C290.787 157.165 291.929 153.198 292.22 151.868C292.324 151.411 292.656 150.352 292.947 149.521C293.238 148.69 293.57 147.298 293.653 146.405C293.757 145.533 294.006 143.705 294.173 142.355C294.505 140.008 294.505 139.883 294.11 139.135C293.57 138.076 291.285 135.957 290.018 135.334C289.167 134.919 288.689 134.835 287.131 134.835C285.324 134.835 285.158 134.877 282.665 135.936C279.113 137.473 272.113 142.126 271.178 143.622C271.075 143.767 270.618 144.12 270.14 144.432C268.873 145.221 266.526 147.361 266.027 148.171C265.778 148.565 265.362 148.981 265.092 149.064C264.718 149.209 264.594 149.417 264.594 149.895C264.594 150.227 264.698 150.518 264.801 150.518C264.926 150.518 265.009 150.622 265.009 150.746C265.009 150.892 264.76 150.933 264.324 150.85C263.659 150.726 263.534 150.83 261.146 153.26C258.57 155.898 256.202 158.847 254.229 161.963C253.585 162.939 252.671 164.248 252.172 164.871C251.695 165.494 251.051 166.304 250.76 166.658C250.054 167.592 249.742 167.53 250.261 166.574C250.49 166.138 250.677 165.494 250.677 165.12C250.677 164.726 250.843 164.269 251.071 164.04C251.321 163.791 251.508 163.189 251.612 162.254C251.736 161.008 251.798 160.883 252.172 160.966C252.525 161.07 252.567 161.008 252.463 160.592C252.359 160.218 252.442 160.031 252.775 159.865C253.024 159.72 253.149 159.491 253.086 159.325C253.024 159.159 253.107 159.034 253.252 159.034C253.585 159.034 253.793 158.598 253.793 157.913C253.793 157.663 254.125 156.791 254.52 155.939C255.33 154.236 255.392 153.945 254.914 153.758C254.603 153.634 254.603 153.571 254.977 153.156C255.974 152.034 258.715 146.281 259.276 144.141C259.442 143.414 259.796 142.459 260.024 142.002C260.253 141.565 260.439 140.963 260.439 140.693C260.439 140.402 260.585 140.049 260.793 139.904C261.291 139.468 262.267 137.287 262.434 136.206C262.517 135.687 262.828 134.877 263.14 134.42C263.431 133.963 263.991 133.028 264.365 132.343C264.739 131.657 265.258 130.806 265.528 130.473C265.778 130.12 266.048 129.539 266.11 129.165C266.339 128.043 268.956 122.809 271.698 117.99C273.131 115.476 274.647 112.776 275.083 111.987C275.52 111.177 276.413 109.536 277.077 108.289C278.178 106.254 278.905 105.194 281.398 101.933C281.876 101.331 282.312 100.604 282.374 100.334C282.437 100.064 282.624 99.8353 282.79 99.8353C283.247 99.8353 283.766 98.859 283.766 97.9659C283.766 97.0519 283.164 95.8887 281.523 93.6869C279.84 91.4228 278.241 89.8026 277.181 89.2833C276.662 89.0133 276.226 88.6602 276.226 88.5148C276.226 88.0786 275.52 87.7462 275.229 88.037C275.042 88.224 274.98 88.1617 274.98 87.7462C274.98 87.4347 274.834 87.0608 274.668 86.8738C274.502 86.7077 274.356 86.4584 274.356 86.3338C274.356 86.2091 274.128 86.0222 273.837 85.9183C273.546 85.8145 273.214 85.4821 273.11 85.1913C272.985 84.8798 272.819 84.7136 272.695 84.7759C272.591 84.8382 272.238 84.7136 271.926 84.4851C271.594 84.2566 270.991 84.0074 270.576 83.9243C269.891 83.8204 269.787 83.8412 269.787 84.1735C269.766 84.5059 269.704 84.4851 269.309 83.9866C268.79 83.3842 268.125 83.2388 268.125 83.7373C268.125 83.9035 268.042 84.0489 267.917 84.0489C267.813 84.0489 267.71 83.9243 267.71 83.7581C267.71 83.4673 267.107 83.3219 264.594 83.0103C263.846 82.9065 262.724 82.7403 262.101 82.6157C260.896 82.4079 254.997 81.951 254.042 82.0133C253.73 82.0341 252.609 82.0964 251.549 82.1587ZM241.683 103.283C241.496 103.47 241.101 103.159 241.246 102.91C241.33 102.785 241.454 102.785 241.6 102.93C241.724 103.055 241.766 103.2 241.683 103.283ZM241.849 103.99C242.015 104.26 241.537 104.26 241.122 103.99C240.873 103.823 240.893 103.782 241.267 103.782C241.517 103.782 241.787 103.865 241.849 103.99ZM258.383 135.832C258.362 136.082 258.071 136.019 257.988 135.749C257.926 135.625 258.009 135.542 258.155 135.583C258.279 135.646 258.383 135.749 258.383 135.832Z" fill="white"/>
<path d="M369.802 102.93C368.119 103.699 365.107 106.773 363.674 109.182C362.075 111.862 360.579 116.556 360.849 118.052C361.119 119.485 365.087 122.746 366.582 122.746C367.745 122.746 372.003 118.966 373.79 116.328C374.268 115.642 375.057 114.583 375.555 114.001C376.075 113.42 376.885 112.153 377.383 111.197C378.256 109.535 378.297 109.411 378.048 108.642C377.923 108.206 377.321 107.105 376.739 106.191C375.576 104.446 374.641 103.699 372.668 102.951C371.297 102.431 370.861 102.431 369.802 102.93Z" fill="white"/>
<path d="M324.042 131.013C321.861 132.924 320.241 134.627 319.846 135.396C319.618 135.811 319.161 136.58 318.808 137.099C317.935 138.366 313.906 146.301 311.434 151.556C309.585 155.482 308.775 157.331 306.345 163.084C305.369 165.39 304.039 167.924 303.416 168.651L303.001 169.108L303.146 168.589C303.208 168.298 303.541 167.55 303.873 166.927C304.268 166.159 304.475 165.473 304.475 164.85C304.475 163.625 304.745 162.69 305.846 160.114C306.345 158.951 306.864 157.538 306.989 156.998C307.113 156.458 307.716 154.464 308.339 152.553C308.962 150.663 309.461 148.918 309.461 148.711C309.461 148.503 309.668 148.004 309.938 147.61C310.208 147.215 310.728 146.176 311.102 145.325C311.496 144.473 311.974 143.58 312.182 143.352C312.701 142.77 313.199 141.503 313.199 140.776C313.199 139.675 310.333 136.372 308.131 134.918C306.864 134.087 303.956 132.862 303.25 132.862C302.606 132.862 301.464 133.984 300.238 135.853C299.075 137.598 297.829 139.945 297.829 140.36C297.829 140.485 297.662 140.838 297.455 141.129C296.271 142.853 293.093 150.975 290.87 157.975C289.478 162.357 289.208 163.479 288.772 166.574C288.502 168.506 288.191 170.625 288.066 171.269C287.63 173.782 287.214 178.393 287.214 181.156C287.193 185.975 288.024 191.874 288.897 193.099C289.831 194.429 294.63 197.358 296.52 197.752C297.455 197.96 298.493 197.42 300.01 195.904C301.443 194.491 302.274 192.996 302.149 192.061C302.066 191.562 302.128 191.438 302.44 191.438C303.042 191.438 303.499 190.565 303.229 189.88C303.105 189.568 303.042 189.277 303.063 189.257C303.105 189.236 303.333 189.091 303.603 188.966C303.852 188.841 304.06 188.634 304.06 188.55C304.06 188.447 303.852 188.322 303.603 188.239C303.146 188.114 303.146 188.093 303.832 187.553C304.247 187.221 304.787 186.473 305.119 185.705C305.452 184.999 305.805 184.355 305.929 184.272C306.262 184.064 307.072 182.361 308.027 179.889C309.087 177.064 311.932 170.209 312.14 169.939C312.244 169.814 312.888 168.423 313.615 166.823C314.321 165.224 315.422 162.877 316.066 161.63C316.731 160.363 317.354 159.138 317.458 158.868C317.852 157.975 322.464 151.016 324.271 148.565C327.49 144.265 330.751 141.17 332.122 141.17C332.434 141.17 333.244 141.565 333.992 142.084C336.297 143.642 340.161 145.491 342.3 146.031C344.606 146.613 348.262 147.09 349.155 146.903C349.487 146.841 349.757 146.82 349.757 146.862C349.757 146.883 349.072 148.357 348.22 150.123C346.579 153.592 344.565 158.411 344.565 158.909C344.565 159.076 344.336 159.553 344.066 159.969C343.775 160.384 343.443 161.257 343.318 161.901C342.82 164.414 342.654 165.058 341.76 168.07C340.722 171.601 340.306 173.387 339.891 176.378C339.081 182.028 338.915 196.963 339.642 198.874C340.119 200.12 340.93 201.117 341.719 201.408C342.093 201.553 342.903 201.886 343.547 202.156C346.476 203.402 347.327 202.634 348.719 197.358C349.093 195.987 349.612 194.346 349.903 193.723C350.173 193.099 350.692 191.542 351.045 190.295C351.378 189.028 351.793 187.761 351.959 187.45C352.125 187.138 352.25 186.702 352.25 186.453C352.25 186.224 352.333 186.037 352.458 186.037C352.811 186.037 353.476 184.458 353.704 183.025C353.829 182.257 354.203 181.073 354.556 180.387C354.909 179.702 355.594 178.019 356.114 176.628C356.633 175.236 357.422 173.283 357.879 172.286C359.852 167.966 363.82 156.334 364.09 154.07C364.194 153.197 364.526 151.764 364.817 150.871C365.565 148.565 365.523 147.153 364.692 145.823C363.737 144.328 361.244 141.939 359.977 141.295C359.375 140.984 358.295 140.651 357.588 140.547C355.117 140.173 354.971 140.111 353.829 138.969C351.876 137.037 351.918 137.058 347.784 137.182C344.772 137.265 343.962 137.224 342.903 136.933C340.493 136.248 335.3 133.9 333.016 132.446C332.476 132.114 331.894 131.823 331.728 131.823C331.562 131.823 331.312 131.678 331.188 131.491C331.042 131.304 330.565 131.075 330.108 130.992C329.671 130.889 328.84 130.681 328.259 130.515C327.698 130.348 326.784 130.162 326.223 130.099C325.268 129.975 325.205 129.995 324.042 131.013Z" fill="white"/>
<path d="M441.672 131.74C439.595 132.114 438.161 132.779 437.061 133.879C436.583 134.336 436.001 134.731 435.752 134.731C435.191 134.731 434.09 135.936 434.09 136.538C434.09 136.871 433.966 137.016 433.675 137.016C433.425 137.016 433.072 137.328 432.761 137.826C432.47 138.262 431.93 138.823 431.556 139.052C430.933 139.425 429.977 140.402 427.028 143.559C426.612 144.016 425.989 144.764 425.657 145.221C425.325 145.678 424.577 146.633 423.995 147.319C423.414 148.025 422.313 149.791 421.544 151.265C420.755 152.74 419.924 154.173 419.654 154.464C418.989 155.17 416.912 158.702 416.621 159.636C416.476 160.052 415.832 161.547 415.188 162.98C412.758 168.34 411.553 172.016 411.055 175.714C410.722 178.123 410.764 185.082 411.117 186.349C411.408 187.408 412.072 189.132 412.675 190.378C413.339 191.791 418.574 195.717 422.25 197.565C424.411 198.645 428.253 199.58 430.331 199.539C431.078 199.518 431.868 199.559 432.075 199.642C432.678 199.892 434.776 199.601 435.046 199.227C435.357 198.812 435.544 198.832 435.544 199.269C435.544 199.58 435.586 199.559 435.96 199.227C436.209 199.019 436.541 198.915 436.79 198.978C437.04 199.04 437.621 198.957 438.099 198.812C438.577 198.645 439.532 198.334 440.218 198.105C442.191 197.461 444.123 196.61 444.58 196.194C444.808 195.987 445.411 195.675 445.888 195.509C447.342 194.99 448.526 194.055 454.363 188.841C455.983 187.387 459.39 183.274 463.378 177.936C468.384 171.248 469.319 169.482 469.547 166.491C469.755 163.666 468.529 160.924 466.411 159.47C464.541 158.182 463.627 158.473 463.191 160.467C462.88 161.942 461.945 163.894 460.844 165.369C459.681 166.927 453.969 172.992 450.271 176.586C445.992 180.761 443.188 183.067 441.236 184.001C440.675 184.271 439.761 184.853 439.221 185.268C438.66 185.684 438.078 186.037 437.891 186.037C437.704 186.037 436.853 186.369 435.98 186.764C433.571 187.844 431.307 188.322 427.921 188.467L424.992 188.592L424.847 186.972C424.535 183.731 425.013 177.998 425.657 177.375C425.719 177.313 426.342 177.168 427.028 177.084C427.879 176.96 428.98 176.544 430.497 175.776C431.743 175.173 433.467 174.405 434.36 174.093C435.503 173.678 436.25 173.262 436.936 172.619C437.476 172.12 438.078 171.705 438.265 171.705C438.473 171.705 438.701 171.601 438.764 171.497C438.888 171.289 439.699 170.708 441.111 169.794C441.526 169.544 441.755 169.254 441.693 169.087C441.609 168.9 441.734 168.797 442.004 168.797C442.544 168.797 444.808 167.197 446.47 165.639C447.758 164.435 452.203 159.657 451.414 160.322C451.185 160.529 450.894 160.696 450.791 160.696C450.583 160.696 451.559 159.886 451.788 159.865C451.871 159.865 452.348 159.429 452.826 158.909C455.651 155.856 458.289 151.452 458.601 149.313C458.684 148.627 458.871 147.9 458.975 147.672C459.265 147.153 459.639 143.684 459.639 141.69C459.639 139.945 459.265 138.989 457.874 137.099C456.856 135.728 456.233 135.23 454.758 134.503C453.325 133.817 452.577 133.755 451.725 134.253C451.185 134.586 451.123 134.586 450.77 134.253C450.541 134.066 449.96 133.734 449.42 133.485C448.9 133.256 448.36 132.945 448.236 132.779C448.09 132.612 447.675 132.405 447.322 132.342C446.948 132.259 446.262 132.01 445.785 131.802C444.767 131.345 443.957 131.325 441.672 131.74ZM449.378 141.606C450.624 142.375 450.604 143.767 449.274 146.426C448.215 148.544 444.995 152.678 442.482 155.17C440.28 157.372 439.885 157.705 439.304 157.891C439.055 157.954 438.868 158.161 438.868 158.307C438.868 158.473 438.535 158.847 438.141 159.159C437.746 159.449 437.414 159.823 437.414 159.989C437.414 160.135 437.247 160.301 437.019 160.384C436.811 160.446 436.479 160.675 436.271 160.903C436.063 161.132 435.69 161.319 435.44 161.319C434.9 161.319 433.882 162.067 433.882 162.461C433.882 162.627 433.716 162.731 433.529 162.71C433.052 162.69 431.224 163.77 430.912 164.248C430.767 164.476 430.559 164.642 430.414 164.642C430.268 164.642 430.144 164.746 430.144 164.891C430.144 165.016 430.102 165.078 430.04 165.016C429.874 164.871 431.307 161.672 431.951 160.737C432.221 160.322 432.823 159.262 433.259 158.39C433.696 157.518 434.298 156.541 434.568 156.209C435.253 155.399 436.417 152.823 436.271 152.387C436.209 152.179 436.5 151.826 437.164 151.307C438.411 150.372 440.031 148.274 440.322 147.173C440.488 146.55 440.654 146.363 440.986 146.363C441.339 146.363 441.381 146.301 441.194 146.114C440.779 145.698 440.903 145.532 441.651 145.532C442.15 145.532 442.399 145.428 442.482 145.158C442.607 144.805 443.832 143.517 445.515 142.022C446.366 141.253 446.553 141.17 447.571 141.17C448.339 141.17 448.9 141.295 449.378 141.606ZM450.022 160.529C450.064 161.132 450.043 161.153 449.731 160.862C449.565 160.675 449.461 160.363 449.523 160.197C449.731 159.657 449.98 159.823 450.022 160.529Z" fill="white"/>
<path d="M409.974 133.153C407.917 134.046 407.481 134.378 405.508 136.455C403.514 138.574 402.018 140.755 399.92 144.681C398.134 148.025 397.989 148.274 396.784 149.895C396.327 150.518 395.621 151.598 395.247 152.283C392.443 157.31 382.805 171.788 383.469 170.001C383.698 169.378 385.089 162.981 385.692 159.761C386.024 158.037 386.523 155.607 386.814 154.36C387.104 153.093 387.499 150.912 387.665 149.479C387.852 148.046 388.143 146.239 388.309 145.47C389.161 141.399 388.288 138.74 385.048 135.562C383.635 134.17 382.265 133.34 381.06 133.132C380.437 133.028 380.27 133.132 379.502 134.004C379.024 134.544 378.11 136.019 377.446 137.286C376.781 138.553 375.805 140.443 375.265 141.482C374.724 142.5 374.268 143.518 374.268 143.746C374.268 143.954 373.624 145.595 372.834 147.381C372.045 149.168 371.339 150.995 371.256 151.452C371.173 151.889 370.923 152.636 370.695 153.073C370.466 153.53 370.342 154.07 370.383 154.277C370.446 154.506 370.404 154.672 370.321 154.672C370.217 154.672 370.072 155.295 370.009 156.043C369.885 157.061 369.781 157.372 369.573 157.289C369.365 157.206 369.282 157.372 369.282 157.912C369.282 158.307 369.178 158.847 369.054 159.076C368.888 159.408 368.888 159.533 369.095 159.657C369.282 159.782 369.199 159.989 368.784 160.509C368.348 161.028 368.244 161.319 368.327 161.776C368.41 162.171 368.348 162.399 368.161 162.482C367.745 162.648 367.662 163.084 367.205 167.239C366.748 171.414 366.686 173.408 366.997 174.01C367.164 174.322 367.143 174.405 366.894 174.405C366.52 174.405 366.478 174.841 366.852 175.215C367.06 175.423 367.018 175.527 366.707 175.776C366.312 176.046 366.312 176.067 366.686 176.461C366.873 176.69 366.997 177.022 366.914 177.209C366.852 177.375 366.914 177.749 367.039 178.04C367.226 178.476 367.205 178.622 366.894 178.995C366.561 179.328 366.54 179.494 366.727 179.806C366.935 180.096 366.914 180.242 366.686 180.429C366.333 180.72 366.291 181.301 366.561 181.841C366.665 182.028 366.873 183.129 366.997 184.271C367.371 187.74 367.745 189.132 368.618 190.399C369.033 191.022 369.532 191.541 369.698 191.541C369.864 191.541 370.529 191.874 371.152 192.289C371.775 192.684 372.46 193.079 372.668 193.162C372.855 193.224 373.021 193.432 373.021 193.598C373.021 194.055 374.33 195.093 375.431 195.509C375.992 195.717 376.677 196.049 376.968 196.257C377.259 196.444 378.339 196.859 379.357 197.15C381.579 197.794 382.431 197.752 384.404 196.817C385.588 196.257 386.253 195.696 388.766 193.12C392.671 189.132 393.897 187.595 397.282 182.506C400.336 177.915 400.73 177.271 401.686 175.277C402.039 174.571 402.641 173.553 403.057 173.013C403.472 172.473 404.116 171.393 404.511 170.604C404.926 169.814 406.131 167.841 407.232 166.221C408.312 164.622 409.455 162.814 409.725 162.254C410.015 161.672 410.555 160.841 410.929 160.384C411.303 159.927 412.259 158.39 413.069 156.957C413.858 155.524 414.98 153.592 415.541 152.678C416.101 151.743 416.662 150.725 416.787 150.393C416.891 150.061 417.306 149.043 417.659 148.129C419.009 144.785 419.383 143.435 419.3 142.105C419.176 140.464 418.075 137.826 417.015 136.725C416.579 136.248 416.226 135.77 416.226 135.624C416.226 135.23 414.647 133.983 413.11 133.194C412.342 132.779 411.656 132.446 411.636 132.446C411.594 132.446 410.846 132.758 409.974 133.153Z" fill="white"/>
</g>
</g>
<defs>
<filter id="filter0_bd_80_2" x="-20" y="-24" width="693.571" height="337" filterUnits="userSpaceOnUse" color-interpolation-filters="sRGB">
<feFlood flood-opacity="0" result="BackgroundImageFix"/>
<feGaussianBlur in="BackgroundImageFix" stdDeviation="25"/>
<feComposite in2="SourceAlpha" operator="in" result="effect1_backgroundBlur_80_2"/>
<feColorMatrix in="SourceAlpha" type="matrix" values="0 0 0 0 0 0 0 0 0 0 0 0 0 0 0 0 0 0 127 0" result="hardAlpha"/>
<feOffset dy="4"/>
<feGaussianBlur stdDeviation="15"/>
<feComposite in2="hardAlpha" operator="out"/>
<feColorMatrix type="matrix" values="0 0 0 0 0 0 0 0 0 0 0 0 0 0 0 0 0 0 0.17 0"/>
<feBlend mode="normal" in2="effect1_backgroundBlur_80_2" result="effect2_dropShadow_80_2"/>
<feBlend mode="normal" in="SourceGraphic" in2="effect2_dropShadow_80_2" result="shape"/>
</filter>
<linearGradient id="paint0_linear_80_2" x1="26.1635" y1="22.208" x2="590.239" y2="325.898" gradientUnits="userSpaceOnUse">
<stop stop-color="#FF5800"/>
<stop offset="0.53125" stop-color="#FF5800"/>
<stop offset="1" stop-color="#FF7B36" stop-opacity="0.95"/>
</linearGradient>
<clipPath id="clip0_80_2">
<rect width="285.572" height="125" fill="white" transform="translate(184 82)"/>
</clipPath>
</defs>
</svg>
