<svg width="61" height="61" viewBox="0 0 61 61" fill="none" xmlns="http://www.w3.org/2000/svg">
<g clip-path="url(#clip0_5_473)">
<g clip-path="url(#clip1_5_473)">
<g clip-path="url(#clip2_5_473)">
<path d="M26.5959 44.8053C26.5959 47.5531 25.5467 50.1761 23.5732 52.1745C22.0494 53.6983 19.976 54.7475 17.503 55.0723L11.3577 55.7467C8.01035 56.1215 5.13759 53.2737 5.53728 49.8763L6.21175 43.7311C6.81129 38.2604 11.3827 34.7631 16.229 34.6631C16.7286 34.6382 17.2532 34.6632 17.7278 34.6881C19.8511 34.9629 21.9245 35.9372 23.6232 37.6608C25.2969 39.3345 26.2462 41.283 26.521 43.3814C26.5459 43.856 26.5959 44.3306 26.5959 44.8053Z" stroke="#F7931E" stroke-width="3.74709" stroke-linecap="round" stroke-linejoin="round"/>
<g opacity="0.4">
<path d="M55.0243 10.6318C51.1773 20.2243 41.5348 33.2643 33.4661 39.7342L28.5449 43.6812C27.9204 44.1308 27.2959 44.5305 26.5964 44.8053C26.5964 44.3556 26.5715 43.856 26.4965 43.3814C26.2217 41.283 25.2725 39.3345 23.5988 37.6608C21.9002 35.9622 19.8268 34.9629 17.7034 34.6881C17.2038 34.6632 16.7042 34.6132 16.2046 34.6632C16.4794 33.8888 16.904 33.1643 17.4286 32.5648L21.3256 27.6436C27.7705 19.5748 40.8603 9.88242 50.4279 6.06039C51.9018 5.51082 53.3256 5.9105 54.2249 6.83479C55.1742 7.75907 55.6239 9.18296 55.0243 10.6318Z" stroke="#F7931E" stroke-width="3.74709" stroke-linecap="round" stroke-linejoin="round"/>
<path d="M36.1147 36.9373C36.1147 30.4174 30.8188 25.1216 24.2988 25.1216" stroke="#F7931E" stroke-width="3.74709" stroke-linecap="round" stroke-linejoin="round"/>
</g>
<path d="M50.8059 32.5901L52.6545 34.4136C56.3766 38.1357 56.3766 41.8079 52.6545 45.53L45.2602 52.9242C41.5881 56.5964 37.866 56.5964 34.1938 52.9242" stroke="#F7931E" stroke-width="3.74709" stroke-linecap="round"/>
<path d="M8.3127 27.0448C4.64056 23.3226 4.64056 19.6505 8.3127 15.9284L15.707 8.53414C19.3791 4.86199 23.1012 4.86199 26.7733 8.53414L28.6219 10.3827" stroke="#F7931E" stroke-width="3.74709" stroke-linecap="round"/>
<path opacity="0.4" d="M28.6481 10.4075L19.4053 19.6503" stroke="#F7931E" stroke-width="3.74709" stroke-linecap="round"/>
<path opacity="0.4" d="M50.8044 32.5901L43.4102 39.9593" stroke="#F7931E" stroke-width="3.74709" stroke-linecap="round"/>
</g>
</g>
</g>
<defs>
<clipPath id="clip0_5_473">
<rect width="54" height="54" fill="white" transform="translate(3.5 3.78003)"/>
</clipPath>
<clipPath id="clip1_5_473">
<rect width="54" height="54" fill="white" transform="translate(3.5 3.78003)"/>
</clipPath>
<clipPath id="clip2_5_473">
<rect width="54" height="54" fill="white" transform="translate(3.5 3.78003)"/>
</clipPath>
</defs>
</svg>
