<svg width="1401" height="1511" fill="none" xmlns="http://www.w3.org/2000/svg"><g opacity=".18" filter="url(#a)"><circle cx="755.5" cy="755.5" r="255.5" transform="rotate(-180 755.5 755.5)" fill="url(#b)"/></g><mask id="e" fill="#fff"><path fill-rule="evenodd" clip-rule="evenodd" d="M764.711 882.736c2.481 0 4.878-.359 7.142-1.028 2.167-.64 4.603.844 4.603 3.104v53.65c0 1.656 1.344 3 3 3h53.65c2.26 0 3.744 2.436 3.104 4.603a25.166 25.166 0 0 0-1.028 7.142c0 13.9 11.269 25.168 25.169 25.168s25.168-11.268 25.168-25.168c0-2.481-.359-4.878-1.028-7.142-.64-2.167.844-4.603 3.104-4.603h53.65a3 3 0 0 0 3-3v-53.65c0-2.26-2.436-3.744-4.604-3.104a25.164 25.164 0 0 1-7.141 1.028c-13.9 0-25.169-11.269-25.169-25.169s11.269-25.168 25.169-25.168c2.48 0 4.877.359 7.141 1.028 2.168.64 4.604-.844 4.604-3.104v-53.65a3 3 0 0 0-3-3h-53.65c-2.26 0-3.744-2.436-3.104-4.604a25.16 25.16 0 0 0 1.028-7.141c0-13.9-11.268-25.168-25.168-25.168-13.9 0-25.169 11.268-25.169 25.168 0 2.481.359 4.877 1.028 7.141.64 2.168-.844 4.604-3.104 4.604h-53.65a3 3 0 0 0-3 3v53.65c0 2.26-2.436 3.744-4.603 3.104a25.166 25.166 0 0 0-7.142-1.028c-13.9 0-25.168 11.268-25.168 25.168 0 13.9 11.268 25.169 25.168 25.169Z"/></mask><path fill-rule="evenodd" clip-rule="evenodd" d="M764.711 882.736c2.481 0 4.878-.359 7.142-1.028 2.167-.64 4.603.844 4.603 3.104v53.65c0 1.656 1.344 3 3 3h53.65c2.26 0 3.744 2.436 3.104 4.603a25.166 25.166 0 0 0-1.028 7.142c0 13.9 11.269 25.168 25.169 25.168s25.168-11.268 25.168-25.168c0-2.481-.359-4.878-1.028-7.142-.64-2.167.844-4.603 3.104-4.603h53.65a3 3 0 0 0 3-3v-53.65c0-2.26-2.436-3.744-4.604-3.104a25.164 25.164 0 0 1-7.141 1.028c-13.9 0-25.169-11.269-25.169-25.169s11.269-25.168 25.169-25.168c2.48 0 4.877.359 7.141 1.028 2.168.64 4.604-.844 4.604-3.104v-53.65a3 3 0 0 0-3-3h-53.65c-2.26 0-3.744-2.436-3.104-4.604a25.16 25.16 0 0 0 1.028-7.141c0-13.9-11.268-25.168-25.168-25.168-13.9 0-25.169 11.268-25.169 25.168 0 2.481.359 4.877 1.028 7.141.64 2.168-.844 4.604-3.104 4.604h-53.65a3 3 0 0 0-3 3v53.65c0 2.26-2.436 3.744-4.603 3.104a25.166 25.166 0 0 0-7.142-1.028c-13.9 0-25.168 11.268-25.168 25.168 0 13.9 11.268 25.169 25.168 25.169Z" fill="url(#c)" fill-opacity=".5"/><path d="M739.543 857.567h-1 1Zm32.31-24.14.283-.959-.283.959Zm115.742-59.754v1-1Zm-3.104-4.604-.959-.283.959.283Zm55.15 112.639-.283-.959.283.959ZM836.21 769.069l-.959.284.959-.284Zm108.035 7.604h-1 1Zm-3-3v1-1Zm-56.754 172.392-.959.283.959-.283Zm55.15-112.638.284-.959-.284.959Zm4.604-3.104h-1 1Zm-172.392 51.385.283.959-.283-.959Zm-.283-.959a24.173 24.173 0 0 1-6.859.987v2c2.578 0 5.07-.373 7.425-1.069l-.566-1.918Zm5.886 57.713v-53.65h-2v53.65h2Zm55.65 2h-53.65v2h53.65v-2Zm3.076 12.745c0-2.384.345-4.686.987-6.859l-1.918-.566a26.16 26.16 0 0 0-1.069 7.425h2Zm24.169 24.168c-13.348 0-24.169-10.821-24.169-24.168h-2c0 14.452 11.716 26.168 26.169 26.168v-2Zm24.168-24.168c0 13.347-10.821 24.168-24.168 24.168v2c14.452 0 26.168-11.716 26.168-26.168h-2Zm-.987-6.859c.642 2.173.987 4.475.987 6.859h2c0-2.578-.373-5.07-1.069-7.425l-1.918.566Zm57.713-5.886h-53.65v2h53.65v-2Zm2-55.65v53.65h2v-53.65h-2Zm-3.887-4.063a24.166 24.166 0 0 1-6.858.987v2c2.577 0 5.07-.373 7.425-1.069l-.567-1.918Zm-6.858.987c-13.348 0-24.169-10.821-24.169-24.169h-2c0 14.453 11.716 26.169 26.169 26.169v-2Zm-24.169-24.169c0-13.347 10.821-24.168 24.169-24.168v-2c-14.453 0-26.169 11.716-26.169 26.168h2Zm24.169-24.168c2.384 0 4.685.345 6.858.987l.567-1.918a26.165 26.165 0 0 0-7.425-1.069v2Zm10.745-56.726v53.65h2v-53.65h-2Zm-55.65-2h53.65v-2h-53.65v2Zm-3.076-12.745c0 2.384-.345 4.685-.987 6.858l1.918.567a26.16 26.16 0 0 0 1.069-7.425h-2Zm-24.168-24.168c13.347 0 24.168 10.82 24.168 24.168h2c0-14.452-11.716-26.168-26.168-26.168v2Zm-24.169 24.168c0-13.348 10.821-24.168 24.169-24.168v-2c-14.453 0-26.169 11.716-26.169 26.168h2Zm.987 6.858a24.166 24.166 0 0 1-.987-6.858h-2c0 2.577.373 5.07 1.069 7.425l1.918-.567Zm-57.713 5.887h53.65v-2h-53.65v2Zm-2 55.65v-53.65h-2v53.65h2Zm-12.745 3.076c2.384 0 4.686.345 6.859.987l.566-1.918a26.16 26.16 0 0 0-7.425-1.069v2Zm-24.168 24.168c0-13.347 10.82-24.168 24.168-24.168v-2c-14.452 0-26.168 11.716-26.168 26.168h2Zm24.168 24.169c-13.348 0-24.168-10.821-24.168-24.169h-2c0 14.453 11.716 26.169 26.168 26.169v-2Zm10.745-51.413c0 1.452-1.653 2.637-3.32 2.145l-.566 1.918c2.667.788 5.886-.996 5.886-4.063h-2Zm112.139-57.65c-1.452 0-2.637-1.653-2.145-3.32l-1.918-.567c-.788 2.668.996 5.887 4.063 5.887v-2Zm-108.139 0a4 4 0 0 0-4 4h2a2 2 0 0 1 2-2v-2Zm165.789 112.139c0-3.068-3.219-4.851-5.887-4.063l.567 1.918c1.667-.492 3.32.693 3.32 2.145h2ZM835.251 769.353c.492 1.667-.693 3.32-2.145 3.32v2c3.068 0 4.851-3.219 4.063-5.887l-1.918.567Zm105.994 173.109a4 4 0 0 0 4-4h-2a2 2 0 0 1-2 2v2Zm4-165.789a4 4 0 0 0-4-4v2a2 2 0 0 1 2 2h2ZM833.106 942.462c1.452 0 2.637 1.653 2.145 3.32l1.918.566c.788-2.667-.995-5.886-4.063-5.886v2Zm52.344 3.32c-.492-1.667.693-3.32 2.145-3.32v-2c-3.067 0-4.851 3.219-4.063 5.886l1.918-.566Zm53.908-111.396c2.668.788 5.887-.996 5.887-4.063h-2c0 1.452-1.653 2.637-3.32 2.145l-.567 1.918ZM775.456 938.462a4 4 0 0 0 4 4v-2a2 2 0 0 1-2-2h-2Zm-3.32-55.795c1.667-.492 3.32.693 3.32 2.145h2c0-3.068-3.219-4.851-5.886-4.063l.566 1.918Z" fill="url(#d)" mask="url(#e)"/><g filter="url(#f)"><path d="M556.654 882.735c2.481 0 4.877-.358 7.141-1.027 2.168-.64 4.604.844 4.604 3.104v53.649a3 3 0 0 0 3 3h53.65c2.26 0 3.744-2.436 3.104-4.603a25.166 25.166 0 0 1-1.028-7.142c0-13.9 11.268-25.168 25.168-25.168 13.9 0 25.169 11.268 25.169 25.168 0 2.481-.359 4.878-1.028 7.142-.64 2.167.844 4.603 3.104 4.603h53.649a3 3 0 0 0 3-3v-53.649c0-2.26-2.436-3.744-4.603-3.104a25.166 25.166 0 0 1-7.142 1.027c-13.9 0-25.168-11.268-25.168-25.168 0-13.9 11.268-25.168 25.168-25.168 2.481 0 4.878.359 7.142 1.028 2.167.64 4.603-.844 4.603-3.104l.001-53.65a3 3 0 0 0-3-3h-53.65c-2.26 0-3.744 2.436-3.104 4.604a25.16 25.16 0 0 1 1.028 7.141c0 13.9-11.269 25.168-25.169 25.168s-25.168-11.268-25.168-25.168c0-2.481.359-4.877 1.028-7.141.64-2.168-.844-4.604-3.104-4.604h-53.65a3 3 0 0 0-3 3v53.65c0 2.26-2.436 3.744-4.604 3.104a25.16 25.16 0 0 0-7.141-1.028c-13.9 0-25.168 11.268-25.168 25.168 0 13.9 11.268 25.168 25.168 25.168Z" fill="#FF5800"/></g><path fill-rule="evenodd" clip-rule="evenodd" d="M556.654 882.735c2.48 0 4.877-.358 7.141-1.027 2.168-.64 4.604.844 4.604 3.104v53.649a3 3 0 0 0 3 3h53.65c2.259 0 3.744-2.436 3.103-4.603a25.201 25.201 0 0 1-1.027-7.142c0-13.9 11.268-25.168 25.168-25.168 13.9 0 25.168 11.268 25.168 25.168 0 2.481-.359 4.878-1.027 7.142-.64 2.167.844 4.603 3.104 4.603h53.649a3 3 0 0 0 3-3v-53.649c0-2.26-2.436-3.744-4.603-3.104a25.166 25.166 0 0 1-7.142 1.027c-13.9 0-25.168-11.268-25.168-25.168 0-13.9 11.268-25.168 25.168-25.168 2.481 0 4.878.359 7.142 1.028 2.167.64 4.603-.844 4.603-3.104v-53.65a3 3 0 0 0-3-3h-53.649c-2.26 0-3.744 2.436-3.104 4.604a25.194 25.194 0 0 1 1.027 7.141c0 13.9-11.268 25.168-25.168 25.168-13.9 0-25.168-11.268-25.168-25.168 0-2.481.359-4.877 1.027-7.141.641-2.168-.844-4.604-3.103-4.604h-53.65a3 3 0 0 0-3 3v53.65c0 2.26-2.436 3.744-4.604 3.104a25.164 25.164 0 0 0-7.141-1.028c-13.9 0-25.169 11.268-25.169 25.168 0 13.9 11.269 25.168 25.169 25.168Z" fill="#FF5800"/><mask id="i" fill="#fff"><path fill-rule="evenodd" clip-rule="evenodd" d="M628.153 570.219c.64-2.167-.844-4.604-3.104-4.604h-53.65a3 3 0 0 0-3 3v53.65c0 2.26 2.436 3.744 4.604 3.104a25.16 25.16 0 0 1 7.141-1.028c13.9 0 25.168 11.268 25.168 25.168 0 13.901-11.268 25.169-25.168 25.169a25.16 25.16 0 0 1-7.141-1.028c-2.168-.64-4.604.844-4.604 3.104v53.65a3 3 0 0 0 3 3h53.65c2.26 0 3.744 2.436 3.104 4.603a25.166 25.166 0 0 0-1.028 7.142c0 13.9 11.268 25.168 25.168 25.168 13.9 0 25.168-11.268 25.168-25.168 0-2.481-.358-4.878-1.027-7.142-.64-2.167.844-4.603 3.104-4.603h53.649a3 3 0 0 0 3-3v-53.65c0-2.26 2.437-3.744 4.604-3.104a25.166 25.166 0 0 0 7.142 1.028c13.9 0 25.168-11.268 25.168-25.169 0-13.9-11.268-25.168-25.168-25.168-2.481 0-4.878.359-7.142 1.028-2.167.64-4.604-.844-4.604-3.104v-53.65a3 3 0 0 0-3-3h-53.649c-2.26 0-3.744 2.437-3.104 4.604a25.164 25.164 0 0 1 1.027 7.141c0 13.9-11.268 25.169-25.168 25.169-13.9 0-25.168-11.269-25.168-25.169 0-2.48.359-4.877 1.028-7.141Z"/></mask><path fill-rule="evenodd" clip-rule="evenodd" d="M628.153 570.219c.64-2.167-.844-4.604-3.104-4.604h-53.65a3 3 0 0 0-3 3v53.65c0 2.26 2.436 3.744 4.604 3.104a25.16 25.16 0 0 1 7.141-1.028c13.9 0 25.168 11.268 25.168 25.168 0 13.901-11.268 25.169-25.168 25.169a25.16 25.16 0 0 1-7.141-1.028c-2.168-.64-4.604.844-4.604 3.104v53.65a3 3 0 0 0 3 3h53.65c2.26 0 3.744 2.436 3.104 4.603a25.166 25.166 0 0 0-1.028 7.142c0 13.9 11.268 25.168 25.168 25.168 13.9 0 25.168-11.268 25.168-25.168 0-2.481-.358-4.878-1.027-7.142-.64-2.167.844-4.603 3.104-4.603h53.649a3 3 0 0 0 3-3v-53.65c0-2.26 2.437-3.744 4.604-3.104a25.166 25.166 0 0 0 7.142 1.028c13.9 0 25.168-11.268 25.168-25.169 0-13.9-11.268-25.168-25.168-25.168-2.481 0-4.878.359-7.142 1.028-2.167.64-4.604-.844-4.604-3.104v-53.65a3 3 0 0 0-3-3h-53.649c-2.26 0-3.744 2.437-3.104 4.604a25.164 25.164 0 0 1 1.027 7.141c0 13.9-11.268 25.169-25.168 25.169-13.9 0-25.168-11.269-25.168-25.169 0-2.48.359-4.877 1.028-7.141Z" fill="url(#g)" fill-opacity=".5"/><path d="m676.434 570.219-.959.283.959-.283Zm64.357 103.431-.283.959.283-.959Zm-115.742 59.754v-1 1Zm3.104 4.603.959.284-.959-.284Zm112.638-112.638-.283-.959.283.959ZM571.399 733.404v-1 1Zm161.788 0v-1 1ZM573.003 673.65l.283-.959-.283.959Zm103.431 64.357-.959.284.959-.284Zm3.104-4.603v-1 1ZM571.399 565.615v1-1Zm53.65 0v1-1Zm0-1h-53.65v2h53.65v-2Zm-57.65 4v53.65h2v-53.65h-2Zm5.887 57.713a24.166 24.166 0 0 1 6.858-.987v-2c-2.578 0-5.07.373-7.425 1.069l.567 1.918Zm6.858-.987c13.348 0 24.168 10.821 24.168 24.168h2c0-14.452-11.716-26.168-26.168-26.168v2Zm24.168 24.168c0 13.348-10.82 24.169-24.168 24.169v2c14.452 0 26.168-11.716 26.168-26.169h-2Zm-24.168 24.169c-2.384 0-4.685-.345-6.858-.987l-.567 1.918a26.16 26.16 0 0 0 7.425 1.069v-2Zm-12.745 3.076v53.65h2v-53.65h-2Zm4 57.65h53.65v-2h-53.65v2Zm55.794 3.32a26.195 26.195 0 0 0-1.068 7.425h2c0-2.384.345-4.685.987-6.858l-1.919-.567Zm-1.068 7.425c0 14.452 11.716 26.168 26.168 26.168v-2c-13.348 0-24.168-10.82-24.168-24.168h-2Zm26.168 26.168c14.453 0 26.168-11.716 26.168-26.168h-2c0 13.348-10.82 24.168-24.168 24.168v2Zm26.168-26.168c0-2.578-.373-5.07-1.068-7.425l-1.918.567c.642 2.173.986 4.474.986 6.858h2Zm1.077-10.745h53.649v-2h-53.649v2Zm57.649-4v-53.65h-2v53.65h2Zm3.321-55.795a26.16 26.16 0 0 0 7.425 1.069v-2c-2.384 0-4.686-.345-6.859-.987l-.566 1.918Zm7.425 1.069c14.452 0 26.168-11.716 26.168-26.169h-2c0 13.348-10.821 24.169-24.168 24.169v2Zm26.168-26.169c0-14.452-11.716-26.168-26.168-26.168v2c13.347 0 24.168 10.821 24.168 24.168h2Zm-26.168-26.168c-2.578 0-5.07.373-7.425 1.069l.566 1.918a24.173 24.173 0 0 1 6.859-.987v-2Zm-10.746-1.076v-53.65h-2v53.65h2Zm-4-57.65h-53.649v2h53.649v-2Zm-57.712 5.887a24.17 24.17 0 0 1 .986 6.858h2c0-2.577-.373-5.069-1.068-7.424l-1.918.566Zm.986 6.858c0 13.348-10.82 24.169-24.168 24.169v2c14.452 0 26.168-11.716 26.168-26.169h-2Zm-24.168 24.169c-13.348 0-24.168-10.821-24.168-24.169h-2c0 14.453 11.716 26.169 26.168 26.169v-2Zm-24.168-24.169c0-2.383.345-4.685.987-6.858l-1.919-.566a26.193 26.193 0 0 0-1.068 7.424h2Zm51.413-12.745c-3.068 0-4.851 3.219-4.063 5.887l1.918-.566c-.493-1.667.692-3.321 2.145-3.321v-2Zm57.649 112.139c0-1.452 1.654-2.637 3.321-2.145l.566-1.918c-2.667-.788-5.887.996-5.887 4.063h2Zm0-108.139a4 4 0 0 0-4-4v2a2 2 0 0 1 2 2h2ZM625.049 734.404c1.452 0 2.637 1.653 2.144 3.32l1.919.567c.788-2.668-.996-5.887-4.063-5.887v2ZM740.508 624.41c-1.667.492-3.321-.693-3.321-2.145h-2c0 3.067 3.22 4.851 5.887 4.063l-.566-1.918ZM567.399 730.404a4 4 0 0 0 4 4v-2a2 2 0 0 1-2-2h-2Zm165.788 4a4 4 0 0 0 4-4h-2a2 2 0 0 1-2 2v2ZM567.399 622.265c0 3.067 3.219 4.851 5.887 4.063l-.567-1.918c-1.667.492-3.32-.693-3.32-2.145h-2Zm5.887 50.426c-2.668-.788-5.887.996-5.887 4.063h2c0-1.452 1.653-2.637 3.32-2.145l.567-1.918Zm104.107 65.033c-.493-1.667.692-3.32 2.145-3.32v-2c-3.068 0-4.851 3.219-4.063 5.887l1.918-.567ZM571.399 564.615a4 4 0 0 0-4 4h2a2 2 0 0 1 2-2v-2Zm53.65 2c1.452 0 2.637 1.654 2.144 3.321l1.919.566c.787-2.668-.996-5.887-4.063-5.887v2Z" fill="url(#h)" mask="url(#i)"/><g opacity=".3"><path stroke="url(#j)" d="M1107 941.961H409"/><path stroke="url(#k)" d="M1107 754.039H409"/><path stroke="url(#l)" d="M1107 566.115H409"/><path stroke="url(#m)" d="M945.423 1022V510.245"/><path stroke="url(#n)" d="M757.5 1022V510.245"/><path stroke="url(#o)" d="M569.577 1022V510.245"/></g><circle cx="945.5" cy="565.745" r="2.5" transform="rotate(-180 945.5 565.745)" fill="#D9D9D9" fill-opacity=".5"/><circle cx="757.5" cy="565.745" r="2.5" transform="rotate(-180 757.5 565.745)" fill="#D9D9D9" fill-opacity=".5"/><ellipse cx="569" cy="565.745" rx="2" ry="2.5" transform="rotate(-180 569 565.745)" fill="#D9D9D9" fill-opacity=".5"/><circle cx="945.5" cy="942.745" r="2.5" transform="rotate(-180 945.5 942.745)" fill="#D9D9D9" fill-opacity=".5"/><circle cx="757.5" cy="942.745" r="2.5" transform="rotate(-180 757.5 942.745)" fill="#D9D9D9" fill-opacity=".5"/><circle cx="757.5" cy="754.745" r="2.5" transform="rotate(-180 757.5 754.745)" fill="#D9D9D9" fill-opacity=".5"/><ellipse cx="569" cy="942.745" rx="2" ry="2.5" transform="rotate(-180 569 942.745)" fill="#D9D9D9" fill-opacity=".5"/><defs><linearGradient id="c" x1="739.543" y1="978.375" x2="800.135" y2="707.993" gradientUnits="userSpaceOnUse"><stop stop-color="#212121" stop-opacity=".3"/><stop offset=".536" stop-color="#212121"/><stop offset="1" stop-color="#212121" stop-opacity="0"/></linearGradient><linearGradient id="g" x1="568.399" y1="565.615" x2="800.606" y2="609.702" gradientUnits="userSpaceOnUse"><stop stop-color="#212121" stop-opacity=".3"/><stop offset=".536" stop-color="#212121"/><stop offset="1" stop-color="#212121" stop-opacity="0"/></linearGradient><linearGradient id="j" x1="1107" y1="941.461" x2="409" y2="941.461" gradientUnits="userSpaceOnUse"><stop stop-color="#fff" stop-opacity="0"/><stop offset=".547" stop-color="#fff"/><stop offset="1" stop-color="#fff" stop-opacity="0"/></linearGradient><linearGradient id="k" x1="1107" y1="753.539" x2="409" y2="753.539" gradientUnits="userSpaceOnUse"><stop offset=".074" stop-color="#fff" stop-opacity=".22"/><stop offset=".51" stop-color="#fff" stop-opacity="0"/><stop offset=".92" stop-color="#fff" stop-opacity=".18"/></linearGradient><linearGradient id="l" x1="1107" y1="565.615" x2="409" y2="565.615" gradientUnits="userSpaceOnUse"><stop stop-color="#fff" stop-opacity="0"/><stop offset=".547" stop-color="#fff"/><stop offset="1" stop-color="#fff" stop-opacity="0"/></linearGradient><linearGradient id="m" x1="945.923" y1="1022" x2="945.923" y2="510.245" gradientUnits="userSpaceOnUse"><stop stop-color="#fff" stop-opacity="0"/><stop offset=".547" stop-color="#fff"/><stop offset="1" stop-color="#fff" stop-opacity="0"/></linearGradient><linearGradient id="n" x1="758" y1="1022" x2="758" y2="510.245" gradientUnits="userSpaceOnUse"><stop offset=".146" stop-color="#fff" stop-opacity=".27"/><stop offset=".547" stop-color="#fff" stop-opacity="0"/><stop offset=".88" stop-color="#fff" stop-opacity=".26"/></linearGradient><linearGradient id="o" x1="570.077" y1="1022" x2="570.077" y2="510.245" gradientUnits="userSpaceOnUse"><stop stop-color="#fff" stop-opacity="0"/><stop offset=".547" stop-color="#fff"/><stop offset="1" stop-color="#fff" stop-opacity="0"/></linearGradient><radialGradient id="b" cx="0" cy="0" r="1" gradientUnits="userSpaceOnUse" gradientTransform="rotate(90 15.172 740.328) scale(263.693)"><stop stop-color="#D9D9D9"/><stop offset="1" stop-color="#D9D9D9" stop-opacity="0"/></radialGradient><radialGradient id="d" cx="0" cy="0" r="1" gradientUnits="userSpaceOnUse" gradientTransform="matrix(204.702 0 0 248.583 739.543 857.567)"><stop stop-color="#fff" stop-opacity=".75"/><stop offset=".531" stop-color="#fff" stop-opacity="0"/><stop offset="1" stop-color="#fff" stop-opacity=".15"/></radialGradient><radialGradient id="h" cx="0" cy="0" r="1" gradientUnits="userSpaceOnUse" gradientTransform="matrix(0 204.702 -210.605 0 670.75 565.615)"><stop stop-color="#fff" stop-opacity=".75"/><stop offset=".531" stop-color="#fff" stop-opacity="0"/><stop offset="1" stop-color="#fff" stop-opacity=".15"/></radialGradient><filter id="a" x="0" y="0" width="1511" height="1511" filterUnits="userSpaceOnUse" color-interpolation-filters="sRGB"><feFlood flood-opacity="0" result="BackgroundImageFix"/><feBlend in="SourceGraphic" in2="BackgroundImageFix" result="shape"/><feGaussianBlur stdDeviation="250" result="effect1_foregroundBlur_76_844"/></filter><filter id="f" x="513.485" y="755.673" width="240.702" height="203.789" filterUnits="userSpaceOnUse" color-interpolation-filters="sRGB"><feFlood flood-opacity="0" result="BackgroundImageFix"/><feBlend in="SourceGraphic" in2="BackgroundImageFix" result="shape"/><feGaussianBlur stdDeviation="9" result="effect1_foregroundBlur_76_844"/></filter></defs></svg>