<svg width="1401" height="1511" viewBox="0 0 1401 1511" fill="none" xmlns="http://www.w3.org/2000/svg">
<g opacity="0.18" filter="url(#filter0_f_76_844)">
<circle cx="755.5" cy="755.5" r="255.5" transform="rotate(-180 755.5 755.5)" fill="url(#paint0_radial_76_844)"/>
</g>
<mask id="path-2-inside-1_76_844" fill="white">
<path fill-rule="evenodd" clip-rule="evenodd" d="M764.711 882.736C767.192 882.736 769.589 882.377 771.853 881.708C774.02 881.068 776.456 882.552 776.456 884.812L776.456 938.462C776.456 940.118 777.8 941.462 779.456 941.462L833.106 941.462C835.366 941.462 836.85 943.898 836.21 946.065C835.541 948.329 835.182 950.726 835.182 953.207C835.182 967.107 846.451 978.375 860.351 978.375C874.251 978.375 885.519 967.107 885.519 953.207C885.519 950.726 885.16 948.329 884.491 946.065C883.851 943.898 885.335 941.462 887.595 941.462L941.245 941.462C942.902 941.462 944.245 940.118 944.245 938.462L944.245 884.812C944.245 882.552 941.809 881.068 939.641 881.708C937.377 882.377 934.98 882.736 932.5 882.736C918.6 882.736 907.331 871.467 907.331 857.567C907.331 843.667 918.6 832.399 932.5 832.399C934.98 832.399 937.377 832.758 939.641 833.427C941.809 834.067 944.245 832.583 944.245 830.323L944.245 776.673C944.245 775.016 942.902 773.673 941.245 773.673L887.595 773.673C885.335 773.673 883.851 771.237 884.491 769.069C885.16 766.805 885.519 764.409 885.519 761.928C885.519 748.028 874.251 736.76 860.351 736.76C846.451 736.76 835.182 748.028 835.182 761.928C835.182 764.409 835.541 766.805 836.21 769.069C836.85 771.237 835.366 773.673 833.106 773.673L779.456 773.673C777.8 773.673 776.456 775.016 776.456 776.673L776.456 830.323C776.456 832.583 774.02 834.067 771.853 833.427C769.589 832.758 767.192 832.399 764.711 832.399C750.811 832.399 739.543 843.667 739.543 857.567C739.543 871.467 750.811 882.736 764.711 882.736Z"/>
</mask>
<path fill-rule="evenodd" clip-rule="evenodd" d="M764.711 882.736C767.192 882.736 769.589 882.377 771.853 881.708C774.02 881.068 776.456 882.552 776.456 884.812L776.456 938.462C776.456 940.118 777.8 941.462 779.456 941.462L833.106 941.462C835.366 941.462 836.85 943.898 836.21 946.065C835.541 948.329 835.182 950.726 835.182 953.207C835.182 967.107 846.451 978.375 860.351 978.375C874.251 978.375 885.519 967.107 885.519 953.207C885.519 950.726 885.16 948.329 884.491 946.065C883.851 943.898 885.335 941.462 887.595 941.462L941.245 941.462C942.902 941.462 944.245 940.118 944.245 938.462L944.245 884.812C944.245 882.552 941.809 881.068 939.641 881.708C937.377 882.377 934.98 882.736 932.5 882.736C918.6 882.736 907.331 871.467 907.331 857.567C907.331 843.667 918.6 832.399 932.5 832.399C934.98 832.399 937.377 832.758 939.641 833.427C941.809 834.067 944.245 832.583 944.245 830.323L944.245 776.673C944.245 775.016 942.902 773.673 941.245 773.673L887.595 773.673C885.335 773.673 883.851 771.237 884.491 769.069C885.16 766.805 885.519 764.409 885.519 761.928C885.519 748.028 874.251 736.76 860.351 736.76C846.451 736.76 835.182 748.028 835.182 761.928C835.182 764.409 835.541 766.805 836.21 769.069C836.85 771.237 835.366 773.673 833.106 773.673L779.456 773.673C777.8 773.673 776.456 775.016 776.456 776.673L776.456 830.323C776.456 832.583 774.02 834.067 771.853 833.427C769.589 832.758 767.192 832.399 764.711 832.399C750.811 832.399 739.543 843.667 739.543 857.567C739.543 871.467 750.811 882.736 764.711 882.736Z" fill="url(#paint1_linear_76_844)" fill-opacity="0.5"/>
<path d="M739.543 857.567L738.543 857.567L739.543 857.567ZM771.853 833.427L772.136 832.468L771.853 833.427ZM887.595 773.673L887.595 774.673L887.595 773.673ZM884.491 769.069L883.532 768.786L884.491 769.069ZM939.641 881.708L939.358 880.749L939.641 881.708ZM836.21 769.069L835.251 769.353L836.21 769.069ZM944.245 776.673L943.245 776.673L944.245 776.673ZM941.245 773.673L941.245 774.673L941.245 773.673ZM884.491 946.065L883.532 946.348L884.491 946.065ZM939.641 833.427L939.925 832.468L939.641 833.427ZM944.245 830.323L943.245 830.323L944.245 830.323ZM771.853 881.708L772.136 882.667L771.853 881.708ZM771.57 880.749C769.397 881.391 767.095 881.736 764.711 881.736L764.711 883.736C767.289 883.736 769.781 883.363 772.136 882.667L771.57 880.749ZM777.456 938.462L777.456 884.812L775.456 884.812L775.456 938.462L777.456 938.462ZM833.106 940.462L779.456 940.462L779.456 942.462L833.106 942.462L833.106 940.462ZM836.182 953.207C836.182 950.823 836.527 948.521 837.169 946.348L835.251 945.782C834.555 948.137 834.182 950.629 834.182 953.207L836.182 953.207ZM860.351 977.375C847.003 977.375 836.182 966.554 836.182 953.207L834.182 953.207C834.182 967.659 845.898 979.375 860.351 979.375L860.351 977.375ZM884.519 953.207C884.519 966.554 873.698 977.375 860.351 977.375L860.351 979.375C874.803 979.375 886.519 967.659 886.519 953.207L884.519 953.207ZM883.532 946.348C884.174 948.521 884.519 950.823 884.519 953.207L886.519 953.207C886.519 950.629 886.146 948.137 885.45 945.782L883.532 946.348ZM941.245 940.462L887.595 940.462L887.595 942.462L941.245 942.462L941.245 940.462ZM943.245 884.812L943.245 938.462L945.245 938.462L945.245 884.812L943.245 884.812ZM939.358 880.749C937.185 881.391 934.884 881.736 932.5 881.736L932.5 883.736C935.077 883.736 937.57 883.363 939.925 882.667L939.358 880.749ZM932.5 881.736C919.152 881.736 908.331 870.915 908.331 857.567L906.331 857.567C906.331 872.02 918.047 883.736 932.5 883.736L932.5 881.736ZM908.331 857.567C908.331 844.22 919.152 833.399 932.5 833.399L932.5 831.399C918.047 831.399 906.331 843.115 906.331 857.567L908.331 857.567ZM932.5 833.399C934.884 833.399 937.185 833.744 939.358 834.386L939.925 832.468C937.57 831.772 935.077 831.399 932.5 831.399L932.5 833.399ZM943.245 776.673L943.245 830.323L945.245 830.323L945.245 776.673L943.245 776.673ZM887.595 774.673L941.245 774.673L941.245 772.673L887.595 772.673L887.595 774.673ZM884.519 761.928C884.519 764.312 884.174 766.613 883.532 768.786L885.45 769.353C886.146 766.998 886.519 764.506 886.519 761.928L884.519 761.928ZM860.351 737.76C873.698 737.76 884.519 748.58 884.519 761.928L886.519 761.928C886.519 747.476 874.803 735.76 860.351 735.76L860.351 737.76ZM836.182 761.928C836.182 748.58 847.003 737.76 860.351 737.76L860.351 735.76C845.898 735.76 834.182 747.476 834.182 761.928L836.182 761.928ZM837.169 768.786C836.527 766.613 836.182 764.312 836.182 761.928L834.182 761.928C834.182 764.505 834.555 766.998 835.251 769.353L837.169 768.786ZM779.456 774.673L833.106 774.673L833.106 772.673L779.456 772.673L779.456 774.673ZM777.456 830.323L777.456 776.673L775.456 776.673L775.456 830.323L777.456 830.323ZM764.711 833.399C767.095 833.399 769.397 833.744 771.57 834.386L772.136 832.468C769.781 831.772 767.289 831.399 764.711 831.399L764.711 833.399ZM740.543 857.567C740.543 844.22 751.363 833.399 764.711 833.399L764.711 831.399C750.259 831.399 738.543 843.115 738.543 857.567L740.543 857.567ZM764.711 881.736C751.363 881.736 740.543 870.915 740.543 857.567L738.543 857.567C738.543 872.02 750.259 883.736 764.711 883.736L764.711 881.736ZM775.456 830.323C775.456 831.775 773.803 832.96 772.136 832.468L771.57 834.386C774.237 835.174 777.456 833.39 777.456 830.323L775.456 830.323ZM887.595 772.673C886.143 772.673 884.958 771.02 885.45 769.353L883.532 768.786C882.744 771.454 884.528 774.673 887.595 774.673L887.595 772.673ZM779.456 772.673C777.247 772.673 775.456 774.464 775.456 776.673L777.456 776.673C777.456 775.568 778.352 774.673 779.456 774.673L779.456 772.673ZM945.245 884.812C945.245 881.744 942.026 879.961 939.358 880.749L939.925 882.667C941.592 882.175 943.245 883.36 943.245 884.812L945.245 884.812ZM835.251 769.353C835.743 771.02 834.558 772.673 833.106 772.673L833.106 774.673C836.174 774.673 837.957 771.454 837.169 768.786L835.251 769.353ZM941.245 942.462C943.454 942.462 945.245 940.671 945.245 938.462L943.245 938.462C943.245 939.566 942.349 940.462 941.245 940.462L941.245 942.462ZM945.245 776.673C945.245 774.464 943.454 772.673 941.245 772.673L941.245 774.673C942.349 774.673 943.245 775.569 943.245 776.673L945.245 776.673ZM833.106 942.462C834.558 942.462 835.743 944.115 835.251 945.782L837.169 946.348C837.957 943.681 836.174 940.462 833.106 940.462L833.106 942.462ZM885.45 945.782C884.958 944.115 886.143 942.462 887.595 942.462L887.595 940.462C884.528 940.462 882.744 943.681 883.532 946.348L885.45 945.782ZM939.358 834.386C942.026 835.174 945.245 833.39 945.245 830.323L943.245 830.323C943.245 831.775 941.592 832.96 939.925 832.468L939.358 834.386ZM775.456 938.462C775.456 940.671 777.247 942.462 779.456 942.462L779.456 940.462C778.352 940.462 777.456 939.566 777.456 938.462L775.456 938.462ZM772.136 882.667C773.803 882.175 775.456 883.36 775.456 884.812L777.456 884.812C777.456 881.744 774.237 879.961 771.57 880.749L772.136 882.667Z" fill="url(#paint2_radial_76_844)" mask="url(#path-2-inside-1_76_844)"/>
<g filter="url(#filter1_f_76_844)">
<path d="M556.654 882.735C559.135 882.735 561.531 882.377 563.795 881.708C565.963 881.068 568.399 882.552 568.399 884.812V938.461C568.399 940.118 569.742 941.461 571.399 941.461L625.049 941.461C627.309 941.461 628.793 939.025 628.153 936.858C627.484 934.594 627.125 932.197 627.125 929.716C627.125 915.816 638.393 904.548 652.293 904.548C666.193 904.548 677.462 915.816 677.462 929.716C677.462 932.197 677.103 934.594 676.434 936.858C675.794 939.025 677.278 941.461 679.538 941.461L733.187 941.461C734.844 941.461 736.187 940.118 736.187 938.461L736.187 884.812C736.187 882.552 733.751 881.068 731.584 881.708C729.32 882.377 726.923 882.735 724.442 882.735C710.542 882.735 699.274 871.467 699.274 857.567C699.274 843.667 710.542 832.399 724.442 832.399C726.923 832.399 729.32 832.758 731.584 833.427C733.751 834.067 736.187 832.583 736.187 830.323L736.188 776.673C736.188 775.016 734.844 773.673 733.188 773.673L679.538 773.673C677.278 773.673 675.794 776.109 676.434 778.277C677.103 780.541 677.462 782.937 677.462 785.418C677.462 799.318 666.193 810.586 652.293 810.586C638.393 810.586 627.125 799.318 627.125 785.418C627.125 782.937 627.484 780.541 628.153 778.277C628.793 776.109 627.309 773.673 625.049 773.673H571.399C569.742 773.673 568.399 775.016 568.399 776.673V830.323C568.399 832.583 565.963 834.067 563.795 833.427C561.531 832.758 559.135 832.399 556.654 832.399C542.754 832.399 531.486 843.667 531.486 857.567C531.486 871.467 542.754 882.735 556.654 882.735Z" fill="#FF5800"/>
</g>
<path fill-rule="evenodd" clip-rule="evenodd" d="M556.654 882.735C559.134 882.735 561.531 882.377 563.795 881.708C565.963 881.068 568.399 882.552 568.399 884.812L568.399 938.461C568.399 940.118 569.742 941.461 571.399 941.461L625.049 941.461C627.308 941.461 628.793 939.025 628.152 936.858C627.484 934.594 627.125 932.197 627.125 929.716C627.125 915.816 638.393 904.548 652.293 904.548C666.193 904.548 677.461 915.816 677.461 929.716C677.461 932.197 677.102 934.594 676.434 936.858C675.794 939.025 677.278 941.461 679.538 941.461L733.187 941.461C734.844 941.461 736.187 940.118 736.187 938.461L736.187 884.812C736.187 882.552 733.751 881.068 731.584 881.708C729.32 882.377 726.923 882.735 724.442 882.735C710.542 882.735 699.274 871.467 699.274 857.567C699.274 843.667 710.542 832.399 724.442 832.399C726.923 832.399 729.32 832.758 731.584 833.427C733.751 834.067 736.187 832.583 736.187 830.323L736.187 776.673C736.187 775.016 734.844 773.673 733.187 773.673L679.538 773.673C677.278 773.673 675.794 776.109 676.434 778.277C677.102 780.541 677.461 782.937 677.461 785.418C677.461 799.318 666.193 810.586 652.293 810.586C638.393 810.586 627.125 799.318 627.125 785.418C627.125 782.937 627.484 780.541 628.152 778.277C628.793 776.109 627.308 773.673 625.049 773.673L571.399 773.673C569.742 773.673 568.399 775.016 568.399 776.673L568.399 830.323C568.399 832.583 565.963 834.067 563.795 833.427C561.531 832.758 559.134 832.399 556.654 832.399C542.754 832.399 531.485 843.667 531.485 857.567C531.485 871.467 542.754 882.735 556.654 882.735Z" fill="#FF5800"/>
<mask id="path-6-inside-2_76_844" fill="white">
<path fill-rule="evenodd" clip-rule="evenodd" d="M628.153 570.219C628.793 568.052 627.309 565.615 625.049 565.615L571.399 565.615C569.742 565.615 568.399 566.958 568.399 568.615L568.399 622.265C568.399 624.525 570.835 626.009 573.003 625.369C575.267 624.7 577.663 624.341 580.144 624.341C594.044 624.341 605.312 635.609 605.312 649.509C605.312 663.41 594.044 674.678 580.144 674.678C577.663 674.678 575.267 674.319 573.003 673.65C570.835 673.01 568.399 674.494 568.399 676.754L568.399 730.404C568.399 732.061 569.742 733.404 571.399 733.404L625.049 733.404C627.309 733.404 628.793 735.84 628.153 738.007C627.484 740.271 627.125 742.668 627.125 745.149C627.125 759.049 638.393 770.317 652.293 770.317C666.193 770.317 677.461 759.049 677.461 745.149C677.461 742.668 677.103 740.271 676.434 738.007C675.794 735.84 677.278 733.404 679.538 733.404L733.187 733.404C734.844 733.404 736.187 732.061 736.187 730.404L736.187 676.754C736.187 674.494 738.624 673.01 740.791 673.65C743.055 674.319 745.452 674.678 747.933 674.678C761.833 674.678 773.101 663.41 773.101 649.509C773.101 635.609 761.833 624.341 747.933 624.341C745.452 624.341 743.055 624.7 740.791 625.369C738.624 626.009 736.187 624.525 736.187 622.265L736.187 568.615C736.187 566.958 734.844 565.615 733.187 565.615L679.538 565.615C677.278 565.615 675.794 568.052 676.434 570.219C677.103 572.483 677.461 574.88 677.461 577.36C677.461 591.26 666.193 602.529 652.293 602.529C638.393 602.529 627.125 591.26 627.125 577.36C627.125 574.88 627.484 572.483 628.153 570.219Z"/>
</mask>
<path fill-rule="evenodd" clip-rule="evenodd" d="M628.153 570.219C628.793 568.052 627.309 565.615 625.049 565.615L571.399 565.615C569.742 565.615 568.399 566.958 568.399 568.615L568.399 622.265C568.399 624.525 570.835 626.009 573.003 625.369C575.267 624.7 577.663 624.341 580.144 624.341C594.044 624.341 605.312 635.609 605.312 649.509C605.312 663.41 594.044 674.678 580.144 674.678C577.663 674.678 575.267 674.319 573.003 673.65C570.835 673.01 568.399 674.494 568.399 676.754L568.399 730.404C568.399 732.061 569.742 733.404 571.399 733.404L625.049 733.404C627.309 733.404 628.793 735.84 628.153 738.007C627.484 740.271 627.125 742.668 627.125 745.149C627.125 759.049 638.393 770.317 652.293 770.317C666.193 770.317 677.461 759.049 677.461 745.149C677.461 742.668 677.103 740.271 676.434 738.007C675.794 735.84 677.278 733.404 679.538 733.404L733.187 733.404C734.844 733.404 736.187 732.061 736.187 730.404L736.187 676.754C736.187 674.494 738.624 673.01 740.791 673.65C743.055 674.319 745.452 674.678 747.933 674.678C761.833 674.678 773.101 663.41 773.101 649.509C773.101 635.609 761.833 624.341 747.933 624.341C745.452 624.341 743.055 624.7 740.791 625.369C738.624 626.009 736.187 624.525 736.187 622.265L736.187 568.615C736.187 566.958 734.844 565.615 733.187 565.615L679.538 565.615C677.278 565.615 675.794 568.052 676.434 570.219C677.103 572.483 677.461 574.88 677.461 577.36C677.461 591.26 666.193 602.529 652.293 602.529C638.393 602.529 627.125 591.26 627.125 577.36C627.125 574.88 627.484 572.483 628.153 570.219Z" fill="url(#paint3_linear_76_844)" fill-opacity="0.5"/>
<path d="M676.434 570.219L675.475 570.502L676.434 570.219ZM740.791 673.65L740.508 674.609L740.791 673.65ZM625.049 733.404L625.049 732.404L625.049 733.404ZM628.153 738.007L629.112 738.291L628.153 738.007ZM740.791 625.369L740.508 624.41L740.791 625.369ZM571.399 733.404L571.399 732.404L571.399 733.404ZM733.187 733.404L733.187 732.404L733.187 733.404ZM573.003 673.65L573.286 672.691L573.003 673.65ZM676.434 738.007L675.475 738.291L676.434 738.007ZM679.538 733.404L679.538 732.404L679.538 733.404ZM571.399 565.615L571.399 566.615L571.399 565.615ZM625.049 565.615L625.049 566.615L625.049 565.615ZM625.049 564.615L571.399 564.615L571.399 566.615L625.049 566.615L625.049 564.615ZM567.399 568.615L567.399 622.265L569.399 622.265L569.399 568.615L567.399 568.615ZM573.286 626.328C575.459 625.686 577.76 625.341 580.144 625.341L580.144 623.341C577.566 623.341 575.074 623.714 572.719 624.41L573.286 626.328ZM580.144 625.341C593.492 625.341 604.312 636.162 604.312 649.509L606.312 649.509C606.312 635.057 594.596 623.341 580.144 623.341L580.144 625.341ZM604.312 649.509C604.312 662.857 593.492 673.678 580.144 673.678L580.144 675.678C594.596 675.678 606.312 663.962 606.312 649.509L604.312 649.509ZM580.144 673.678C577.76 673.678 575.459 673.333 573.286 672.691L572.719 674.609C575.074 675.305 577.566 675.678 580.144 675.678L580.144 673.678ZM567.399 676.754L567.399 730.404L569.399 730.404L569.399 676.754L567.399 676.754ZM571.399 734.404L625.049 734.404L625.049 732.404L571.399 732.404L571.399 734.404ZM627.193 737.724C626.498 740.079 626.125 742.571 626.125 745.149L628.125 745.149C628.125 742.765 628.47 740.464 629.112 738.291L627.193 737.724ZM626.125 745.149C626.125 759.601 637.841 771.317 652.293 771.317L652.293 769.317C638.945 769.317 628.125 758.497 628.125 745.149L626.125 745.149ZM652.293 771.317C666.746 771.317 678.461 759.601 678.461 745.149L676.461 745.149C676.461 758.497 665.641 769.317 652.293 769.317L652.293 771.317ZM678.461 745.149C678.461 742.571 678.088 740.079 677.393 737.724L675.475 738.291C676.117 740.464 676.461 742.765 676.461 745.149L678.461 745.149ZM679.538 734.404L733.187 734.404L733.187 732.404L679.538 732.404L679.538 734.404ZM737.187 730.404L737.187 676.754L735.187 676.754L735.187 730.404L737.187 730.404ZM740.508 674.609C742.863 675.305 745.355 675.678 747.933 675.678L747.933 673.678C745.549 673.678 743.247 673.333 741.074 672.691L740.508 674.609ZM747.933 675.678C762.385 675.678 774.101 663.962 774.101 649.509L772.101 649.509C772.101 662.857 761.28 673.678 747.933 673.678L747.933 675.678ZM774.101 649.509C774.101 635.057 762.385 623.341 747.933 623.341L747.933 625.341C761.28 625.341 772.101 636.162 772.101 649.509L774.101 649.509ZM747.933 623.341C745.355 623.341 742.863 623.714 740.508 624.41L741.074 626.328C743.247 625.686 745.549 625.341 747.933 625.341L747.933 623.341ZM737.187 622.265L737.187 568.615L735.187 568.615L735.187 622.265L737.187 622.265ZM733.187 564.615L679.538 564.615L679.538 566.615L733.187 566.615L733.187 564.615ZM675.475 570.502C676.117 572.675 676.461 574.977 676.461 577.36L678.461 577.36C678.461 574.783 678.088 572.291 677.393 569.936L675.475 570.502ZM676.461 577.36C676.461 590.708 665.641 601.529 652.293 601.529L652.293 603.529C666.745 603.529 678.461 591.813 678.461 577.36L676.461 577.36ZM652.293 601.529C638.945 601.529 628.125 590.708 628.125 577.36L626.125 577.36C626.125 591.813 637.841 603.529 652.293 603.529L652.293 601.529ZM628.125 577.36C628.125 574.977 628.47 572.675 629.112 570.502L627.193 569.936C626.498 572.291 626.125 574.783 626.125 577.36L628.125 577.36ZM679.538 564.615C676.47 564.615 674.687 567.834 675.475 570.502L677.393 569.936C676.9 568.269 678.085 566.615 679.538 566.615L679.538 564.615ZM737.187 676.754C737.187 675.302 738.841 674.117 740.508 674.609L741.074 672.691C738.407 671.903 735.187 673.687 735.187 676.754L737.187 676.754ZM737.187 568.615C737.187 566.406 735.397 564.615 733.187 564.615L733.187 566.615C734.292 566.615 735.187 567.511 735.187 568.615L737.187 568.615ZM625.049 734.404C626.501 734.404 627.686 736.057 627.193 737.724L629.112 738.291C629.9 735.623 628.116 732.404 625.049 732.404L625.049 734.404ZM740.508 624.41C738.841 624.902 737.187 623.717 737.187 622.265L735.187 622.265C735.187 625.332 738.407 627.116 741.074 626.328L740.508 624.41ZM567.399 730.404C567.399 732.613 569.19 734.404 571.399 734.404L571.399 732.404C570.294 732.404 569.399 731.508 569.399 730.404L567.399 730.404ZM733.187 734.404C735.397 734.404 737.187 732.613 737.187 730.404L735.187 730.404C735.187 731.508 734.292 732.404 733.187 732.404L733.187 734.404ZM567.399 622.265C567.399 625.332 570.618 627.116 573.286 626.328L572.719 624.41C571.052 624.902 569.399 623.717 569.399 622.265L567.399 622.265ZM573.286 672.691C570.618 671.903 567.399 673.687 567.399 676.754L569.399 676.754C569.399 675.302 571.052 674.117 572.719 674.609L573.286 672.691ZM677.393 737.724C676.9 736.057 678.085 734.404 679.538 734.404L679.538 732.404C676.47 732.404 674.687 735.623 675.475 738.291L677.393 737.724ZM571.399 564.615C569.19 564.615 567.399 566.406 567.399 568.615L569.399 568.615C569.399 567.511 570.294 566.615 571.399 566.615L571.399 564.615ZM625.049 566.615C626.501 566.615 627.686 568.269 627.193 569.936L629.112 570.502C629.899 567.834 628.116 564.615 625.049 564.615L625.049 566.615Z" fill="url(#paint4_radial_76_844)" mask="url(#path-6-inside-2_76_844)"/>
<g opacity="0.3">
<line x1="1107" y1="941.961" x2="409" y2="941.961" stroke="url(#paint5_linear_76_844)"/>
<line x1="1107" y1="754.039" x2="409" y2="754.039" stroke="url(#paint6_linear_76_844)"/>
<line x1="1107" y1="566.115" x2="409" y2="566.115" stroke="url(#paint7_linear_76_844)"/>
<line x1="945.423" y1="1022" x2="945.423" y2="510.245" stroke="url(#paint8_linear_76_844)"/>
<line x1="757.5" y1="1022" x2="757.5" y2="510.245" stroke="url(#paint9_linear_76_844)"/>
<line x1="569.577" y1="1022" x2="569.577" y2="510.245" stroke="url(#paint10_linear_76_844)"/>
</g>
<circle cx="945.5" cy="565.745" r="2.5" transform="rotate(-180 945.5 565.745)" fill="#D9D9D9" fill-opacity="0.5"/>
<circle cx="757.5" cy="565.745" r="2.5" transform="rotate(-180 757.5 565.745)" fill="#D9D9D9" fill-opacity="0.5"/>
<ellipse cx="569" cy="565.745" rx="2" ry="2.5" transform="rotate(-180 569 565.745)" fill="#D9D9D9" fill-opacity="0.5"/>
<circle cx="945.5" cy="942.745" r="2.5" transform="rotate(-180 945.5 942.745)" fill="#D9D9D9" fill-opacity="0.5"/>
<circle cx="757.5" cy="942.745" r="2.5" transform="rotate(-180 757.5 942.745)" fill="#D9D9D9" fill-opacity="0.5"/>
<circle cx="757.5" cy="754.745" r="2.5" transform="rotate(-180 757.5 754.745)" fill="#D9D9D9" fill-opacity="0.5"/>
<ellipse cx="569" cy="942.745" rx="2" ry="2.5" transform="rotate(-180 569 942.745)" fill="#D9D9D9" fill-opacity="0.5"/>
<defs>
<filter id="filter0_f_76_844" x="0" y="0" width="1511" height="1511" filterUnits="userSpaceOnUse" color-interpolation-filters="sRGB">
<feFlood flood-opacity="0" result="BackgroundImageFix"/>
<feBlend mode="normal" in="SourceGraphic" in2="BackgroundImageFix" result="shape"/>
<feGaussianBlur stdDeviation="250" result="effect1_foregroundBlur_76_844"/>
</filter>
<filter id="filter1_f_76_844" x="513.485" y="755.673" width="240.702" height="203.789" filterUnits="userSpaceOnUse" color-interpolation-filters="sRGB">
<feFlood flood-opacity="0" result="BackgroundImageFix"/>
<feBlend mode="normal" in="SourceGraphic" in2="BackgroundImageFix" result="shape"/>
<feGaussianBlur stdDeviation="9" result="effect1_foregroundBlur_76_844"/>
</filter>
<radialGradient id="paint0_radial_76_844" cx="0" cy="0" r="1" gradientUnits="userSpaceOnUse" gradientTransform="translate(755.5 725.156) rotate(90) scale(263.693)">
<stop stop-color="#D9D9D9"/>
<stop offset="1" stop-color="#D9D9D9" stop-opacity="0"/>
</radialGradient>
<linearGradient id="paint1_linear_76_844" x1="739.543" y1="978.375" x2="800.135" y2="707.993" gradientUnits="userSpaceOnUse">
<stop stop-color="#212121" stop-opacity="0.3"/>
<stop offset="0.536458" stop-color="#212121"/>
<stop offset="1" stop-color="#212121" stop-opacity="0"/>
</linearGradient>
<radialGradient id="paint2_radial_76_844" cx="0" cy="0" r="1" gradientUnits="userSpaceOnUse" gradientTransform="translate(739.543 857.567) scale(204.702 248.583)">
<stop stop-color="white" stop-opacity="0.75"/>
<stop offset="0.53125" stop-color="white" stop-opacity="0"/>
<stop offset="1" stop-color="white" stop-opacity="0.15"/>
</radialGradient>
<linearGradient id="paint3_linear_76_844" x1="568.399" y1="565.615" x2="800.606" y2="609.702" gradientUnits="userSpaceOnUse">
<stop stop-color="#212121" stop-opacity="0.3"/>
<stop offset="0.536458" stop-color="#212121"/>
<stop offset="1" stop-color="#212121" stop-opacity="0"/>
</linearGradient>
<radialGradient id="paint4_radial_76_844" cx="0" cy="0" r="1" gradientUnits="userSpaceOnUse" gradientTransform="translate(670.75 565.615) rotate(90) scale(204.702 210.605)">
<stop stop-color="white" stop-opacity="0.75"/>
<stop offset="0.53125" stop-color="white" stop-opacity="0"/>
<stop offset="1" stop-color="white" stop-opacity="0.15"/>
</radialGradient>
<linearGradient id="paint5_linear_76_844" x1="1107" y1="941.461" x2="409" y2="941.461" gradientUnits="userSpaceOnUse">
<stop stop-color="white" stop-opacity="0"/>
<stop offset="0.546875" stop-color="white"/>
<stop offset="1" stop-color="white" stop-opacity="0"/>
</linearGradient>
<linearGradient id="paint6_linear_76_844" x1="1107" y1="753.539" x2="409" y2="753.539" gradientUnits="userSpaceOnUse">
<stop offset="0.0744994" stop-color="white" stop-opacity="0.22"/>
<stop offset="0.509795" stop-color="white" stop-opacity="0"/>
<stop offset="0.919734" stop-color="white" stop-opacity="0.18"/>
</linearGradient>
<linearGradient id="paint7_linear_76_844" x1="1107" y1="565.615" x2="409" y2="565.615" gradientUnits="userSpaceOnUse">
<stop stop-color="white" stop-opacity="0"/>
<stop offset="0.546875" stop-color="white"/>
<stop offset="1" stop-color="white" stop-opacity="0"/>
</linearGradient>
<linearGradient id="paint8_linear_76_844" x1="945.923" y1="1022" x2="945.923" y2="510.245" gradientUnits="userSpaceOnUse">
<stop stop-color="white" stop-opacity="0"/>
<stop offset="0.546875" stop-color="white"/>
<stop offset="1" stop-color="white" stop-opacity="0"/>
</linearGradient>
<linearGradient id="paint9_linear_76_844" x1="758" y1="1022" x2="758" y2="510.245" gradientUnits="userSpaceOnUse">
<stop offset="0.145872" stop-color="white" stop-opacity="0.27"/>
<stop offset="0.546875" stop-color="white" stop-opacity="0"/>
<stop offset="0.879849" stop-color="white" stop-opacity="0.26"/>
</linearGradient>
<linearGradient id="paint10_linear_76_844" x1="570.077" y1="1022" x2="570.077" y2="510.245" gradientUnits="userSpaceOnUse">
<stop stop-color="white" stop-opacity="0"/>
<stop offset="0.546875" stop-color="white"/>
<stop offset="1" stop-color="white" stop-opacity="0"/>
</linearGradient>
</defs>
</svg>
